M48
; DRILL file {KiCad (5.1.5)-3} date 12/26/2019 8:27:50 AM
; FORMAT={-:-/ absolute / inch / decimal}
; #@! TF.CreationDate,2019-12-26T08:27:50-08:00
; #@! TF.GenerationSoftware,Kicad,Pcbnew,(5.1.5)-3
; #@! TF.FileFunction,Plated,1,2,PTH
FMAT,2
INCH
T1C0.0157
T2C0.0394
%
G90
G05
T1
X5.1793Y-3.75
X5.19Y-2.43
X5.2454Y-2.4546
X5.35Y-3.06
X5.41Y-3.75
X5.732Y-3.118
X5.825Y-3.38
X5.855Y-2.97
X5.875Y-2.8
X5.985Y-2.97
X6.0Y-3.35
X6.1Y-3.352
X6.302Y-3.125
X6.47Y-2.425
X6.47Y-3.26
X6.496Y-3.825
X6.65Y-3.06
X6.755Y-3.7757
X6.7857Y-2.43
T2
X6.4Y-2.65
X6.4Y-2.75
X6.4Y-2.85
X6.4Y-2.95
X6.4Y-3.05
X6.4Y-3.15
X6.4Y-3.25
X6.4Y-3.35
X6.4Y-3.45
X6.4Y-3.55
X6.4Y-3.65
X6.4Y-3.75
X5.6Y-2.25
X5.6Y-2.35
X5.6Y-2.45
X5.6Y-2.55
X5.6Y-2.65
X5.6Y-2.75
X5.6Y-2.85
X5.6Y-2.95
X5.6Y-3.05
X5.6Y-3.15
X5.6Y-3.25
X5.6Y-3.35
X5.6Y-3.45
X5.6Y-3.55
X5.6Y-3.65
X5.6Y-3.75
T0
M30
