G04 #@! TF.GenerationSoftware,KiCad,Pcbnew,(5.1.5)-3*
G04 #@! TF.CreationDate,2019-12-26T08:27:47-08:00*
G04 #@! TF.ProjectId,featherwing_copter,66656174-6865-4727-9769-6e675f636f70,rev?*
G04 #@! TF.SameCoordinates,Original*
G04 #@! TF.FileFunction,Legend,Top*
G04 #@! TF.FilePolarity,Positive*
%FSLAX46Y46*%
G04 Gerber Fmt 4.6, Leading zero omitted, Abs format (unit mm)*
G04 Created by KiCad (PCBNEW (5.1.5)-3) date 2019-12-26 08:27:47*
%MOMM*%
%LPD*%
G04 APERTURE LIST*
%ADD10C,0.150000*%
%ADD11C,0.152400*%
%ADD12C,0.120000*%
%ADD13C,0.076200*%
G04 APERTURE END LIST*
D10*
X145574619Y-54942314D02*
X145955571Y-54942314D01*
X145717476Y-55608980D02*
X145717476Y-54751838D01*
X145765095Y-54656600D01*
X145860333Y-54608980D01*
X145955571Y-54608980D01*
X146669857Y-55561361D02*
X146574619Y-55608980D01*
X146384142Y-55608980D01*
X146288904Y-55561361D01*
X146241285Y-55466123D01*
X146241285Y-55085171D01*
X146288904Y-54989933D01*
X146384142Y-54942314D01*
X146574619Y-54942314D01*
X146669857Y-54989933D01*
X146717476Y-55085171D01*
X146717476Y-55180409D01*
X146241285Y-55275647D01*
X147574619Y-55608980D02*
X147574619Y-55085171D01*
X147527000Y-54989933D01*
X147431761Y-54942314D01*
X147241285Y-54942314D01*
X147146047Y-54989933D01*
X147574619Y-55561361D02*
X147479380Y-55608980D01*
X147241285Y-55608980D01*
X147146047Y-55561361D01*
X147098428Y-55466123D01*
X147098428Y-55370885D01*
X147146047Y-55275647D01*
X147241285Y-55228028D01*
X147479380Y-55228028D01*
X147574619Y-55180409D01*
X147907952Y-54942314D02*
X148288904Y-54942314D01*
X148050809Y-54608980D02*
X148050809Y-55466123D01*
X148098428Y-55561361D01*
X148193666Y-55608980D01*
X148288904Y-55608980D01*
X148622238Y-55608980D02*
X148622238Y-54608980D01*
X149050809Y-55608980D02*
X149050809Y-55085171D01*
X149003190Y-54989933D01*
X148907952Y-54942314D01*
X148765095Y-54942314D01*
X148669857Y-54989933D01*
X148622238Y-55037552D01*
X149907952Y-55561361D02*
X149812714Y-55608980D01*
X149622238Y-55608980D01*
X149527000Y-55561361D01*
X149479380Y-55466123D01*
X149479380Y-55085171D01*
X149527000Y-54989933D01*
X149622238Y-54942314D01*
X149812714Y-54942314D01*
X149907952Y-54989933D01*
X149955571Y-55085171D01*
X149955571Y-55180409D01*
X149479380Y-55275647D01*
X150384142Y-55608980D02*
X150384142Y-54942314D01*
X150384142Y-55132790D02*
X150431761Y-55037552D01*
X150479380Y-54989933D01*
X150574619Y-54942314D01*
X150669857Y-54942314D01*
X150907952Y-54942314D02*
X151098428Y-55608980D01*
X151288904Y-55132790D01*
X151479380Y-55608980D01*
X151669857Y-54942314D01*
X152050809Y-55608980D02*
X152050809Y-54942314D01*
X152050809Y-54608980D02*
X152003190Y-54656600D01*
X152050809Y-54704219D01*
X152098428Y-54656600D01*
X152050809Y-54608980D01*
X152050809Y-54704219D01*
X152527000Y-54942314D02*
X152527000Y-55608980D01*
X152527000Y-55037552D02*
X152574619Y-54989933D01*
X152669857Y-54942314D01*
X152812714Y-54942314D01*
X152907952Y-54989933D01*
X152955571Y-55085171D01*
X152955571Y-55608980D01*
X153860333Y-54942314D02*
X153860333Y-55751838D01*
X153812714Y-55847076D01*
X153765095Y-55894695D01*
X153669857Y-55942314D01*
X153527000Y-55942314D01*
X153431761Y-55894695D01*
X153860333Y-55561361D02*
X153765095Y-55608980D01*
X153574619Y-55608980D01*
X153479380Y-55561361D01*
X153431761Y-55513742D01*
X153384142Y-55418504D01*
X153384142Y-55132790D01*
X153431761Y-55037552D01*
X153479380Y-54989933D01*
X153574619Y-54942314D01*
X153765095Y-54942314D01*
X153860333Y-54989933D01*
X154098428Y-55704219D02*
X154860333Y-55704219D01*
X155527000Y-55561361D02*
X155431761Y-55608980D01*
X155241285Y-55608980D01*
X155146047Y-55561361D01*
X155098428Y-55513742D01*
X155050809Y-55418504D01*
X155050809Y-55132790D01*
X155098428Y-55037552D01*
X155146047Y-54989933D01*
X155241285Y-54942314D01*
X155431761Y-54942314D01*
X155527000Y-54989933D01*
X156098428Y-55608980D02*
X156003190Y-55561361D01*
X155955571Y-55513742D01*
X155907952Y-55418504D01*
X155907952Y-55132790D01*
X155955571Y-55037552D01*
X156003190Y-54989933D01*
X156098428Y-54942314D01*
X156241285Y-54942314D01*
X156336523Y-54989933D01*
X156384142Y-55037552D01*
X156431761Y-55132790D01*
X156431761Y-55418504D01*
X156384142Y-55513742D01*
X156336523Y-55561361D01*
X156241285Y-55608980D01*
X156098428Y-55608980D01*
X156860333Y-54942314D02*
X156860333Y-55942314D01*
X156860333Y-54989933D02*
X156955571Y-54942314D01*
X157146047Y-54942314D01*
X157241285Y-54989933D01*
X157288904Y-55037552D01*
X157336523Y-55132790D01*
X157336523Y-55418504D01*
X157288904Y-55513742D01*
X157241285Y-55561361D01*
X157146047Y-55608980D01*
X156955571Y-55608980D01*
X156860333Y-55561361D01*
X157622238Y-54942314D02*
X158003190Y-54942314D01*
X157765095Y-54608980D02*
X157765095Y-55466123D01*
X157812714Y-55561361D01*
X157907952Y-55608980D01*
X158003190Y-55608980D01*
X158717476Y-55561361D02*
X158622238Y-55608980D01*
X158431761Y-55608980D01*
X158336523Y-55561361D01*
X158288904Y-55466123D01*
X158288904Y-55085171D01*
X158336523Y-54989933D01*
X158431761Y-54942314D01*
X158622238Y-54942314D01*
X158717476Y-54989933D01*
X158765095Y-55085171D01*
X158765095Y-55180409D01*
X158288904Y-55275647D01*
X159193666Y-55608980D02*
X159193666Y-54942314D01*
X159193666Y-55132790D02*
X159241285Y-55037552D01*
X159288904Y-54989933D01*
X159384142Y-54942314D01*
X159479380Y-54942314D01*
X146527000Y-57258980D02*
X146527000Y-56592314D01*
X146527000Y-56258980D02*
X146479380Y-56306600D01*
X146527000Y-56354219D01*
X146574619Y-56306600D01*
X146527000Y-56258980D01*
X146527000Y-56354219D01*
X147003190Y-57258980D02*
X147003190Y-56592314D01*
X147003190Y-56687552D02*
X147050809Y-56639933D01*
X147146047Y-56592314D01*
X147288904Y-56592314D01*
X147384142Y-56639933D01*
X147431761Y-56735171D01*
X147431761Y-57258980D01*
X147431761Y-56735171D02*
X147479380Y-56639933D01*
X147574619Y-56592314D01*
X147717476Y-56592314D01*
X147812714Y-56639933D01*
X147860333Y-56735171D01*
X147860333Y-57258980D01*
X148765095Y-57258980D02*
X148765095Y-56735171D01*
X148717476Y-56639933D01*
X148622238Y-56592314D01*
X148431761Y-56592314D01*
X148336523Y-56639933D01*
X148765095Y-57211361D02*
X148669857Y-57258980D01*
X148431761Y-57258980D01*
X148336523Y-57211361D01*
X148288904Y-57116123D01*
X148288904Y-57020885D01*
X148336523Y-56925647D01*
X148431761Y-56878028D01*
X148669857Y-56878028D01*
X148765095Y-56830409D01*
X149241285Y-56592314D02*
X149241285Y-57258980D01*
X149241285Y-56687552D02*
X149288904Y-56639933D01*
X149384142Y-56592314D01*
X149527000Y-56592314D01*
X149622238Y-56639933D01*
X149669857Y-56735171D01*
X149669857Y-57258980D01*
X149907952Y-57354219D02*
X150669857Y-57354219D01*
X150860333Y-56354219D02*
X150907952Y-56306600D01*
X151003190Y-56258980D01*
X151241285Y-56258980D01*
X151336523Y-56306600D01*
X151384142Y-56354219D01*
X151431761Y-56449457D01*
X151431761Y-56544695D01*
X151384142Y-56687552D01*
X150812714Y-57258980D01*
X151431761Y-57258980D01*
X152050809Y-56258980D02*
X152146047Y-56258980D01*
X152241285Y-56306600D01*
X152288904Y-56354219D01*
X152336523Y-56449457D01*
X152384142Y-56639933D01*
X152384142Y-56878028D01*
X152336523Y-57068504D01*
X152288904Y-57163742D01*
X152241285Y-57211361D01*
X152146047Y-57258980D01*
X152050809Y-57258980D01*
X151955571Y-57211361D01*
X151907952Y-57163742D01*
X151860333Y-57068504D01*
X151812714Y-56878028D01*
X151812714Y-56639933D01*
X151860333Y-56449457D01*
X151907952Y-56354219D01*
X151955571Y-56306600D01*
X152050809Y-56258980D01*
X153336523Y-57258980D02*
X152765095Y-57258980D01*
X153050809Y-57258980D02*
X153050809Y-56258980D01*
X152955571Y-56401838D01*
X152860333Y-56497076D01*
X152765095Y-56544695D01*
X153812714Y-57258980D02*
X154003190Y-57258980D01*
X154098428Y-57211361D01*
X154146047Y-57163742D01*
X154241285Y-57020885D01*
X154288904Y-56830409D01*
X154288904Y-56449457D01*
X154241285Y-56354219D01*
X154193666Y-56306600D01*
X154098428Y-56258980D01*
X153907952Y-56258980D01*
X153812714Y-56306600D01*
X153765095Y-56354219D01*
X153717476Y-56449457D01*
X153717476Y-56687552D01*
X153765095Y-56782790D01*
X153812714Y-56830409D01*
X153907952Y-56878028D01*
X154098428Y-56878028D01*
X154193666Y-56830409D01*
X154241285Y-56782790D01*
X154288904Y-56687552D01*
X155241285Y-57258980D02*
X154669857Y-57258980D01*
X154955571Y-57258980D02*
X154955571Y-56258980D01*
X154860333Y-56401838D01*
X154765095Y-56497076D01*
X154669857Y-56544695D01*
X155622238Y-56354219D02*
X155669857Y-56306600D01*
X155765095Y-56258980D01*
X156003190Y-56258980D01*
X156098428Y-56306600D01*
X156146047Y-56354219D01*
X156193666Y-56449457D01*
X156193666Y-56544695D01*
X156146047Y-56687552D01*
X155574619Y-57258980D01*
X156193666Y-57258980D01*
X156622238Y-57163742D02*
X156669857Y-57211361D01*
X156622238Y-57258980D01*
X156574619Y-57211361D01*
X156622238Y-57163742D01*
X156622238Y-57258980D01*
X157288904Y-56258980D02*
X157384142Y-56258980D01*
X157479380Y-56306600D01*
X157527000Y-56354219D01*
X157574619Y-56449457D01*
X157622238Y-56639933D01*
X157622238Y-56878028D01*
X157574619Y-57068504D01*
X157527000Y-57163742D01*
X157479380Y-57211361D01*
X157384142Y-57258980D01*
X157288904Y-57258980D01*
X157193666Y-57211361D01*
X157146047Y-57163742D01*
X157098428Y-57068504D01*
X157050809Y-56878028D01*
X157050809Y-56639933D01*
X157098428Y-56449457D01*
X157146047Y-56354219D01*
X157193666Y-56306600D01*
X157288904Y-56258980D01*
X158574619Y-57258980D02*
X158003190Y-57258980D01*
X158288904Y-57258980D02*
X158288904Y-56258980D01*
X158193666Y-56401838D01*
X158098428Y-56497076D01*
X158003190Y-56544695D01*
D11*
X151987000Y-82964000D02*
X151987000Y-82364000D01*
X151387000Y-82964000D02*
X151987000Y-82964000D01*
X147987000Y-82964000D02*
X148587000Y-82964000D01*
X147987000Y-82364000D02*
X147987000Y-82964000D01*
X147987000Y-77564000D02*
X147987000Y-78164000D01*
X148587000Y-77564000D02*
X147987000Y-77564000D01*
X151987000Y-77564000D02*
X151387000Y-77564000D01*
X151987000Y-78164000D02*
X151987000Y-77564000D01*
X151987000Y-78164000D02*
X152187000Y-78164000D01*
D12*
X154964200Y-72397252D02*
X154964200Y-71874748D01*
X153544200Y-72397252D02*
X153544200Y-71874748D01*
X154492000Y-86012000D02*
X154492000Y-86962000D01*
X149292000Y-85912000D02*
X149792000Y-85912000D01*
X149292000Y-86412000D02*
X149292000Y-85912000D01*
X149292000Y-89212000D02*
X149292000Y-88712000D01*
X149792000Y-89212000D02*
X149292000Y-89212000D01*
X154492000Y-89212000D02*
X153992000Y-89212000D01*
X154492000Y-88712000D02*
X154492000Y-89212000D01*
X134945000Y-80600000D02*
X134945000Y-77740000D01*
X133025000Y-80600000D02*
X134945000Y-80600000D01*
X133025000Y-77740000D02*
X133025000Y-80600000D01*
X171775000Y-80600000D02*
X171775000Y-77740000D01*
X169855000Y-80600000D02*
X171775000Y-80600000D01*
X169855000Y-77740000D02*
X169855000Y-80600000D01*
X169620000Y-79001252D02*
X169620000Y-78478748D01*
X168200000Y-79001252D02*
X168200000Y-78478748D01*
X136600000Y-79001252D02*
X136600000Y-78478748D01*
X135180000Y-79001252D02*
X135180000Y-78478748D01*
X156981148Y-75538400D02*
X157503652Y-75538400D01*
X156981148Y-74118400D02*
X157503652Y-74118400D01*
X157496252Y-76277400D02*
X156973748Y-76277400D01*
X157496252Y-77697400D02*
X156973748Y-77697400D01*
X154825800Y-78603400D02*
X154825800Y-81453400D01*
X156425800Y-78603400D02*
X154825800Y-78603400D01*
X156425800Y-81453400D02*
X156425800Y-78603400D01*
X145975000Y-71883748D02*
X145975000Y-72406252D01*
X147395000Y-71883748D02*
X147395000Y-72406252D01*
X151029600Y-71865748D02*
X151029600Y-72388252D01*
X152449600Y-71865748D02*
X152449600Y-72388252D01*
X155954800Y-93479252D02*
X155954800Y-92956748D01*
X154534800Y-93479252D02*
X154534800Y-92956748D01*
X158240800Y-93479252D02*
X158240800Y-92956748D01*
X156820800Y-93479252D02*
X156820800Y-92956748D01*
X159307052Y-78563400D02*
X158784548Y-78563400D01*
X159307052Y-79983400D02*
X158784548Y-79983400D01*
X158784548Y-81888400D02*
X159307052Y-81888400D01*
X158784548Y-80468400D02*
X159307052Y-80468400D01*
X148515000Y-71883748D02*
X148515000Y-72406252D01*
X149935000Y-71883748D02*
X149935000Y-72406252D01*
X149607200Y-92965748D02*
X149607200Y-93488252D01*
X151027200Y-92965748D02*
X151027200Y-93488252D01*
X147448200Y-92965748D02*
X147448200Y-93488252D01*
X148868200Y-92965748D02*
X148868200Y-93488252D01*
X153186200Y-93488252D02*
X153186200Y-92965748D01*
X151766200Y-93488252D02*
X151766200Y-92965748D01*
D10*
X152527095Y-83018380D02*
X152527095Y-83827904D01*
X152574714Y-83923142D01*
X152622333Y-83970761D01*
X152717571Y-84018380D01*
X152908047Y-84018380D01*
X153003285Y-83970761D01*
X153050904Y-83923142D01*
X153098523Y-83827904D01*
X153098523Y-83018380D01*
X154003285Y-83018380D02*
X153812809Y-83018380D01*
X153717571Y-83066000D01*
X153669952Y-83113619D01*
X153574714Y-83256476D01*
X153527095Y-83446952D01*
X153527095Y-83827904D01*
X153574714Y-83923142D01*
X153622333Y-83970761D01*
X153717571Y-84018380D01*
X153908047Y-84018380D01*
X154003285Y-83970761D01*
X154050904Y-83923142D01*
X154098523Y-83827904D01*
X154098523Y-83589809D01*
X154050904Y-83494571D01*
X154003285Y-83446952D01*
X153908047Y-83399333D01*
X153717571Y-83399333D01*
X153622333Y-83446952D01*
X153574714Y-83494571D01*
X153527095Y-83589809D01*
D13*
X153953028Y-70031428D02*
X153928838Y-70055619D01*
X153856266Y-70079809D01*
X153807885Y-70079809D01*
X153735314Y-70055619D01*
X153686933Y-70007238D01*
X153662742Y-69958857D01*
X153638552Y-69862095D01*
X153638552Y-69789523D01*
X153662742Y-69692761D01*
X153686933Y-69644380D01*
X153735314Y-69596000D01*
X153807885Y-69571809D01*
X153856266Y-69571809D01*
X153928838Y-69596000D01*
X153953028Y-69620190D01*
X154436838Y-70079809D02*
X154146552Y-70079809D01*
X154291695Y-70079809D02*
X154291695Y-69571809D01*
X154243314Y-69644380D01*
X154194933Y-69692761D01*
X154146552Y-69716952D01*
X154630361Y-69620190D02*
X154654552Y-69596000D01*
X154702933Y-69571809D01*
X154823885Y-69571809D01*
X154872266Y-69596000D01*
X154896457Y-69620190D01*
X154920647Y-69668571D01*
X154920647Y-69716952D01*
X154896457Y-69789523D01*
X154606171Y-70079809D01*
X154920647Y-70079809D01*
X154756152Y-88723409D02*
X154756152Y-89134647D01*
X154780342Y-89183028D01*
X154804533Y-89207219D01*
X154852914Y-89231409D01*
X154949676Y-89231409D01*
X154998057Y-89207219D01*
X155022247Y-89183028D01*
X155046438Y-89134647D01*
X155046438Y-88723409D01*
X155530247Y-88723409D02*
X155288342Y-88723409D01*
X155264152Y-88965314D01*
X155288342Y-88941123D01*
X155336723Y-88916933D01*
X155457676Y-88916933D01*
X155506057Y-88941123D01*
X155530247Y-88965314D01*
X155554438Y-89013695D01*
X155554438Y-89134647D01*
X155530247Y-89183028D01*
X155506057Y-89207219D01*
X155457676Y-89231409D01*
X155336723Y-89231409D01*
X155288342Y-89207219D01*
X155264152Y-89183028D01*
X133610047Y-81509809D02*
X133610047Y-81001809D01*
X133731000Y-81001809D01*
X133803571Y-81026000D01*
X133851952Y-81074380D01*
X133876142Y-81122761D01*
X133900333Y-81219523D01*
X133900333Y-81292095D01*
X133876142Y-81388857D01*
X133851952Y-81437238D01*
X133803571Y-81485619D01*
X133731000Y-81509809D01*
X133610047Y-81509809D01*
X134384142Y-81509809D02*
X134093857Y-81509809D01*
X134239000Y-81509809D02*
X134239000Y-81001809D01*
X134190619Y-81074380D01*
X134142238Y-81122761D01*
X134093857Y-81146952D01*
X170440047Y-81509809D02*
X170440047Y-81001809D01*
X170561000Y-81001809D01*
X170633571Y-81026000D01*
X170681952Y-81074380D01*
X170706142Y-81122761D01*
X170730333Y-81219523D01*
X170730333Y-81292095D01*
X170706142Y-81388857D01*
X170681952Y-81437238D01*
X170633571Y-81485619D01*
X170561000Y-81509809D01*
X170440047Y-81509809D01*
X170923857Y-81050190D02*
X170948047Y-81026000D01*
X170996428Y-81001809D01*
X171117380Y-81001809D01*
X171165761Y-81026000D01*
X171189952Y-81050190D01*
X171214142Y-81098571D01*
X171214142Y-81146952D01*
X171189952Y-81219523D01*
X170899666Y-81509809D01*
X171214142Y-81509809D01*
X168583428Y-81509809D02*
X168414095Y-81267904D01*
X168293142Y-81509809D02*
X168293142Y-81001809D01*
X168486666Y-81001809D01*
X168535047Y-81026000D01*
X168559238Y-81050190D01*
X168583428Y-81098571D01*
X168583428Y-81171142D01*
X168559238Y-81219523D01*
X168535047Y-81243714D01*
X168486666Y-81267904D01*
X168293142Y-81267904D01*
X169067238Y-81509809D02*
X168776952Y-81509809D01*
X168922095Y-81509809D02*
X168922095Y-81001809D01*
X168873714Y-81074380D01*
X168825333Y-81122761D01*
X168776952Y-81146952D01*
X169381714Y-81001809D02*
X169430095Y-81001809D01*
X169478476Y-81026000D01*
X169502666Y-81050190D01*
X169526857Y-81098571D01*
X169551047Y-81195333D01*
X169551047Y-81316285D01*
X169526857Y-81413047D01*
X169502666Y-81461428D01*
X169478476Y-81485619D01*
X169430095Y-81509809D01*
X169381714Y-81509809D01*
X169333333Y-81485619D01*
X169309142Y-81461428D01*
X169284952Y-81413047D01*
X169260761Y-81316285D01*
X169260761Y-81195333D01*
X169284952Y-81098571D01*
X169309142Y-81050190D01*
X169333333Y-81026000D01*
X169381714Y-81001809D01*
X135805333Y-81509809D02*
X135636000Y-81267904D01*
X135515047Y-81509809D02*
X135515047Y-81001809D01*
X135708571Y-81001809D01*
X135756952Y-81026000D01*
X135781142Y-81050190D01*
X135805333Y-81098571D01*
X135805333Y-81171142D01*
X135781142Y-81219523D01*
X135756952Y-81243714D01*
X135708571Y-81267904D01*
X135515047Y-81267904D01*
X136047238Y-81509809D02*
X136144000Y-81509809D01*
X136192380Y-81485619D01*
X136216571Y-81461428D01*
X136264952Y-81388857D01*
X136289142Y-81292095D01*
X136289142Y-81098571D01*
X136264952Y-81050190D01*
X136240761Y-81026000D01*
X136192380Y-81001809D01*
X136095619Y-81001809D01*
X136047238Y-81026000D01*
X136023047Y-81050190D01*
X135998857Y-81098571D01*
X135998857Y-81219523D01*
X136023047Y-81267904D01*
X136047238Y-81292095D01*
X136095619Y-81316285D01*
X136192380Y-81316285D01*
X136240761Y-81292095D01*
X136264952Y-81267904D01*
X136289142Y-81219523D01*
X159693428Y-75129571D02*
X159717619Y-75153761D01*
X159741809Y-75226333D01*
X159741809Y-75274714D01*
X159717619Y-75347285D01*
X159669238Y-75395666D01*
X159620857Y-75419857D01*
X159524095Y-75444047D01*
X159451523Y-75444047D01*
X159354761Y-75419857D01*
X159306380Y-75395666D01*
X159258000Y-75347285D01*
X159233809Y-75274714D01*
X159233809Y-75226333D01*
X159258000Y-75153761D01*
X159282190Y-75129571D01*
X159741809Y-74645761D02*
X159741809Y-74936047D01*
X159741809Y-74790904D02*
X159233809Y-74790904D01*
X159306380Y-74839285D01*
X159354761Y-74887666D01*
X159378952Y-74936047D01*
X159233809Y-74476428D02*
X159233809Y-74137761D01*
X159741809Y-74355476D01*
X159693428Y-77288571D02*
X159717619Y-77312761D01*
X159741809Y-77385333D01*
X159741809Y-77433714D01*
X159717619Y-77506285D01*
X159669238Y-77554666D01*
X159620857Y-77578857D01*
X159524095Y-77603047D01*
X159451523Y-77603047D01*
X159354761Y-77578857D01*
X159306380Y-77554666D01*
X159258000Y-77506285D01*
X159233809Y-77433714D01*
X159233809Y-77385333D01*
X159258000Y-77312761D01*
X159282190Y-77288571D01*
X159741809Y-76804761D02*
X159741809Y-77095047D01*
X159741809Y-76949904D02*
X159233809Y-76949904D01*
X159306380Y-76998285D01*
X159354761Y-77046666D01*
X159378952Y-77095047D01*
X159233809Y-76369333D02*
X159233809Y-76466095D01*
X159258000Y-76514476D01*
X159282190Y-76538666D01*
X159354761Y-76587047D01*
X159451523Y-76611238D01*
X159645047Y-76611238D01*
X159693428Y-76587047D01*
X159717619Y-76562857D01*
X159741809Y-76514476D01*
X159741809Y-76417714D01*
X159717619Y-76369333D01*
X159693428Y-76345142D01*
X159645047Y-76320952D01*
X159524095Y-76320952D01*
X159475714Y-76345142D01*
X159451523Y-76369333D01*
X159427333Y-76417714D01*
X159427333Y-76514476D01*
X159451523Y-76562857D01*
X159475714Y-76587047D01*
X159524095Y-76611238D01*
X155460095Y-82410904D02*
X155460095Y-82652809D01*
X155290761Y-82144809D02*
X155460095Y-82410904D01*
X155629428Y-82144809D01*
X156064857Y-82652809D02*
X155774571Y-82652809D01*
X155919714Y-82652809D02*
X155919714Y-82144809D01*
X155871333Y-82217380D01*
X155822952Y-82265761D01*
X155774571Y-82289952D01*
X146600333Y-70079809D02*
X146431000Y-69837904D01*
X146310047Y-70079809D02*
X146310047Y-69571809D01*
X146503571Y-69571809D01*
X146551952Y-69596000D01*
X146576142Y-69620190D01*
X146600333Y-69668571D01*
X146600333Y-69741142D01*
X146576142Y-69789523D01*
X146551952Y-69813714D01*
X146503571Y-69837904D01*
X146310047Y-69837904D01*
X146890619Y-69789523D02*
X146842238Y-69765333D01*
X146818047Y-69741142D01*
X146793857Y-69692761D01*
X146793857Y-69668571D01*
X146818047Y-69620190D01*
X146842238Y-69596000D01*
X146890619Y-69571809D01*
X146987380Y-69571809D01*
X147035761Y-69596000D01*
X147059952Y-69620190D01*
X147084142Y-69668571D01*
X147084142Y-69692761D01*
X147059952Y-69741142D01*
X147035761Y-69765333D01*
X146987380Y-69789523D01*
X146890619Y-69789523D01*
X146842238Y-69813714D01*
X146818047Y-69837904D01*
X146793857Y-69886285D01*
X146793857Y-69983047D01*
X146818047Y-70031428D01*
X146842238Y-70055619D01*
X146890619Y-70079809D01*
X146987380Y-70079809D01*
X147035761Y-70055619D01*
X147059952Y-70031428D01*
X147084142Y-69983047D01*
X147084142Y-69886285D01*
X147059952Y-69837904D01*
X147035761Y-69813714D01*
X146987380Y-69789523D01*
X151654933Y-70079809D02*
X151485600Y-69837904D01*
X151364647Y-70079809D02*
X151364647Y-69571809D01*
X151558171Y-69571809D01*
X151606552Y-69596000D01*
X151630742Y-69620190D01*
X151654933Y-69668571D01*
X151654933Y-69741142D01*
X151630742Y-69789523D01*
X151606552Y-69813714D01*
X151558171Y-69837904D01*
X151364647Y-69837904D01*
X151824266Y-69571809D02*
X152162933Y-69571809D01*
X151945219Y-70079809D01*
X155160133Y-95733809D02*
X154990800Y-95491904D01*
X154869847Y-95733809D02*
X154869847Y-95225809D01*
X155063371Y-95225809D01*
X155111752Y-95250000D01*
X155135942Y-95274190D01*
X155160133Y-95322571D01*
X155160133Y-95395142D01*
X155135942Y-95443523D01*
X155111752Y-95467714D01*
X155063371Y-95491904D01*
X154869847Y-95491904D01*
X155595561Y-95395142D02*
X155595561Y-95733809D01*
X155474609Y-95201619D02*
X155353657Y-95564476D01*
X155668133Y-95564476D01*
X157446133Y-95733809D02*
X157276800Y-95491904D01*
X157155847Y-95733809D02*
X157155847Y-95225809D01*
X157349371Y-95225809D01*
X157397752Y-95250000D01*
X157421942Y-95274190D01*
X157446133Y-95322571D01*
X157446133Y-95395142D01*
X157421942Y-95443523D01*
X157397752Y-95467714D01*
X157349371Y-95491904D01*
X157155847Y-95491904D01*
X157615466Y-95225809D02*
X157929942Y-95225809D01*
X157760609Y-95419333D01*
X157833180Y-95419333D01*
X157881561Y-95443523D01*
X157905752Y-95467714D01*
X157929942Y-95516095D01*
X157929942Y-95637047D01*
X157905752Y-95685428D01*
X157881561Y-95709619D01*
X157833180Y-95733809D01*
X157688038Y-95733809D01*
X157639657Y-95709619D01*
X157615466Y-95685428D01*
X158719228Y-83747428D02*
X158695038Y-83771619D01*
X158622466Y-83795809D01*
X158574085Y-83795809D01*
X158501514Y-83771619D01*
X158453133Y-83723238D01*
X158428942Y-83674857D01*
X158404752Y-83578095D01*
X158404752Y-83505523D01*
X158428942Y-83408761D01*
X158453133Y-83360380D01*
X158501514Y-83312000D01*
X158574085Y-83287809D01*
X158622466Y-83287809D01*
X158695038Y-83312000D01*
X158719228Y-83336190D01*
X159203038Y-83795809D02*
X158912752Y-83795809D01*
X159057895Y-83795809D02*
X159057895Y-83287809D01*
X159009514Y-83360380D01*
X158961133Y-83408761D01*
X158912752Y-83432952D01*
X159662657Y-83287809D02*
X159420752Y-83287809D01*
X159396561Y-83529714D01*
X159420752Y-83505523D01*
X159469133Y-83481333D01*
X159590085Y-83481333D01*
X159638466Y-83505523D01*
X159662657Y-83529714D01*
X159686847Y-83578095D01*
X159686847Y-83699047D01*
X159662657Y-83747428D01*
X159638466Y-83771619D01*
X159590085Y-83795809D01*
X159469133Y-83795809D01*
X159420752Y-83771619D01*
X159396561Y-83747428D01*
X158719228Y-82858428D02*
X158695038Y-82882619D01*
X158622466Y-82906809D01*
X158574085Y-82906809D01*
X158501514Y-82882619D01*
X158453133Y-82834238D01*
X158428942Y-82785857D01*
X158404752Y-82689095D01*
X158404752Y-82616523D01*
X158428942Y-82519761D01*
X158453133Y-82471380D01*
X158501514Y-82423000D01*
X158574085Y-82398809D01*
X158622466Y-82398809D01*
X158695038Y-82423000D01*
X158719228Y-82447190D01*
X159203038Y-82906809D02*
X158912752Y-82906809D01*
X159057895Y-82906809D02*
X159057895Y-82398809D01*
X159009514Y-82471380D01*
X158961133Y-82519761D01*
X158912752Y-82543952D01*
X159638466Y-82568142D02*
X159638466Y-82906809D01*
X159517514Y-82374619D02*
X159396561Y-82737476D01*
X159711038Y-82737476D01*
X148873028Y-70024028D02*
X148848838Y-70048219D01*
X148776266Y-70072409D01*
X148727885Y-70072409D01*
X148655314Y-70048219D01*
X148606933Y-69999838D01*
X148582742Y-69951457D01*
X148558552Y-69854695D01*
X148558552Y-69782123D01*
X148582742Y-69685361D01*
X148606933Y-69636980D01*
X148655314Y-69588600D01*
X148727885Y-69564409D01*
X148776266Y-69564409D01*
X148848838Y-69588600D01*
X148873028Y-69612790D01*
X149356838Y-70072409D02*
X149066552Y-70072409D01*
X149211695Y-70072409D02*
X149211695Y-69564409D01*
X149163314Y-69636980D01*
X149114933Y-69685361D01*
X149066552Y-69709552D01*
X149526171Y-69564409D02*
X149840647Y-69564409D01*
X149671314Y-69757933D01*
X149743885Y-69757933D01*
X149792266Y-69782123D01*
X149816457Y-69806314D01*
X149840647Y-69854695D01*
X149840647Y-69975647D01*
X149816457Y-70024028D01*
X149792266Y-70048219D01*
X149743885Y-70072409D01*
X149598742Y-70072409D01*
X149550361Y-70048219D01*
X149526171Y-70024028D01*
X152315333Y-95685428D02*
X152291142Y-95709619D01*
X152218571Y-95733809D01*
X152170190Y-95733809D01*
X152097619Y-95709619D01*
X152049238Y-95661238D01*
X152025047Y-95612857D01*
X152000857Y-95516095D01*
X152000857Y-95443523D01*
X152025047Y-95346761D01*
X152049238Y-95298380D01*
X152097619Y-95250000D01*
X152170190Y-95225809D01*
X152218571Y-95225809D01*
X152291142Y-95250000D01*
X152315333Y-95274190D01*
X152557238Y-95733809D02*
X152654000Y-95733809D01*
X152702380Y-95709619D01*
X152726571Y-95685428D01*
X152774952Y-95612857D01*
X152799142Y-95516095D01*
X152799142Y-95322571D01*
X152774952Y-95274190D01*
X152750761Y-95250000D01*
X152702380Y-95225809D01*
X152605619Y-95225809D01*
X152557238Y-95250000D01*
X152533047Y-95274190D01*
X152508857Y-95322571D01*
X152508857Y-95443523D01*
X152533047Y-95491904D01*
X152557238Y-95516095D01*
X152605619Y-95540285D01*
X152702380Y-95540285D01*
X152750761Y-95516095D01*
X152774952Y-95491904D01*
X152799142Y-95443523D01*
X148124333Y-95685428D02*
X148100142Y-95709619D01*
X148027571Y-95733809D01*
X147979190Y-95733809D01*
X147906619Y-95709619D01*
X147858238Y-95661238D01*
X147834047Y-95612857D01*
X147809857Y-95516095D01*
X147809857Y-95443523D01*
X147834047Y-95346761D01*
X147858238Y-95298380D01*
X147906619Y-95250000D01*
X147979190Y-95225809D01*
X148027571Y-95225809D01*
X148100142Y-95250000D01*
X148124333Y-95274190D01*
X148559761Y-95225809D02*
X148463000Y-95225809D01*
X148414619Y-95250000D01*
X148390428Y-95274190D01*
X148342047Y-95346761D01*
X148317857Y-95443523D01*
X148317857Y-95637047D01*
X148342047Y-95685428D01*
X148366238Y-95709619D01*
X148414619Y-95733809D01*
X148511380Y-95733809D01*
X148559761Y-95709619D01*
X148583952Y-95685428D01*
X148608142Y-95637047D01*
X148608142Y-95516095D01*
X148583952Y-95467714D01*
X148559761Y-95443523D01*
X148511380Y-95419333D01*
X148414619Y-95419333D01*
X148366238Y-95443523D01*
X148342047Y-95467714D01*
X148317857Y-95516095D01*
X150156333Y-95685428D02*
X150132142Y-95709619D01*
X150059571Y-95733809D01*
X150011190Y-95733809D01*
X149938619Y-95709619D01*
X149890238Y-95661238D01*
X149866047Y-95612857D01*
X149841857Y-95516095D01*
X149841857Y-95443523D01*
X149866047Y-95346761D01*
X149890238Y-95298380D01*
X149938619Y-95250000D01*
X150011190Y-95225809D01*
X150059571Y-95225809D01*
X150132142Y-95250000D01*
X150156333Y-95274190D01*
X150615952Y-95225809D02*
X150374047Y-95225809D01*
X150349857Y-95467714D01*
X150374047Y-95443523D01*
X150422428Y-95419333D01*
X150543380Y-95419333D01*
X150591761Y-95443523D01*
X150615952Y-95467714D01*
X150640142Y-95516095D01*
X150640142Y-95637047D01*
X150615952Y-95685428D01*
X150591761Y-95709619D01*
X150543380Y-95733809D01*
X150422428Y-95733809D01*
X150374047Y-95709619D01*
X150349857Y-95685428D01*
M02*
