G04 #@! TF.GenerationSoftware,KiCad,Pcbnew,(5.1.5)-3*
G04 #@! TF.CreationDate,2019-12-26T08:27:47-08:00*
G04 #@! TF.ProjectId,featherwing_copter,66656174-6865-4727-9769-6e675f636f70,rev?*
G04 #@! TF.SameCoordinates,Original*
G04 #@! TF.FileFunction,Copper,L2,Bot*
G04 #@! TF.FilePolarity,Positive*
%FSLAX46Y46*%
G04 Gerber Fmt 4.6, Leading zero omitted, Abs format (unit mm)*
G04 Created by KiCad (PCBNEW (5.1.5)-3) date 2019-12-26 08:27:47*
%MOMM*%
%LPD*%
G04 APERTURE LIST*
%ADD10R,0.500000X0.250000*%
%ADD11R,0.900000X1.600000*%
%ADD12R,0.250000X0.500000*%
%ADD13R,1.600000X0.900000*%
%ADD14C,0.100000*%
%ADD15O,1.700000X1.700000*%
%ADD16R,1.700000X1.700000*%
%ADD17C,0.800000*%
%ADD18C,0.762000*%
%ADD19C,0.381000*%
%ADD20C,0.254000*%
%ADD21C,0.127000*%
G04 APERTURE END LIST*
D10*
X135570000Y-91190000D03*
X135570000Y-90690000D03*
X133670000Y-90690000D03*
X133670000Y-91690000D03*
X133670000Y-92190000D03*
D11*
X134620000Y-91440000D03*
D10*
X135570000Y-92190000D03*
X135570000Y-91690000D03*
X133670000Y-91190000D03*
D12*
X167585000Y-91975000D03*
X167085000Y-91975000D03*
X167085000Y-93875000D03*
X168085000Y-93875000D03*
X168585000Y-93875000D03*
D13*
X167835000Y-92925000D03*
D12*
X168585000Y-91975000D03*
X168085000Y-91975000D03*
X167585000Y-93875000D03*
D10*
X168429000Y-65782000D03*
X168429000Y-66282000D03*
X170329000Y-66282000D03*
X170329000Y-65282000D03*
X170329000Y-64782000D03*
D11*
X169379000Y-65532000D03*
D10*
X168429000Y-64782000D03*
X168429000Y-65282000D03*
X170329000Y-65782000D03*
D12*
X137283000Y-66228000D03*
X137783000Y-66228000D03*
X137783000Y-64328000D03*
X136783000Y-64328000D03*
X136283000Y-64328000D03*
D13*
X137033000Y-65278000D03*
D12*
X136283000Y-66228000D03*
X136783000Y-66228000D03*
X137283000Y-64328000D03*
G04 #@! TA.AperFunction,SMDPad,CuDef*
D14*
G36*
X139920505Y-94422204D02*
G01*
X139944773Y-94425804D01*
X139968572Y-94431765D01*
X139991671Y-94440030D01*
X140013850Y-94450520D01*
X140034893Y-94463132D01*
X140054599Y-94477747D01*
X140072777Y-94494223D01*
X140089253Y-94512401D01*
X140103868Y-94532107D01*
X140116480Y-94553150D01*
X140126970Y-94575329D01*
X140135235Y-94598428D01*
X140141196Y-94622227D01*
X140144796Y-94646495D01*
X140146000Y-94670999D01*
X140146000Y-95321001D01*
X140144796Y-95345505D01*
X140141196Y-95369773D01*
X140135235Y-95393572D01*
X140126970Y-95416671D01*
X140116480Y-95438850D01*
X140103868Y-95459893D01*
X140089253Y-95479599D01*
X140072777Y-95497777D01*
X140054599Y-95514253D01*
X140034893Y-95528868D01*
X140013850Y-95541480D01*
X139991671Y-95551970D01*
X139968572Y-95560235D01*
X139944773Y-95566196D01*
X139920505Y-95569796D01*
X139896001Y-95571000D01*
X138995999Y-95571000D01*
X138971495Y-95569796D01*
X138947227Y-95566196D01*
X138923428Y-95560235D01*
X138900329Y-95551970D01*
X138878150Y-95541480D01*
X138857107Y-95528868D01*
X138837401Y-95514253D01*
X138819223Y-95497777D01*
X138802747Y-95479599D01*
X138788132Y-95459893D01*
X138775520Y-95438850D01*
X138765030Y-95416671D01*
X138756765Y-95393572D01*
X138750804Y-95369773D01*
X138747204Y-95345505D01*
X138746000Y-95321001D01*
X138746000Y-94670999D01*
X138747204Y-94646495D01*
X138750804Y-94622227D01*
X138756765Y-94598428D01*
X138765030Y-94575329D01*
X138775520Y-94553150D01*
X138788132Y-94532107D01*
X138802747Y-94512401D01*
X138819223Y-94494223D01*
X138837401Y-94477747D01*
X138857107Y-94463132D01*
X138878150Y-94450520D01*
X138900329Y-94440030D01*
X138923428Y-94431765D01*
X138947227Y-94425804D01*
X138971495Y-94422204D01*
X138995999Y-94421000D01*
X139896001Y-94421000D01*
X139920505Y-94422204D01*
G37*
G04 #@! TD.AperFunction*
G04 #@! TA.AperFunction,SMDPad,CuDef*
G36*
X139920505Y-92372204D02*
G01*
X139944773Y-92375804D01*
X139968572Y-92381765D01*
X139991671Y-92390030D01*
X140013850Y-92400520D01*
X140034893Y-92413132D01*
X140054599Y-92427747D01*
X140072777Y-92444223D01*
X140089253Y-92462401D01*
X140103868Y-92482107D01*
X140116480Y-92503150D01*
X140126970Y-92525329D01*
X140135235Y-92548428D01*
X140141196Y-92572227D01*
X140144796Y-92596495D01*
X140146000Y-92620999D01*
X140146000Y-93271001D01*
X140144796Y-93295505D01*
X140141196Y-93319773D01*
X140135235Y-93343572D01*
X140126970Y-93366671D01*
X140116480Y-93388850D01*
X140103868Y-93409893D01*
X140089253Y-93429599D01*
X140072777Y-93447777D01*
X140054599Y-93464253D01*
X140034893Y-93478868D01*
X140013850Y-93491480D01*
X139991671Y-93501970D01*
X139968572Y-93510235D01*
X139944773Y-93516196D01*
X139920505Y-93519796D01*
X139896001Y-93521000D01*
X138995999Y-93521000D01*
X138971495Y-93519796D01*
X138947227Y-93516196D01*
X138923428Y-93510235D01*
X138900329Y-93501970D01*
X138878150Y-93491480D01*
X138857107Y-93478868D01*
X138837401Y-93464253D01*
X138819223Y-93447777D01*
X138802747Y-93429599D01*
X138788132Y-93409893D01*
X138775520Y-93388850D01*
X138765030Y-93366671D01*
X138756765Y-93343572D01*
X138750804Y-93319773D01*
X138747204Y-93295505D01*
X138746000Y-93271001D01*
X138746000Y-92620999D01*
X138747204Y-92596495D01*
X138750804Y-92572227D01*
X138756765Y-92548428D01*
X138765030Y-92525329D01*
X138775520Y-92503150D01*
X138788132Y-92482107D01*
X138802747Y-92462401D01*
X138819223Y-92444223D01*
X138837401Y-92427747D01*
X138857107Y-92413132D01*
X138878150Y-92400520D01*
X138900329Y-92390030D01*
X138923428Y-92381765D01*
X138947227Y-92375804D01*
X138971495Y-92372204D01*
X138995999Y-92371000D01*
X139896001Y-92371000D01*
X139920505Y-92372204D01*
G37*
G04 #@! TD.AperFunction*
G04 #@! TA.AperFunction,SMDPad,CuDef*
G36*
X171944505Y-87439204D02*
G01*
X171968773Y-87442804D01*
X171992572Y-87448765D01*
X172015671Y-87457030D01*
X172037850Y-87467520D01*
X172058893Y-87480132D01*
X172078599Y-87494747D01*
X172096777Y-87511223D01*
X172113253Y-87529401D01*
X172127868Y-87549107D01*
X172140480Y-87570150D01*
X172150970Y-87592329D01*
X172159235Y-87615428D01*
X172165196Y-87639227D01*
X172168796Y-87663495D01*
X172170000Y-87687999D01*
X172170000Y-88588001D01*
X172168796Y-88612505D01*
X172165196Y-88636773D01*
X172159235Y-88660572D01*
X172150970Y-88683671D01*
X172140480Y-88705850D01*
X172127868Y-88726893D01*
X172113253Y-88746599D01*
X172096777Y-88764777D01*
X172078599Y-88781253D01*
X172058893Y-88795868D01*
X172037850Y-88808480D01*
X172015671Y-88818970D01*
X171992572Y-88827235D01*
X171968773Y-88833196D01*
X171944505Y-88836796D01*
X171920001Y-88838000D01*
X171269999Y-88838000D01*
X171245495Y-88836796D01*
X171221227Y-88833196D01*
X171197428Y-88827235D01*
X171174329Y-88818970D01*
X171152150Y-88808480D01*
X171131107Y-88795868D01*
X171111401Y-88781253D01*
X171093223Y-88764777D01*
X171076747Y-88746599D01*
X171062132Y-88726893D01*
X171049520Y-88705850D01*
X171039030Y-88683671D01*
X171030765Y-88660572D01*
X171024804Y-88636773D01*
X171021204Y-88612505D01*
X171020000Y-88588001D01*
X171020000Y-87687999D01*
X171021204Y-87663495D01*
X171024804Y-87639227D01*
X171030765Y-87615428D01*
X171039030Y-87592329D01*
X171049520Y-87570150D01*
X171062132Y-87549107D01*
X171076747Y-87529401D01*
X171093223Y-87511223D01*
X171111401Y-87494747D01*
X171131107Y-87480132D01*
X171152150Y-87467520D01*
X171174329Y-87457030D01*
X171197428Y-87448765D01*
X171221227Y-87442804D01*
X171245495Y-87439204D01*
X171269999Y-87438000D01*
X171920001Y-87438000D01*
X171944505Y-87439204D01*
G37*
G04 #@! TD.AperFunction*
G04 #@! TA.AperFunction,SMDPad,CuDef*
G36*
X169894505Y-87439204D02*
G01*
X169918773Y-87442804D01*
X169942572Y-87448765D01*
X169965671Y-87457030D01*
X169987850Y-87467520D01*
X170008893Y-87480132D01*
X170028599Y-87494747D01*
X170046777Y-87511223D01*
X170063253Y-87529401D01*
X170077868Y-87549107D01*
X170090480Y-87570150D01*
X170100970Y-87592329D01*
X170109235Y-87615428D01*
X170115196Y-87639227D01*
X170118796Y-87663495D01*
X170120000Y-87687999D01*
X170120000Y-88588001D01*
X170118796Y-88612505D01*
X170115196Y-88636773D01*
X170109235Y-88660572D01*
X170100970Y-88683671D01*
X170090480Y-88705850D01*
X170077868Y-88726893D01*
X170063253Y-88746599D01*
X170046777Y-88764777D01*
X170028599Y-88781253D01*
X170008893Y-88795868D01*
X169987850Y-88808480D01*
X169965671Y-88818970D01*
X169942572Y-88827235D01*
X169918773Y-88833196D01*
X169894505Y-88836796D01*
X169870001Y-88838000D01*
X169219999Y-88838000D01*
X169195495Y-88836796D01*
X169171227Y-88833196D01*
X169147428Y-88827235D01*
X169124329Y-88818970D01*
X169102150Y-88808480D01*
X169081107Y-88795868D01*
X169061401Y-88781253D01*
X169043223Y-88764777D01*
X169026747Y-88746599D01*
X169012132Y-88726893D01*
X168999520Y-88705850D01*
X168989030Y-88683671D01*
X168980765Y-88660572D01*
X168974804Y-88636773D01*
X168971204Y-88612505D01*
X168970000Y-88588001D01*
X168970000Y-87687999D01*
X168971204Y-87663495D01*
X168974804Y-87639227D01*
X168980765Y-87615428D01*
X168989030Y-87592329D01*
X168999520Y-87570150D01*
X169012132Y-87549107D01*
X169026747Y-87529401D01*
X169043223Y-87511223D01*
X169061401Y-87494747D01*
X169081107Y-87480132D01*
X169102150Y-87467520D01*
X169124329Y-87457030D01*
X169147428Y-87448765D01*
X169171227Y-87442804D01*
X169195495Y-87439204D01*
X169219999Y-87438000D01*
X169870001Y-87438000D01*
X169894505Y-87439204D01*
G37*
G04 #@! TD.AperFunction*
G04 #@! TA.AperFunction,SMDPad,CuDef*
G36*
X164812505Y-61021204D02*
G01*
X164836773Y-61024804D01*
X164860572Y-61030765D01*
X164883671Y-61039030D01*
X164905850Y-61049520D01*
X164926893Y-61062132D01*
X164946599Y-61076747D01*
X164964777Y-61093223D01*
X164981253Y-61111401D01*
X164995868Y-61131107D01*
X165008480Y-61152150D01*
X165018970Y-61174329D01*
X165027235Y-61197428D01*
X165033196Y-61221227D01*
X165036796Y-61245495D01*
X165038000Y-61269999D01*
X165038000Y-61920001D01*
X165036796Y-61944505D01*
X165033196Y-61968773D01*
X165027235Y-61992572D01*
X165018970Y-62015671D01*
X165008480Y-62037850D01*
X164995868Y-62058893D01*
X164981253Y-62078599D01*
X164964777Y-62096777D01*
X164946599Y-62113253D01*
X164926893Y-62127868D01*
X164905850Y-62140480D01*
X164883671Y-62150970D01*
X164860572Y-62159235D01*
X164836773Y-62165196D01*
X164812505Y-62168796D01*
X164788001Y-62170000D01*
X163887999Y-62170000D01*
X163863495Y-62168796D01*
X163839227Y-62165196D01*
X163815428Y-62159235D01*
X163792329Y-62150970D01*
X163770150Y-62140480D01*
X163749107Y-62127868D01*
X163729401Y-62113253D01*
X163711223Y-62096777D01*
X163694747Y-62078599D01*
X163680132Y-62058893D01*
X163667520Y-62037850D01*
X163657030Y-62015671D01*
X163648765Y-61992572D01*
X163642804Y-61968773D01*
X163639204Y-61944505D01*
X163638000Y-61920001D01*
X163638000Y-61269999D01*
X163639204Y-61245495D01*
X163642804Y-61221227D01*
X163648765Y-61197428D01*
X163657030Y-61174329D01*
X163667520Y-61152150D01*
X163680132Y-61131107D01*
X163694747Y-61111401D01*
X163711223Y-61093223D01*
X163729401Y-61076747D01*
X163749107Y-61062132D01*
X163770150Y-61049520D01*
X163792329Y-61039030D01*
X163815428Y-61030765D01*
X163839227Y-61024804D01*
X163863495Y-61021204D01*
X163887999Y-61020000D01*
X164788001Y-61020000D01*
X164812505Y-61021204D01*
G37*
G04 #@! TD.AperFunction*
G04 #@! TA.AperFunction,SMDPad,CuDef*
G36*
X164812505Y-63071204D02*
G01*
X164836773Y-63074804D01*
X164860572Y-63080765D01*
X164883671Y-63089030D01*
X164905850Y-63099520D01*
X164926893Y-63112132D01*
X164946599Y-63126747D01*
X164964777Y-63143223D01*
X164981253Y-63161401D01*
X164995868Y-63181107D01*
X165008480Y-63202150D01*
X165018970Y-63224329D01*
X165027235Y-63247428D01*
X165033196Y-63271227D01*
X165036796Y-63295495D01*
X165038000Y-63319999D01*
X165038000Y-63970001D01*
X165036796Y-63994505D01*
X165033196Y-64018773D01*
X165027235Y-64042572D01*
X165018970Y-64065671D01*
X165008480Y-64087850D01*
X164995868Y-64108893D01*
X164981253Y-64128599D01*
X164964777Y-64146777D01*
X164946599Y-64163253D01*
X164926893Y-64177868D01*
X164905850Y-64190480D01*
X164883671Y-64200970D01*
X164860572Y-64209235D01*
X164836773Y-64215196D01*
X164812505Y-64218796D01*
X164788001Y-64220000D01*
X163887999Y-64220000D01*
X163863495Y-64218796D01*
X163839227Y-64215196D01*
X163815428Y-64209235D01*
X163792329Y-64200970D01*
X163770150Y-64190480D01*
X163749107Y-64177868D01*
X163729401Y-64163253D01*
X163711223Y-64146777D01*
X163694747Y-64128599D01*
X163680132Y-64108893D01*
X163667520Y-64087850D01*
X163657030Y-64065671D01*
X163648765Y-64042572D01*
X163642804Y-64018773D01*
X163639204Y-63994505D01*
X163638000Y-63970001D01*
X163638000Y-63319999D01*
X163639204Y-63295495D01*
X163642804Y-63271227D01*
X163648765Y-63247428D01*
X163657030Y-63224329D01*
X163667520Y-63202150D01*
X163680132Y-63181107D01*
X163694747Y-63161401D01*
X163711223Y-63143223D01*
X163729401Y-63126747D01*
X163749107Y-63112132D01*
X163770150Y-63099520D01*
X163792329Y-63089030D01*
X163815428Y-63080765D01*
X163839227Y-63074804D01*
X163863495Y-63071204D01*
X163887999Y-63070000D01*
X164788001Y-63070000D01*
X164812505Y-63071204D01*
G37*
G04 #@! TD.AperFunction*
G04 #@! TA.AperFunction,SMDPad,CuDef*
G36*
X133572505Y-69532204D02*
G01*
X133596773Y-69535804D01*
X133620572Y-69541765D01*
X133643671Y-69550030D01*
X133665850Y-69560520D01*
X133686893Y-69573132D01*
X133706599Y-69587747D01*
X133724777Y-69604223D01*
X133741253Y-69622401D01*
X133755868Y-69642107D01*
X133768480Y-69663150D01*
X133778970Y-69685329D01*
X133787235Y-69708428D01*
X133793196Y-69732227D01*
X133796796Y-69756495D01*
X133798000Y-69780999D01*
X133798000Y-70681001D01*
X133796796Y-70705505D01*
X133793196Y-70729773D01*
X133787235Y-70753572D01*
X133778970Y-70776671D01*
X133768480Y-70798850D01*
X133755868Y-70819893D01*
X133741253Y-70839599D01*
X133724777Y-70857777D01*
X133706599Y-70874253D01*
X133686893Y-70888868D01*
X133665850Y-70901480D01*
X133643671Y-70911970D01*
X133620572Y-70920235D01*
X133596773Y-70926196D01*
X133572505Y-70929796D01*
X133548001Y-70931000D01*
X132897999Y-70931000D01*
X132873495Y-70929796D01*
X132849227Y-70926196D01*
X132825428Y-70920235D01*
X132802329Y-70911970D01*
X132780150Y-70901480D01*
X132759107Y-70888868D01*
X132739401Y-70874253D01*
X132721223Y-70857777D01*
X132704747Y-70839599D01*
X132690132Y-70819893D01*
X132677520Y-70798850D01*
X132667030Y-70776671D01*
X132658765Y-70753572D01*
X132652804Y-70729773D01*
X132649204Y-70705505D01*
X132648000Y-70681001D01*
X132648000Y-69780999D01*
X132649204Y-69756495D01*
X132652804Y-69732227D01*
X132658765Y-69708428D01*
X132667030Y-69685329D01*
X132677520Y-69663150D01*
X132690132Y-69642107D01*
X132704747Y-69622401D01*
X132721223Y-69604223D01*
X132739401Y-69587747D01*
X132759107Y-69573132D01*
X132780150Y-69560520D01*
X132802329Y-69550030D01*
X132825428Y-69541765D01*
X132849227Y-69535804D01*
X132873495Y-69532204D01*
X132897999Y-69531000D01*
X133548001Y-69531000D01*
X133572505Y-69532204D01*
G37*
G04 #@! TD.AperFunction*
G04 #@! TA.AperFunction,SMDPad,CuDef*
G36*
X135622505Y-69532204D02*
G01*
X135646773Y-69535804D01*
X135670572Y-69541765D01*
X135693671Y-69550030D01*
X135715850Y-69560520D01*
X135736893Y-69573132D01*
X135756599Y-69587747D01*
X135774777Y-69604223D01*
X135791253Y-69622401D01*
X135805868Y-69642107D01*
X135818480Y-69663150D01*
X135828970Y-69685329D01*
X135837235Y-69708428D01*
X135843196Y-69732227D01*
X135846796Y-69756495D01*
X135848000Y-69780999D01*
X135848000Y-70681001D01*
X135846796Y-70705505D01*
X135843196Y-70729773D01*
X135837235Y-70753572D01*
X135828970Y-70776671D01*
X135818480Y-70798850D01*
X135805868Y-70819893D01*
X135791253Y-70839599D01*
X135774777Y-70857777D01*
X135756599Y-70874253D01*
X135736893Y-70888868D01*
X135715850Y-70901480D01*
X135693671Y-70911970D01*
X135670572Y-70920235D01*
X135646773Y-70926196D01*
X135622505Y-70929796D01*
X135598001Y-70931000D01*
X134947999Y-70931000D01*
X134923495Y-70929796D01*
X134899227Y-70926196D01*
X134875428Y-70920235D01*
X134852329Y-70911970D01*
X134830150Y-70901480D01*
X134809107Y-70888868D01*
X134789401Y-70874253D01*
X134771223Y-70857777D01*
X134754747Y-70839599D01*
X134740132Y-70819893D01*
X134727520Y-70798850D01*
X134717030Y-70776671D01*
X134708765Y-70753572D01*
X134702804Y-70729773D01*
X134699204Y-70705505D01*
X134698000Y-70681001D01*
X134698000Y-69780999D01*
X134699204Y-69756495D01*
X134702804Y-69732227D01*
X134708765Y-69708428D01*
X134717030Y-69685329D01*
X134727520Y-69663150D01*
X134740132Y-69642107D01*
X134754747Y-69622401D01*
X134771223Y-69604223D01*
X134789401Y-69587747D01*
X134809107Y-69573132D01*
X134830150Y-69560520D01*
X134852329Y-69550030D01*
X134875428Y-69541765D01*
X134899227Y-69535804D01*
X134923495Y-69532204D01*
X134947999Y-69531000D01*
X135598001Y-69531000D01*
X135622505Y-69532204D01*
G37*
G04 #@! TD.AperFunction*
G04 #@! TA.AperFunction,SMDPad,CuDef*
G36*
X128403362Y-100679453D02*
G01*
X128427631Y-100683053D01*
X128451429Y-100689014D01*
X128474529Y-100697279D01*
X128496707Y-100707769D01*
X128517751Y-100720382D01*
X128537456Y-100734996D01*
X128555635Y-100751472D01*
X129032932Y-101228769D01*
X129049408Y-101246948D01*
X129064022Y-101266653D01*
X129076635Y-101287697D01*
X129087125Y-101309875D01*
X129095390Y-101332975D01*
X129101351Y-101356773D01*
X129104951Y-101381042D01*
X129106155Y-101405546D01*
X129104951Y-101430050D01*
X129101351Y-101454319D01*
X129095390Y-101478117D01*
X129087125Y-101501217D01*
X129076635Y-101523395D01*
X129064022Y-101544439D01*
X129049408Y-101564144D01*
X129032932Y-101582323D01*
X126982323Y-103632932D01*
X126964144Y-103649408D01*
X126944439Y-103664022D01*
X126923395Y-103676635D01*
X126901217Y-103687125D01*
X126878117Y-103695390D01*
X126854319Y-103701351D01*
X126830050Y-103704951D01*
X126805546Y-103706155D01*
X126781042Y-103704951D01*
X126756773Y-103701351D01*
X126732975Y-103695390D01*
X126709875Y-103687125D01*
X126687697Y-103676635D01*
X126666653Y-103664022D01*
X126646948Y-103649408D01*
X126628769Y-103632932D01*
X126151472Y-103155635D01*
X126134996Y-103137456D01*
X126120382Y-103117751D01*
X126107769Y-103096707D01*
X126097279Y-103074529D01*
X126089014Y-103051429D01*
X126083053Y-103027631D01*
X126079453Y-103003362D01*
X126078249Y-102978858D01*
X126079453Y-102954354D01*
X126083053Y-102930085D01*
X126089014Y-102906287D01*
X126097279Y-102883187D01*
X126107769Y-102861009D01*
X126120382Y-102839965D01*
X126134996Y-102820260D01*
X126151472Y-102802081D01*
X128202081Y-100751472D01*
X128220260Y-100734996D01*
X128239965Y-100720382D01*
X128261009Y-100707769D01*
X128283187Y-100697279D01*
X128306287Y-100689014D01*
X128330085Y-100683053D01*
X128354354Y-100679453D01*
X128378858Y-100678249D01*
X128403362Y-100679453D01*
G37*
G04 #@! TD.AperFunction*
G04 #@! TA.AperFunction,SMDPad,CuDef*
G36*
X127218958Y-99495049D02*
G01*
X127243227Y-99498649D01*
X127267025Y-99504610D01*
X127290125Y-99512875D01*
X127312303Y-99523365D01*
X127333347Y-99535978D01*
X127353052Y-99550592D01*
X127371231Y-99567068D01*
X127848528Y-100044365D01*
X127865004Y-100062544D01*
X127879618Y-100082249D01*
X127892231Y-100103293D01*
X127902721Y-100125471D01*
X127910986Y-100148571D01*
X127916947Y-100172369D01*
X127920547Y-100196638D01*
X127921751Y-100221142D01*
X127920547Y-100245646D01*
X127916947Y-100269915D01*
X127910986Y-100293713D01*
X127902721Y-100316813D01*
X127892231Y-100338991D01*
X127879618Y-100360035D01*
X127865004Y-100379740D01*
X127848528Y-100397919D01*
X125797919Y-102448528D01*
X125779740Y-102465004D01*
X125760035Y-102479618D01*
X125738991Y-102492231D01*
X125716813Y-102502721D01*
X125693713Y-102510986D01*
X125669915Y-102516947D01*
X125645646Y-102520547D01*
X125621142Y-102521751D01*
X125596638Y-102520547D01*
X125572369Y-102516947D01*
X125548571Y-102510986D01*
X125525471Y-102502721D01*
X125503293Y-102492231D01*
X125482249Y-102479618D01*
X125462544Y-102465004D01*
X125444365Y-102448528D01*
X124967068Y-101971231D01*
X124950592Y-101953052D01*
X124935978Y-101933347D01*
X124923365Y-101912303D01*
X124912875Y-101890125D01*
X124904610Y-101867025D01*
X124898649Y-101843227D01*
X124895049Y-101818958D01*
X124893845Y-101794454D01*
X124895049Y-101769950D01*
X124898649Y-101745681D01*
X124904610Y-101721883D01*
X124912875Y-101698783D01*
X124923365Y-101676605D01*
X124935978Y-101655561D01*
X124950592Y-101635856D01*
X124967068Y-101617677D01*
X127017677Y-99567068D01*
X127035856Y-99550592D01*
X127055561Y-99535978D01*
X127076605Y-99523365D01*
X127098783Y-99512875D01*
X127121883Y-99504610D01*
X127145681Y-99498649D01*
X127169950Y-99495049D01*
X127194454Y-99493845D01*
X127218958Y-99495049D01*
G37*
G04 #@! TD.AperFunction*
G04 #@! TA.AperFunction,SMDPad,CuDef*
G36*
X177630050Y-99495049D02*
G01*
X177654319Y-99498649D01*
X177678117Y-99504610D01*
X177701217Y-99512875D01*
X177723395Y-99523365D01*
X177744439Y-99535978D01*
X177764144Y-99550592D01*
X177782323Y-99567068D01*
X179832932Y-101617677D01*
X179849408Y-101635856D01*
X179864022Y-101655561D01*
X179876635Y-101676605D01*
X179887125Y-101698783D01*
X179895390Y-101721883D01*
X179901351Y-101745681D01*
X179904951Y-101769950D01*
X179906155Y-101794454D01*
X179904951Y-101818958D01*
X179901351Y-101843227D01*
X179895390Y-101867025D01*
X179887125Y-101890125D01*
X179876635Y-101912303D01*
X179864022Y-101933347D01*
X179849408Y-101953052D01*
X179832932Y-101971231D01*
X179355635Y-102448528D01*
X179337456Y-102465004D01*
X179317751Y-102479618D01*
X179296707Y-102492231D01*
X179274529Y-102502721D01*
X179251429Y-102510986D01*
X179227631Y-102516947D01*
X179203362Y-102520547D01*
X179178858Y-102521751D01*
X179154354Y-102520547D01*
X179130085Y-102516947D01*
X179106287Y-102510986D01*
X179083187Y-102502721D01*
X179061009Y-102492231D01*
X179039965Y-102479618D01*
X179020260Y-102465004D01*
X179002081Y-102448528D01*
X176951472Y-100397919D01*
X176934996Y-100379740D01*
X176920382Y-100360035D01*
X176907769Y-100338991D01*
X176897279Y-100316813D01*
X176889014Y-100293713D01*
X176883053Y-100269915D01*
X176879453Y-100245646D01*
X176878249Y-100221142D01*
X176879453Y-100196638D01*
X176883053Y-100172369D01*
X176889014Y-100148571D01*
X176897279Y-100125471D01*
X176907769Y-100103293D01*
X176920382Y-100082249D01*
X176934996Y-100062544D01*
X176951472Y-100044365D01*
X177428769Y-99567068D01*
X177446948Y-99550592D01*
X177466653Y-99535978D01*
X177487697Y-99523365D01*
X177509875Y-99512875D01*
X177532975Y-99504610D01*
X177556773Y-99498649D01*
X177581042Y-99495049D01*
X177605546Y-99493845D01*
X177630050Y-99495049D01*
G37*
G04 #@! TD.AperFunction*
G04 #@! TA.AperFunction,SMDPad,CuDef*
G36*
X176445646Y-100679453D02*
G01*
X176469915Y-100683053D01*
X176493713Y-100689014D01*
X176516813Y-100697279D01*
X176538991Y-100707769D01*
X176560035Y-100720382D01*
X176579740Y-100734996D01*
X176597919Y-100751472D01*
X178648528Y-102802081D01*
X178665004Y-102820260D01*
X178679618Y-102839965D01*
X178692231Y-102861009D01*
X178702721Y-102883187D01*
X178710986Y-102906287D01*
X178716947Y-102930085D01*
X178720547Y-102954354D01*
X178721751Y-102978858D01*
X178720547Y-103003362D01*
X178716947Y-103027631D01*
X178710986Y-103051429D01*
X178702721Y-103074529D01*
X178692231Y-103096707D01*
X178679618Y-103117751D01*
X178665004Y-103137456D01*
X178648528Y-103155635D01*
X178171231Y-103632932D01*
X178153052Y-103649408D01*
X178133347Y-103664022D01*
X178112303Y-103676635D01*
X178090125Y-103687125D01*
X178067025Y-103695390D01*
X178043227Y-103701351D01*
X178018958Y-103704951D01*
X177994454Y-103706155D01*
X177969950Y-103704951D01*
X177945681Y-103701351D01*
X177921883Y-103695390D01*
X177898783Y-103687125D01*
X177876605Y-103676635D01*
X177855561Y-103664022D01*
X177835856Y-103649408D01*
X177817677Y-103632932D01*
X175767068Y-101582323D01*
X175750592Y-101564144D01*
X175735978Y-101544439D01*
X175723365Y-101523395D01*
X175712875Y-101501217D01*
X175704610Y-101478117D01*
X175698649Y-101454319D01*
X175695049Y-101430050D01*
X175693845Y-101405546D01*
X175695049Y-101381042D01*
X175698649Y-101356773D01*
X175704610Y-101332975D01*
X175712875Y-101309875D01*
X175723365Y-101287697D01*
X175735978Y-101266653D01*
X175750592Y-101246948D01*
X175767068Y-101228769D01*
X176244365Y-100751472D01*
X176262544Y-100734996D01*
X176282249Y-100720382D01*
X176303293Y-100707769D01*
X176325471Y-100697279D01*
X176348571Y-100689014D01*
X176372369Y-100683053D01*
X176396638Y-100679453D01*
X176421142Y-100678249D01*
X176445646Y-100679453D01*
G37*
G04 #@! TD.AperFunction*
G04 #@! TA.AperFunction,SMDPad,CuDef*
G36*
X178653958Y-48060049D02*
G01*
X178678227Y-48063649D01*
X178702025Y-48069610D01*
X178725125Y-48077875D01*
X178747303Y-48088365D01*
X178768347Y-48100978D01*
X178788052Y-48115592D01*
X178806231Y-48132068D01*
X179283528Y-48609365D01*
X179300004Y-48627544D01*
X179314618Y-48647249D01*
X179327231Y-48668293D01*
X179337721Y-48690471D01*
X179345986Y-48713571D01*
X179351947Y-48737369D01*
X179355547Y-48761638D01*
X179356751Y-48786142D01*
X179355547Y-48810646D01*
X179351947Y-48834915D01*
X179345986Y-48858713D01*
X179337721Y-48881813D01*
X179327231Y-48903991D01*
X179314618Y-48925035D01*
X179300004Y-48944740D01*
X179283528Y-48962919D01*
X177232919Y-51013528D01*
X177214740Y-51030004D01*
X177195035Y-51044618D01*
X177173991Y-51057231D01*
X177151813Y-51067721D01*
X177128713Y-51075986D01*
X177104915Y-51081947D01*
X177080646Y-51085547D01*
X177056142Y-51086751D01*
X177031638Y-51085547D01*
X177007369Y-51081947D01*
X176983571Y-51075986D01*
X176960471Y-51067721D01*
X176938293Y-51057231D01*
X176917249Y-51044618D01*
X176897544Y-51030004D01*
X176879365Y-51013528D01*
X176402068Y-50536231D01*
X176385592Y-50518052D01*
X176370978Y-50498347D01*
X176358365Y-50477303D01*
X176347875Y-50455125D01*
X176339610Y-50432025D01*
X176333649Y-50408227D01*
X176330049Y-50383958D01*
X176328845Y-50359454D01*
X176330049Y-50334950D01*
X176333649Y-50310681D01*
X176339610Y-50286883D01*
X176347875Y-50263783D01*
X176358365Y-50241605D01*
X176370978Y-50220561D01*
X176385592Y-50200856D01*
X176402068Y-50182677D01*
X178452677Y-48132068D01*
X178470856Y-48115592D01*
X178490561Y-48100978D01*
X178511605Y-48088365D01*
X178533783Y-48077875D01*
X178556883Y-48069610D01*
X178580681Y-48063649D01*
X178604950Y-48060049D01*
X178629454Y-48058845D01*
X178653958Y-48060049D01*
G37*
G04 #@! TD.AperFunction*
G04 #@! TA.AperFunction,SMDPad,CuDef*
G36*
X179838362Y-49244453D02*
G01*
X179862631Y-49248053D01*
X179886429Y-49254014D01*
X179909529Y-49262279D01*
X179931707Y-49272769D01*
X179952751Y-49285382D01*
X179972456Y-49299996D01*
X179990635Y-49316472D01*
X180467932Y-49793769D01*
X180484408Y-49811948D01*
X180499022Y-49831653D01*
X180511635Y-49852697D01*
X180522125Y-49874875D01*
X180530390Y-49897975D01*
X180536351Y-49921773D01*
X180539951Y-49946042D01*
X180541155Y-49970546D01*
X180539951Y-49995050D01*
X180536351Y-50019319D01*
X180530390Y-50043117D01*
X180522125Y-50066217D01*
X180511635Y-50088395D01*
X180499022Y-50109439D01*
X180484408Y-50129144D01*
X180467932Y-50147323D01*
X178417323Y-52197932D01*
X178399144Y-52214408D01*
X178379439Y-52229022D01*
X178358395Y-52241635D01*
X178336217Y-52252125D01*
X178313117Y-52260390D01*
X178289319Y-52266351D01*
X178265050Y-52269951D01*
X178240546Y-52271155D01*
X178216042Y-52269951D01*
X178191773Y-52266351D01*
X178167975Y-52260390D01*
X178144875Y-52252125D01*
X178122697Y-52241635D01*
X178101653Y-52229022D01*
X178081948Y-52214408D01*
X178063769Y-52197932D01*
X177586472Y-51720635D01*
X177569996Y-51702456D01*
X177555382Y-51682751D01*
X177542769Y-51661707D01*
X177532279Y-51639529D01*
X177524014Y-51616429D01*
X177518053Y-51592631D01*
X177514453Y-51568362D01*
X177513249Y-51543858D01*
X177514453Y-51519354D01*
X177518053Y-51495085D01*
X177524014Y-51471287D01*
X177532279Y-51448187D01*
X177542769Y-51426009D01*
X177555382Y-51404965D01*
X177569996Y-51385260D01*
X177586472Y-51367081D01*
X179637081Y-49316472D01*
X179655260Y-49299996D01*
X179674965Y-49285382D01*
X179696009Y-49272769D01*
X179718187Y-49262279D01*
X179741287Y-49254014D01*
X179765085Y-49248053D01*
X179789354Y-49244453D01*
X179813858Y-49243249D01*
X179838362Y-49244453D01*
G37*
G04 #@! TD.AperFunction*
G04 #@! TA.AperFunction,SMDPad,CuDef*
G36*
X125645646Y-49879453D02*
G01*
X125669915Y-49883053D01*
X125693713Y-49889014D01*
X125716813Y-49897279D01*
X125738991Y-49907769D01*
X125760035Y-49920382D01*
X125779740Y-49934996D01*
X125797919Y-49951472D01*
X127848528Y-52002081D01*
X127865004Y-52020260D01*
X127879618Y-52039965D01*
X127892231Y-52061009D01*
X127902721Y-52083187D01*
X127910986Y-52106287D01*
X127916947Y-52130085D01*
X127920547Y-52154354D01*
X127921751Y-52178858D01*
X127920547Y-52203362D01*
X127916947Y-52227631D01*
X127910986Y-52251429D01*
X127902721Y-52274529D01*
X127892231Y-52296707D01*
X127879618Y-52317751D01*
X127865004Y-52337456D01*
X127848528Y-52355635D01*
X127371231Y-52832932D01*
X127353052Y-52849408D01*
X127333347Y-52864022D01*
X127312303Y-52876635D01*
X127290125Y-52887125D01*
X127267025Y-52895390D01*
X127243227Y-52901351D01*
X127218958Y-52904951D01*
X127194454Y-52906155D01*
X127169950Y-52904951D01*
X127145681Y-52901351D01*
X127121883Y-52895390D01*
X127098783Y-52887125D01*
X127076605Y-52876635D01*
X127055561Y-52864022D01*
X127035856Y-52849408D01*
X127017677Y-52832932D01*
X124967068Y-50782323D01*
X124950592Y-50764144D01*
X124935978Y-50744439D01*
X124923365Y-50723395D01*
X124912875Y-50701217D01*
X124904610Y-50678117D01*
X124898649Y-50654319D01*
X124895049Y-50630050D01*
X124893845Y-50605546D01*
X124895049Y-50581042D01*
X124898649Y-50556773D01*
X124904610Y-50532975D01*
X124912875Y-50509875D01*
X124923365Y-50487697D01*
X124935978Y-50466653D01*
X124950592Y-50446948D01*
X124967068Y-50428769D01*
X125444365Y-49951472D01*
X125462544Y-49934996D01*
X125482249Y-49920382D01*
X125503293Y-49907769D01*
X125525471Y-49897279D01*
X125548571Y-49889014D01*
X125572369Y-49883053D01*
X125596638Y-49879453D01*
X125621142Y-49878249D01*
X125645646Y-49879453D01*
G37*
G04 #@! TD.AperFunction*
G04 #@! TA.AperFunction,SMDPad,CuDef*
G36*
X126830050Y-48695049D02*
G01*
X126854319Y-48698649D01*
X126878117Y-48704610D01*
X126901217Y-48712875D01*
X126923395Y-48723365D01*
X126944439Y-48735978D01*
X126964144Y-48750592D01*
X126982323Y-48767068D01*
X129032932Y-50817677D01*
X129049408Y-50835856D01*
X129064022Y-50855561D01*
X129076635Y-50876605D01*
X129087125Y-50898783D01*
X129095390Y-50921883D01*
X129101351Y-50945681D01*
X129104951Y-50969950D01*
X129106155Y-50994454D01*
X129104951Y-51018958D01*
X129101351Y-51043227D01*
X129095390Y-51067025D01*
X129087125Y-51090125D01*
X129076635Y-51112303D01*
X129064022Y-51133347D01*
X129049408Y-51153052D01*
X129032932Y-51171231D01*
X128555635Y-51648528D01*
X128537456Y-51665004D01*
X128517751Y-51679618D01*
X128496707Y-51692231D01*
X128474529Y-51702721D01*
X128451429Y-51710986D01*
X128427631Y-51716947D01*
X128403362Y-51720547D01*
X128378858Y-51721751D01*
X128354354Y-51720547D01*
X128330085Y-51716947D01*
X128306287Y-51710986D01*
X128283187Y-51702721D01*
X128261009Y-51692231D01*
X128239965Y-51679618D01*
X128220260Y-51665004D01*
X128202081Y-51648528D01*
X126151472Y-49597919D01*
X126134996Y-49579740D01*
X126120382Y-49560035D01*
X126107769Y-49538991D01*
X126097279Y-49516813D01*
X126089014Y-49493713D01*
X126083053Y-49469915D01*
X126079453Y-49445646D01*
X126078249Y-49421142D01*
X126079453Y-49396638D01*
X126083053Y-49372369D01*
X126089014Y-49348571D01*
X126097279Y-49325471D01*
X126107769Y-49303293D01*
X126120382Y-49282249D01*
X126134996Y-49262544D01*
X126151472Y-49244365D01*
X126628769Y-48767068D01*
X126646948Y-48750592D01*
X126666653Y-48735978D01*
X126687697Y-48723365D01*
X126709875Y-48712875D01*
X126732975Y-48704610D01*
X126756773Y-48698649D01*
X126781042Y-48695049D01*
X126805546Y-48693845D01*
X126830050Y-48695049D01*
G37*
G04 #@! TD.AperFunction*
G04 #@! TA.AperFunction,SMDPad,CuDef*
G36*
X137781505Y-94551204D02*
G01*
X137805773Y-94554804D01*
X137829572Y-94560765D01*
X137852671Y-94569030D01*
X137874850Y-94579520D01*
X137895893Y-94592132D01*
X137915599Y-94606747D01*
X137933777Y-94623223D01*
X137950253Y-94641401D01*
X137964868Y-94661107D01*
X137977480Y-94682150D01*
X137987970Y-94704329D01*
X137996235Y-94727428D01*
X138002196Y-94751227D01*
X138005796Y-94775495D01*
X138007000Y-94799999D01*
X138007000Y-95700001D01*
X138005796Y-95724505D01*
X138002196Y-95748773D01*
X137996235Y-95772572D01*
X137987970Y-95795671D01*
X137977480Y-95817850D01*
X137964868Y-95838893D01*
X137950253Y-95858599D01*
X137933777Y-95876777D01*
X137915599Y-95893253D01*
X137895893Y-95907868D01*
X137874850Y-95920480D01*
X137852671Y-95930970D01*
X137829572Y-95939235D01*
X137805773Y-95945196D01*
X137781505Y-95948796D01*
X137757001Y-95950000D01*
X137106999Y-95950000D01*
X137082495Y-95948796D01*
X137058227Y-95945196D01*
X137034428Y-95939235D01*
X137011329Y-95930970D01*
X136989150Y-95920480D01*
X136968107Y-95907868D01*
X136948401Y-95893253D01*
X136930223Y-95876777D01*
X136913747Y-95858599D01*
X136899132Y-95838893D01*
X136886520Y-95817850D01*
X136876030Y-95795671D01*
X136867765Y-95772572D01*
X136861804Y-95748773D01*
X136858204Y-95724505D01*
X136857000Y-95700001D01*
X136857000Y-94799999D01*
X136858204Y-94775495D01*
X136861804Y-94751227D01*
X136867765Y-94727428D01*
X136876030Y-94704329D01*
X136886520Y-94682150D01*
X136899132Y-94661107D01*
X136913747Y-94641401D01*
X136930223Y-94623223D01*
X136948401Y-94606747D01*
X136968107Y-94592132D01*
X136989150Y-94579520D01*
X137011329Y-94569030D01*
X137034428Y-94560765D01*
X137058227Y-94554804D01*
X137082495Y-94551204D01*
X137106999Y-94550000D01*
X137757001Y-94550000D01*
X137781505Y-94551204D01*
G37*
G04 #@! TD.AperFunction*
G04 #@! TA.AperFunction,SMDPad,CuDef*
G36*
X135731505Y-94551204D02*
G01*
X135755773Y-94554804D01*
X135779572Y-94560765D01*
X135802671Y-94569030D01*
X135824850Y-94579520D01*
X135845893Y-94592132D01*
X135865599Y-94606747D01*
X135883777Y-94623223D01*
X135900253Y-94641401D01*
X135914868Y-94661107D01*
X135927480Y-94682150D01*
X135937970Y-94704329D01*
X135946235Y-94727428D01*
X135952196Y-94751227D01*
X135955796Y-94775495D01*
X135957000Y-94799999D01*
X135957000Y-95700001D01*
X135955796Y-95724505D01*
X135952196Y-95748773D01*
X135946235Y-95772572D01*
X135937970Y-95795671D01*
X135927480Y-95817850D01*
X135914868Y-95838893D01*
X135900253Y-95858599D01*
X135883777Y-95876777D01*
X135865599Y-95893253D01*
X135845893Y-95907868D01*
X135824850Y-95920480D01*
X135802671Y-95930970D01*
X135779572Y-95939235D01*
X135755773Y-95945196D01*
X135731505Y-95948796D01*
X135707001Y-95950000D01*
X135056999Y-95950000D01*
X135032495Y-95948796D01*
X135008227Y-95945196D01*
X134984428Y-95939235D01*
X134961329Y-95930970D01*
X134939150Y-95920480D01*
X134918107Y-95907868D01*
X134898401Y-95893253D01*
X134880223Y-95876777D01*
X134863747Y-95858599D01*
X134849132Y-95838893D01*
X134836520Y-95817850D01*
X134826030Y-95795671D01*
X134817765Y-95772572D01*
X134811804Y-95748773D01*
X134808204Y-95724505D01*
X134807000Y-95700001D01*
X134807000Y-94799999D01*
X134808204Y-94775495D01*
X134811804Y-94751227D01*
X134817765Y-94727428D01*
X134826030Y-94704329D01*
X134836520Y-94682150D01*
X134849132Y-94661107D01*
X134863747Y-94641401D01*
X134880223Y-94623223D01*
X134898401Y-94606747D01*
X134918107Y-94592132D01*
X134939150Y-94579520D01*
X134961329Y-94569030D01*
X134984428Y-94560765D01*
X135008227Y-94554804D01*
X135032495Y-94551204D01*
X135056999Y-94550000D01*
X135707001Y-94550000D01*
X135731505Y-94551204D01*
G37*
G04 #@! TD.AperFunction*
G04 #@! TA.AperFunction,SMDPad,CuDef*
G36*
X172051505Y-89451204D02*
G01*
X172075773Y-89454804D01*
X172099572Y-89460765D01*
X172122671Y-89469030D01*
X172144850Y-89479520D01*
X172165893Y-89492132D01*
X172185599Y-89506747D01*
X172203777Y-89523223D01*
X172220253Y-89541401D01*
X172234868Y-89561107D01*
X172247480Y-89582150D01*
X172257970Y-89604329D01*
X172266235Y-89627428D01*
X172272196Y-89651227D01*
X172275796Y-89675495D01*
X172277000Y-89699999D01*
X172277000Y-90350001D01*
X172275796Y-90374505D01*
X172272196Y-90398773D01*
X172266235Y-90422572D01*
X172257970Y-90445671D01*
X172247480Y-90467850D01*
X172234868Y-90488893D01*
X172220253Y-90508599D01*
X172203777Y-90526777D01*
X172185599Y-90543253D01*
X172165893Y-90557868D01*
X172144850Y-90570480D01*
X172122671Y-90580970D01*
X172099572Y-90589235D01*
X172075773Y-90595196D01*
X172051505Y-90598796D01*
X172027001Y-90600000D01*
X171126999Y-90600000D01*
X171102495Y-90598796D01*
X171078227Y-90595196D01*
X171054428Y-90589235D01*
X171031329Y-90580970D01*
X171009150Y-90570480D01*
X170988107Y-90557868D01*
X170968401Y-90543253D01*
X170950223Y-90526777D01*
X170933747Y-90508599D01*
X170919132Y-90488893D01*
X170906520Y-90467850D01*
X170896030Y-90445671D01*
X170887765Y-90422572D01*
X170881804Y-90398773D01*
X170878204Y-90374505D01*
X170877000Y-90350001D01*
X170877000Y-89699999D01*
X170878204Y-89675495D01*
X170881804Y-89651227D01*
X170887765Y-89627428D01*
X170896030Y-89604329D01*
X170906520Y-89582150D01*
X170919132Y-89561107D01*
X170933747Y-89541401D01*
X170950223Y-89523223D01*
X170968401Y-89506747D01*
X170988107Y-89492132D01*
X171009150Y-89479520D01*
X171031329Y-89469030D01*
X171054428Y-89460765D01*
X171078227Y-89454804D01*
X171102495Y-89451204D01*
X171126999Y-89450000D01*
X172027001Y-89450000D01*
X172051505Y-89451204D01*
G37*
G04 #@! TD.AperFunction*
G04 #@! TA.AperFunction,SMDPad,CuDef*
G36*
X172051505Y-91501204D02*
G01*
X172075773Y-91504804D01*
X172099572Y-91510765D01*
X172122671Y-91519030D01*
X172144850Y-91529520D01*
X172165893Y-91542132D01*
X172185599Y-91556747D01*
X172203777Y-91573223D01*
X172220253Y-91591401D01*
X172234868Y-91611107D01*
X172247480Y-91632150D01*
X172257970Y-91654329D01*
X172266235Y-91677428D01*
X172272196Y-91701227D01*
X172275796Y-91725495D01*
X172277000Y-91749999D01*
X172277000Y-92400001D01*
X172275796Y-92424505D01*
X172272196Y-92448773D01*
X172266235Y-92472572D01*
X172257970Y-92495671D01*
X172247480Y-92517850D01*
X172234868Y-92538893D01*
X172220253Y-92558599D01*
X172203777Y-92576777D01*
X172185599Y-92593253D01*
X172165893Y-92607868D01*
X172144850Y-92620480D01*
X172122671Y-92630970D01*
X172099572Y-92639235D01*
X172075773Y-92645196D01*
X172051505Y-92648796D01*
X172027001Y-92650000D01*
X171126999Y-92650000D01*
X171102495Y-92648796D01*
X171078227Y-92645196D01*
X171054428Y-92639235D01*
X171031329Y-92630970D01*
X171009150Y-92620480D01*
X170988107Y-92607868D01*
X170968401Y-92593253D01*
X170950223Y-92576777D01*
X170933747Y-92558599D01*
X170919132Y-92538893D01*
X170906520Y-92517850D01*
X170896030Y-92495671D01*
X170887765Y-92472572D01*
X170881804Y-92448773D01*
X170878204Y-92424505D01*
X170877000Y-92400001D01*
X170877000Y-91749999D01*
X170878204Y-91725495D01*
X170881804Y-91701227D01*
X170887765Y-91677428D01*
X170896030Y-91654329D01*
X170906520Y-91632150D01*
X170919132Y-91611107D01*
X170933747Y-91591401D01*
X170950223Y-91573223D01*
X170968401Y-91556747D01*
X170988107Y-91542132D01*
X171009150Y-91529520D01*
X171031329Y-91519030D01*
X171054428Y-91510765D01*
X171078227Y-91504804D01*
X171102495Y-91501204D01*
X171126999Y-91500000D01*
X172027001Y-91500000D01*
X172051505Y-91501204D01*
G37*
G04 #@! TD.AperFunction*
G04 #@! TA.AperFunction,SMDPad,CuDef*
G36*
X133962505Y-94551204D02*
G01*
X133986773Y-94554804D01*
X134010572Y-94560765D01*
X134033671Y-94569030D01*
X134055850Y-94579520D01*
X134076893Y-94592132D01*
X134096599Y-94606747D01*
X134114777Y-94623223D01*
X134131253Y-94641401D01*
X134145868Y-94661107D01*
X134158480Y-94682150D01*
X134168970Y-94704329D01*
X134177235Y-94727428D01*
X134183196Y-94751227D01*
X134186796Y-94775495D01*
X134188000Y-94799999D01*
X134188000Y-95700001D01*
X134186796Y-95724505D01*
X134183196Y-95748773D01*
X134177235Y-95772572D01*
X134168970Y-95795671D01*
X134158480Y-95817850D01*
X134145868Y-95838893D01*
X134131253Y-95858599D01*
X134114777Y-95876777D01*
X134096599Y-95893253D01*
X134076893Y-95907868D01*
X134055850Y-95920480D01*
X134033671Y-95930970D01*
X134010572Y-95939235D01*
X133986773Y-95945196D01*
X133962505Y-95948796D01*
X133938001Y-95950000D01*
X133287999Y-95950000D01*
X133263495Y-95948796D01*
X133239227Y-95945196D01*
X133215428Y-95939235D01*
X133192329Y-95930970D01*
X133170150Y-95920480D01*
X133149107Y-95907868D01*
X133129401Y-95893253D01*
X133111223Y-95876777D01*
X133094747Y-95858599D01*
X133080132Y-95838893D01*
X133067520Y-95817850D01*
X133057030Y-95795671D01*
X133048765Y-95772572D01*
X133042804Y-95748773D01*
X133039204Y-95724505D01*
X133038000Y-95700001D01*
X133038000Y-94799999D01*
X133039204Y-94775495D01*
X133042804Y-94751227D01*
X133048765Y-94727428D01*
X133057030Y-94704329D01*
X133067520Y-94682150D01*
X133080132Y-94661107D01*
X133094747Y-94641401D01*
X133111223Y-94623223D01*
X133129401Y-94606747D01*
X133149107Y-94592132D01*
X133170150Y-94579520D01*
X133192329Y-94569030D01*
X133215428Y-94560765D01*
X133239227Y-94554804D01*
X133263495Y-94551204D01*
X133287999Y-94550000D01*
X133938001Y-94550000D01*
X133962505Y-94551204D01*
G37*
G04 #@! TD.AperFunction*
G04 #@! TA.AperFunction,SMDPad,CuDef*
G36*
X131912505Y-94551204D02*
G01*
X131936773Y-94554804D01*
X131960572Y-94560765D01*
X131983671Y-94569030D01*
X132005850Y-94579520D01*
X132026893Y-94592132D01*
X132046599Y-94606747D01*
X132064777Y-94623223D01*
X132081253Y-94641401D01*
X132095868Y-94661107D01*
X132108480Y-94682150D01*
X132118970Y-94704329D01*
X132127235Y-94727428D01*
X132133196Y-94751227D01*
X132136796Y-94775495D01*
X132138000Y-94799999D01*
X132138000Y-95700001D01*
X132136796Y-95724505D01*
X132133196Y-95748773D01*
X132127235Y-95772572D01*
X132118970Y-95795671D01*
X132108480Y-95817850D01*
X132095868Y-95838893D01*
X132081253Y-95858599D01*
X132064777Y-95876777D01*
X132046599Y-95893253D01*
X132026893Y-95907868D01*
X132005850Y-95920480D01*
X131983671Y-95930970D01*
X131960572Y-95939235D01*
X131936773Y-95945196D01*
X131912505Y-95948796D01*
X131888001Y-95950000D01*
X131237999Y-95950000D01*
X131213495Y-95948796D01*
X131189227Y-95945196D01*
X131165428Y-95939235D01*
X131142329Y-95930970D01*
X131120150Y-95920480D01*
X131099107Y-95907868D01*
X131079401Y-95893253D01*
X131061223Y-95876777D01*
X131044747Y-95858599D01*
X131030132Y-95838893D01*
X131017520Y-95817850D01*
X131007030Y-95795671D01*
X130998765Y-95772572D01*
X130992804Y-95748773D01*
X130989204Y-95724505D01*
X130988000Y-95700001D01*
X130988000Y-94799999D01*
X130989204Y-94775495D01*
X130992804Y-94751227D01*
X130998765Y-94727428D01*
X131007030Y-94704329D01*
X131017520Y-94682150D01*
X131030132Y-94661107D01*
X131044747Y-94641401D01*
X131061223Y-94623223D01*
X131079401Y-94606747D01*
X131099107Y-94592132D01*
X131120150Y-94579520D01*
X131142329Y-94569030D01*
X131165428Y-94560765D01*
X131189227Y-94554804D01*
X131213495Y-94551204D01*
X131237999Y-94550000D01*
X131888001Y-94550000D01*
X131912505Y-94551204D01*
G37*
G04 #@! TD.AperFunction*
G04 #@! TA.AperFunction,SMDPad,CuDef*
G36*
X172051505Y-93279204D02*
G01*
X172075773Y-93282804D01*
X172099572Y-93288765D01*
X172122671Y-93297030D01*
X172144850Y-93307520D01*
X172165893Y-93320132D01*
X172185599Y-93334747D01*
X172203777Y-93351223D01*
X172220253Y-93369401D01*
X172234868Y-93389107D01*
X172247480Y-93410150D01*
X172257970Y-93432329D01*
X172266235Y-93455428D01*
X172272196Y-93479227D01*
X172275796Y-93503495D01*
X172277000Y-93527999D01*
X172277000Y-94178001D01*
X172275796Y-94202505D01*
X172272196Y-94226773D01*
X172266235Y-94250572D01*
X172257970Y-94273671D01*
X172247480Y-94295850D01*
X172234868Y-94316893D01*
X172220253Y-94336599D01*
X172203777Y-94354777D01*
X172185599Y-94371253D01*
X172165893Y-94385868D01*
X172144850Y-94398480D01*
X172122671Y-94408970D01*
X172099572Y-94417235D01*
X172075773Y-94423196D01*
X172051505Y-94426796D01*
X172027001Y-94428000D01*
X171126999Y-94428000D01*
X171102495Y-94426796D01*
X171078227Y-94423196D01*
X171054428Y-94417235D01*
X171031329Y-94408970D01*
X171009150Y-94398480D01*
X170988107Y-94385868D01*
X170968401Y-94371253D01*
X170950223Y-94354777D01*
X170933747Y-94336599D01*
X170919132Y-94316893D01*
X170906520Y-94295850D01*
X170896030Y-94273671D01*
X170887765Y-94250572D01*
X170881804Y-94226773D01*
X170878204Y-94202505D01*
X170877000Y-94178001D01*
X170877000Y-93527999D01*
X170878204Y-93503495D01*
X170881804Y-93479227D01*
X170887765Y-93455428D01*
X170896030Y-93432329D01*
X170906520Y-93410150D01*
X170919132Y-93389107D01*
X170933747Y-93369401D01*
X170950223Y-93351223D01*
X170968401Y-93334747D01*
X170988107Y-93320132D01*
X171009150Y-93307520D01*
X171031329Y-93297030D01*
X171054428Y-93288765D01*
X171078227Y-93282804D01*
X171102495Y-93279204D01*
X171126999Y-93278000D01*
X172027001Y-93278000D01*
X172051505Y-93279204D01*
G37*
G04 #@! TD.AperFunction*
G04 #@! TA.AperFunction,SMDPad,CuDef*
G36*
X172051505Y-95329204D02*
G01*
X172075773Y-95332804D01*
X172099572Y-95338765D01*
X172122671Y-95347030D01*
X172144850Y-95357520D01*
X172165893Y-95370132D01*
X172185599Y-95384747D01*
X172203777Y-95401223D01*
X172220253Y-95419401D01*
X172234868Y-95439107D01*
X172247480Y-95460150D01*
X172257970Y-95482329D01*
X172266235Y-95505428D01*
X172272196Y-95529227D01*
X172275796Y-95553495D01*
X172277000Y-95577999D01*
X172277000Y-96228001D01*
X172275796Y-96252505D01*
X172272196Y-96276773D01*
X172266235Y-96300572D01*
X172257970Y-96323671D01*
X172247480Y-96345850D01*
X172234868Y-96366893D01*
X172220253Y-96386599D01*
X172203777Y-96404777D01*
X172185599Y-96421253D01*
X172165893Y-96435868D01*
X172144850Y-96448480D01*
X172122671Y-96458970D01*
X172099572Y-96467235D01*
X172075773Y-96473196D01*
X172051505Y-96476796D01*
X172027001Y-96478000D01*
X171126999Y-96478000D01*
X171102495Y-96476796D01*
X171078227Y-96473196D01*
X171054428Y-96467235D01*
X171031329Y-96458970D01*
X171009150Y-96448480D01*
X170988107Y-96435868D01*
X170968401Y-96421253D01*
X170950223Y-96404777D01*
X170933747Y-96386599D01*
X170919132Y-96366893D01*
X170906520Y-96345850D01*
X170896030Y-96323671D01*
X170887765Y-96300572D01*
X170881804Y-96276773D01*
X170878204Y-96252505D01*
X170877000Y-96228001D01*
X170877000Y-95577999D01*
X170878204Y-95553495D01*
X170881804Y-95529227D01*
X170887765Y-95505428D01*
X170896030Y-95482329D01*
X170906520Y-95460150D01*
X170919132Y-95439107D01*
X170933747Y-95419401D01*
X170950223Y-95401223D01*
X170968401Y-95384747D01*
X170988107Y-95370132D01*
X171009150Y-95357520D01*
X171031329Y-95347030D01*
X171054428Y-95338765D01*
X171078227Y-95332804D01*
X171102495Y-95329204D01*
X171126999Y-95328000D01*
X172027001Y-95328000D01*
X172051505Y-95329204D01*
G37*
G04 #@! TD.AperFunction*
G04 #@! TA.AperFunction,SMDPad,CuDef*
G36*
X166828505Y-61023204D02*
G01*
X166852773Y-61026804D01*
X166876572Y-61032765D01*
X166899671Y-61041030D01*
X166921850Y-61051520D01*
X166942893Y-61064132D01*
X166962599Y-61078747D01*
X166980777Y-61095223D01*
X166997253Y-61113401D01*
X167011868Y-61133107D01*
X167024480Y-61154150D01*
X167034970Y-61176329D01*
X167043235Y-61199428D01*
X167049196Y-61223227D01*
X167052796Y-61247495D01*
X167054000Y-61271999D01*
X167054000Y-62172001D01*
X167052796Y-62196505D01*
X167049196Y-62220773D01*
X167043235Y-62244572D01*
X167034970Y-62267671D01*
X167024480Y-62289850D01*
X167011868Y-62310893D01*
X166997253Y-62330599D01*
X166980777Y-62348777D01*
X166962599Y-62365253D01*
X166942893Y-62379868D01*
X166921850Y-62392480D01*
X166899671Y-62402970D01*
X166876572Y-62411235D01*
X166852773Y-62417196D01*
X166828505Y-62420796D01*
X166804001Y-62422000D01*
X166153999Y-62422000D01*
X166129495Y-62420796D01*
X166105227Y-62417196D01*
X166081428Y-62411235D01*
X166058329Y-62402970D01*
X166036150Y-62392480D01*
X166015107Y-62379868D01*
X165995401Y-62365253D01*
X165977223Y-62348777D01*
X165960747Y-62330599D01*
X165946132Y-62310893D01*
X165933520Y-62289850D01*
X165923030Y-62267671D01*
X165914765Y-62244572D01*
X165908804Y-62220773D01*
X165905204Y-62196505D01*
X165904000Y-62172001D01*
X165904000Y-61271999D01*
X165905204Y-61247495D01*
X165908804Y-61223227D01*
X165914765Y-61199428D01*
X165923030Y-61176329D01*
X165933520Y-61154150D01*
X165946132Y-61133107D01*
X165960747Y-61113401D01*
X165977223Y-61095223D01*
X165995401Y-61078747D01*
X166015107Y-61064132D01*
X166036150Y-61051520D01*
X166058329Y-61041030D01*
X166081428Y-61032765D01*
X166105227Y-61026804D01*
X166129495Y-61023204D01*
X166153999Y-61022000D01*
X166804001Y-61022000D01*
X166828505Y-61023204D01*
G37*
G04 #@! TD.AperFunction*
G04 #@! TA.AperFunction,SMDPad,CuDef*
G36*
X168878505Y-61023204D02*
G01*
X168902773Y-61026804D01*
X168926572Y-61032765D01*
X168949671Y-61041030D01*
X168971850Y-61051520D01*
X168992893Y-61064132D01*
X169012599Y-61078747D01*
X169030777Y-61095223D01*
X169047253Y-61113401D01*
X169061868Y-61133107D01*
X169074480Y-61154150D01*
X169084970Y-61176329D01*
X169093235Y-61199428D01*
X169099196Y-61223227D01*
X169102796Y-61247495D01*
X169104000Y-61271999D01*
X169104000Y-62172001D01*
X169102796Y-62196505D01*
X169099196Y-62220773D01*
X169093235Y-62244572D01*
X169084970Y-62267671D01*
X169074480Y-62289850D01*
X169061868Y-62310893D01*
X169047253Y-62330599D01*
X169030777Y-62348777D01*
X169012599Y-62365253D01*
X168992893Y-62379868D01*
X168971850Y-62392480D01*
X168949671Y-62402970D01*
X168926572Y-62411235D01*
X168902773Y-62417196D01*
X168878505Y-62420796D01*
X168854001Y-62422000D01*
X168203999Y-62422000D01*
X168179495Y-62420796D01*
X168155227Y-62417196D01*
X168131428Y-62411235D01*
X168108329Y-62402970D01*
X168086150Y-62392480D01*
X168065107Y-62379868D01*
X168045401Y-62365253D01*
X168027223Y-62348777D01*
X168010747Y-62330599D01*
X167996132Y-62310893D01*
X167983520Y-62289850D01*
X167973030Y-62267671D01*
X167964765Y-62244572D01*
X167958804Y-62220773D01*
X167955204Y-62196505D01*
X167954000Y-62172001D01*
X167954000Y-61271999D01*
X167955204Y-61247495D01*
X167958804Y-61223227D01*
X167964765Y-61199428D01*
X167973030Y-61176329D01*
X167983520Y-61154150D01*
X167996132Y-61133107D01*
X168010747Y-61113401D01*
X168027223Y-61095223D01*
X168045401Y-61078747D01*
X168065107Y-61064132D01*
X168086150Y-61051520D01*
X168108329Y-61041030D01*
X168131428Y-61032765D01*
X168155227Y-61026804D01*
X168179495Y-61023204D01*
X168203999Y-61022000D01*
X168854001Y-61022000D01*
X168878505Y-61023204D01*
G37*
G04 #@! TD.AperFunction*
G04 #@! TA.AperFunction,SMDPad,CuDef*
G36*
X133697505Y-67634204D02*
G01*
X133721773Y-67637804D01*
X133745572Y-67643765D01*
X133768671Y-67652030D01*
X133790850Y-67662520D01*
X133811893Y-67675132D01*
X133831599Y-67689747D01*
X133849777Y-67706223D01*
X133866253Y-67724401D01*
X133880868Y-67744107D01*
X133893480Y-67765150D01*
X133903970Y-67787329D01*
X133912235Y-67810428D01*
X133918196Y-67834227D01*
X133921796Y-67858495D01*
X133923000Y-67882999D01*
X133923000Y-68533001D01*
X133921796Y-68557505D01*
X133918196Y-68581773D01*
X133912235Y-68605572D01*
X133903970Y-68628671D01*
X133893480Y-68650850D01*
X133880868Y-68671893D01*
X133866253Y-68691599D01*
X133849777Y-68709777D01*
X133831599Y-68726253D01*
X133811893Y-68740868D01*
X133790850Y-68753480D01*
X133768671Y-68763970D01*
X133745572Y-68772235D01*
X133721773Y-68778196D01*
X133697505Y-68781796D01*
X133673001Y-68783000D01*
X132772999Y-68783000D01*
X132748495Y-68781796D01*
X132724227Y-68778196D01*
X132700428Y-68772235D01*
X132677329Y-68763970D01*
X132655150Y-68753480D01*
X132634107Y-68740868D01*
X132614401Y-68726253D01*
X132596223Y-68709777D01*
X132579747Y-68691599D01*
X132565132Y-68671893D01*
X132552520Y-68650850D01*
X132542030Y-68628671D01*
X132533765Y-68605572D01*
X132527804Y-68581773D01*
X132524204Y-68557505D01*
X132523000Y-68533001D01*
X132523000Y-67882999D01*
X132524204Y-67858495D01*
X132527804Y-67834227D01*
X132533765Y-67810428D01*
X132542030Y-67787329D01*
X132552520Y-67765150D01*
X132565132Y-67744107D01*
X132579747Y-67724401D01*
X132596223Y-67706223D01*
X132614401Y-67689747D01*
X132634107Y-67675132D01*
X132655150Y-67662520D01*
X132677329Y-67652030D01*
X132700428Y-67643765D01*
X132724227Y-67637804D01*
X132748495Y-67634204D01*
X132772999Y-67633000D01*
X133673001Y-67633000D01*
X133697505Y-67634204D01*
G37*
G04 #@! TD.AperFunction*
G04 #@! TA.AperFunction,SMDPad,CuDef*
G36*
X133697505Y-65584204D02*
G01*
X133721773Y-65587804D01*
X133745572Y-65593765D01*
X133768671Y-65602030D01*
X133790850Y-65612520D01*
X133811893Y-65625132D01*
X133831599Y-65639747D01*
X133849777Y-65656223D01*
X133866253Y-65674401D01*
X133880868Y-65694107D01*
X133893480Y-65715150D01*
X133903970Y-65737329D01*
X133912235Y-65760428D01*
X133918196Y-65784227D01*
X133921796Y-65808495D01*
X133923000Y-65832999D01*
X133923000Y-66483001D01*
X133921796Y-66507505D01*
X133918196Y-66531773D01*
X133912235Y-66555572D01*
X133903970Y-66578671D01*
X133893480Y-66600850D01*
X133880868Y-66621893D01*
X133866253Y-66641599D01*
X133849777Y-66659777D01*
X133831599Y-66676253D01*
X133811893Y-66690868D01*
X133790850Y-66703480D01*
X133768671Y-66713970D01*
X133745572Y-66722235D01*
X133721773Y-66728196D01*
X133697505Y-66731796D01*
X133673001Y-66733000D01*
X132772999Y-66733000D01*
X132748495Y-66731796D01*
X132724227Y-66728196D01*
X132700428Y-66722235D01*
X132677329Y-66713970D01*
X132655150Y-66703480D01*
X132634107Y-66690868D01*
X132614401Y-66676253D01*
X132596223Y-66659777D01*
X132579747Y-66641599D01*
X132565132Y-66621893D01*
X132552520Y-66600850D01*
X132542030Y-66578671D01*
X132533765Y-66555572D01*
X132527804Y-66531773D01*
X132524204Y-66507505D01*
X132523000Y-66483001D01*
X132523000Y-65832999D01*
X132524204Y-65808495D01*
X132527804Y-65784227D01*
X132533765Y-65760428D01*
X132542030Y-65737329D01*
X132552520Y-65715150D01*
X132565132Y-65694107D01*
X132579747Y-65674401D01*
X132596223Y-65656223D01*
X132614401Y-65639747D01*
X132634107Y-65625132D01*
X132655150Y-65612520D01*
X132677329Y-65602030D01*
X132700428Y-65593765D01*
X132724227Y-65587804D01*
X132748495Y-65584204D01*
X132772999Y-65583000D01*
X133673001Y-65583000D01*
X133697505Y-65584204D01*
G37*
G04 #@! TD.AperFunction*
G04 #@! TA.AperFunction,SMDPad,CuDef*
G36*
X170656505Y-61023204D02*
G01*
X170680773Y-61026804D01*
X170704572Y-61032765D01*
X170727671Y-61041030D01*
X170749850Y-61051520D01*
X170770893Y-61064132D01*
X170790599Y-61078747D01*
X170808777Y-61095223D01*
X170825253Y-61113401D01*
X170839868Y-61133107D01*
X170852480Y-61154150D01*
X170862970Y-61176329D01*
X170871235Y-61199428D01*
X170877196Y-61223227D01*
X170880796Y-61247495D01*
X170882000Y-61271999D01*
X170882000Y-62172001D01*
X170880796Y-62196505D01*
X170877196Y-62220773D01*
X170871235Y-62244572D01*
X170862970Y-62267671D01*
X170852480Y-62289850D01*
X170839868Y-62310893D01*
X170825253Y-62330599D01*
X170808777Y-62348777D01*
X170790599Y-62365253D01*
X170770893Y-62379868D01*
X170749850Y-62392480D01*
X170727671Y-62402970D01*
X170704572Y-62411235D01*
X170680773Y-62417196D01*
X170656505Y-62420796D01*
X170632001Y-62422000D01*
X169981999Y-62422000D01*
X169957495Y-62420796D01*
X169933227Y-62417196D01*
X169909428Y-62411235D01*
X169886329Y-62402970D01*
X169864150Y-62392480D01*
X169843107Y-62379868D01*
X169823401Y-62365253D01*
X169805223Y-62348777D01*
X169788747Y-62330599D01*
X169774132Y-62310893D01*
X169761520Y-62289850D01*
X169751030Y-62267671D01*
X169742765Y-62244572D01*
X169736804Y-62220773D01*
X169733204Y-62196505D01*
X169732000Y-62172001D01*
X169732000Y-61271999D01*
X169733204Y-61247495D01*
X169736804Y-61223227D01*
X169742765Y-61199428D01*
X169751030Y-61176329D01*
X169761520Y-61154150D01*
X169774132Y-61133107D01*
X169788747Y-61113401D01*
X169805223Y-61095223D01*
X169823401Y-61078747D01*
X169843107Y-61064132D01*
X169864150Y-61051520D01*
X169886329Y-61041030D01*
X169909428Y-61032765D01*
X169933227Y-61026804D01*
X169957495Y-61023204D01*
X169981999Y-61022000D01*
X170632001Y-61022000D01*
X170656505Y-61023204D01*
G37*
G04 #@! TD.AperFunction*
G04 #@! TA.AperFunction,SMDPad,CuDef*
G36*
X172706505Y-61023204D02*
G01*
X172730773Y-61026804D01*
X172754572Y-61032765D01*
X172777671Y-61041030D01*
X172799850Y-61051520D01*
X172820893Y-61064132D01*
X172840599Y-61078747D01*
X172858777Y-61095223D01*
X172875253Y-61113401D01*
X172889868Y-61133107D01*
X172902480Y-61154150D01*
X172912970Y-61176329D01*
X172921235Y-61199428D01*
X172927196Y-61223227D01*
X172930796Y-61247495D01*
X172932000Y-61271999D01*
X172932000Y-62172001D01*
X172930796Y-62196505D01*
X172927196Y-62220773D01*
X172921235Y-62244572D01*
X172912970Y-62267671D01*
X172902480Y-62289850D01*
X172889868Y-62310893D01*
X172875253Y-62330599D01*
X172858777Y-62348777D01*
X172840599Y-62365253D01*
X172820893Y-62379868D01*
X172799850Y-62392480D01*
X172777671Y-62402970D01*
X172754572Y-62411235D01*
X172730773Y-62417196D01*
X172706505Y-62420796D01*
X172682001Y-62422000D01*
X172031999Y-62422000D01*
X172007495Y-62420796D01*
X171983227Y-62417196D01*
X171959428Y-62411235D01*
X171936329Y-62402970D01*
X171914150Y-62392480D01*
X171893107Y-62379868D01*
X171873401Y-62365253D01*
X171855223Y-62348777D01*
X171838747Y-62330599D01*
X171824132Y-62310893D01*
X171811520Y-62289850D01*
X171801030Y-62267671D01*
X171792765Y-62244572D01*
X171786804Y-62220773D01*
X171783204Y-62196505D01*
X171782000Y-62172001D01*
X171782000Y-61271999D01*
X171783204Y-61247495D01*
X171786804Y-61223227D01*
X171792765Y-61199428D01*
X171801030Y-61176329D01*
X171811520Y-61154150D01*
X171824132Y-61133107D01*
X171838747Y-61113401D01*
X171855223Y-61095223D01*
X171873401Y-61078747D01*
X171893107Y-61064132D01*
X171914150Y-61051520D01*
X171936329Y-61041030D01*
X171959428Y-61032765D01*
X171983227Y-61026804D01*
X172007495Y-61023204D01*
X172031999Y-61022000D01*
X172682001Y-61022000D01*
X172706505Y-61023204D01*
G37*
G04 #@! TD.AperFunction*
G04 #@! TA.AperFunction,SMDPad,CuDef*
G36*
X133697505Y-63815204D02*
G01*
X133721773Y-63818804D01*
X133745572Y-63824765D01*
X133768671Y-63833030D01*
X133790850Y-63843520D01*
X133811893Y-63856132D01*
X133831599Y-63870747D01*
X133849777Y-63887223D01*
X133866253Y-63905401D01*
X133880868Y-63925107D01*
X133893480Y-63946150D01*
X133903970Y-63968329D01*
X133912235Y-63991428D01*
X133918196Y-64015227D01*
X133921796Y-64039495D01*
X133923000Y-64063999D01*
X133923000Y-64714001D01*
X133921796Y-64738505D01*
X133918196Y-64762773D01*
X133912235Y-64786572D01*
X133903970Y-64809671D01*
X133893480Y-64831850D01*
X133880868Y-64852893D01*
X133866253Y-64872599D01*
X133849777Y-64890777D01*
X133831599Y-64907253D01*
X133811893Y-64921868D01*
X133790850Y-64934480D01*
X133768671Y-64944970D01*
X133745572Y-64953235D01*
X133721773Y-64959196D01*
X133697505Y-64962796D01*
X133673001Y-64964000D01*
X132772999Y-64964000D01*
X132748495Y-64962796D01*
X132724227Y-64959196D01*
X132700428Y-64953235D01*
X132677329Y-64944970D01*
X132655150Y-64934480D01*
X132634107Y-64921868D01*
X132614401Y-64907253D01*
X132596223Y-64890777D01*
X132579747Y-64872599D01*
X132565132Y-64852893D01*
X132552520Y-64831850D01*
X132542030Y-64809671D01*
X132533765Y-64786572D01*
X132527804Y-64762773D01*
X132524204Y-64738505D01*
X132523000Y-64714001D01*
X132523000Y-64063999D01*
X132524204Y-64039495D01*
X132527804Y-64015227D01*
X132533765Y-63991428D01*
X132542030Y-63968329D01*
X132552520Y-63946150D01*
X132565132Y-63925107D01*
X132579747Y-63905401D01*
X132596223Y-63887223D01*
X132614401Y-63870747D01*
X132634107Y-63856132D01*
X132655150Y-63843520D01*
X132677329Y-63833030D01*
X132700428Y-63824765D01*
X132724227Y-63818804D01*
X132748495Y-63815204D01*
X132772999Y-63814000D01*
X133673001Y-63814000D01*
X133697505Y-63815204D01*
G37*
G04 #@! TD.AperFunction*
G04 #@! TA.AperFunction,SMDPad,CuDef*
G36*
X133697505Y-61765204D02*
G01*
X133721773Y-61768804D01*
X133745572Y-61774765D01*
X133768671Y-61783030D01*
X133790850Y-61793520D01*
X133811893Y-61806132D01*
X133831599Y-61820747D01*
X133849777Y-61837223D01*
X133866253Y-61855401D01*
X133880868Y-61875107D01*
X133893480Y-61896150D01*
X133903970Y-61918329D01*
X133912235Y-61941428D01*
X133918196Y-61965227D01*
X133921796Y-61989495D01*
X133923000Y-62013999D01*
X133923000Y-62664001D01*
X133921796Y-62688505D01*
X133918196Y-62712773D01*
X133912235Y-62736572D01*
X133903970Y-62759671D01*
X133893480Y-62781850D01*
X133880868Y-62802893D01*
X133866253Y-62822599D01*
X133849777Y-62840777D01*
X133831599Y-62857253D01*
X133811893Y-62871868D01*
X133790850Y-62884480D01*
X133768671Y-62894970D01*
X133745572Y-62903235D01*
X133721773Y-62909196D01*
X133697505Y-62912796D01*
X133673001Y-62914000D01*
X132772999Y-62914000D01*
X132748495Y-62912796D01*
X132724227Y-62909196D01*
X132700428Y-62903235D01*
X132677329Y-62894970D01*
X132655150Y-62884480D01*
X132634107Y-62871868D01*
X132614401Y-62857253D01*
X132596223Y-62840777D01*
X132579747Y-62822599D01*
X132565132Y-62802893D01*
X132552520Y-62781850D01*
X132542030Y-62759671D01*
X132533765Y-62736572D01*
X132527804Y-62712773D01*
X132524204Y-62688505D01*
X132523000Y-62664001D01*
X132523000Y-62013999D01*
X132524204Y-61989495D01*
X132527804Y-61965227D01*
X132533765Y-61941428D01*
X132542030Y-61918329D01*
X132552520Y-61896150D01*
X132565132Y-61875107D01*
X132579747Y-61855401D01*
X132596223Y-61837223D01*
X132614401Y-61820747D01*
X132634107Y-61806132D01*
X132655150Y-61793520D01*
X132677329Y-61783030D01*
X132700428Y-61774765D01*
X132724227Y-61768804D01*
X132748495Y-61765204D01*
X132772999Y-61764000D01*
X133673001Y-61764000D01*
X133697505Y-61765204D01*
G37*
G04 #@! TD.AperFunction*
D15*
X162560000Y-95250000D03*
X162560000Y-92710000D03*
X162560000Y-90170000D03*
X162560000Y-87630000D03*
X162560000Y-85090000D03*
X162560000Y-82550000D03*
X162560000Y-80010000D03*
X162560000Y-77470000D03*
X162560000Y-74930000D03*
X162560000Y-72390000D03*
X162560000Y-69850000D03*
D16*
X162560000Y-67310000D03*
D15*
X142240000Y-95250000D03*
X142240000Y-92710000D03*
X142240000Y-90170000D03*
X142240000Y-87630000D03*
X142240000Y-85090000D03*
X142240000Y-82550000D03*
X142240000Y-80010000D03*
X142240000Y-77470000D03*
X142240000Y-74930000D03*
X142240000Y-72390000D03*
X142240000Y-69850000D03*
X142240000Y-67310000D03*
X142240000Y-64770000D03*
X142240000Y-62230000D03*
X142240000Y-59690000D03*
D16*
X142240000Y-57150000D03*
D17*
X164338000Y-61595000D03*
X164338000Y-82804000D03*
X131826000Y-61722000D03*
X137414000Y-95250000D03*
X145592800Y-79197200D03*
X135890000Y-77724000D03*
X168910000Y-77724000D03*
X147955000Y-85852000D03*
X160070800Y-79375000D03*
X148717000Y-75438000D03*
X152019000Y-75438000D03*
X149225000Y-71120000D03*
X154940000Y-85140800D03*
X152400000Y-85090000D03*
X172357000Y-61722000D03*
X133232000Y-62348000D03*
X131554000Y-95250000D03*
X171577000Y-95903000D03*
X164998400Y-97155000D03*
D18*
X133453000Y-67978000D02*
X133223000Y-68208000D01*
X133223000Y-68208000D02*
X133223000Y-70231000D01*
X139446000Y-94996000D02*
X137432000Y-94996000D01*
X171377000Y-90225000D02*
X171577000Y-90025000D01*
X171595000Y-90007000D02*
X171577000Y-90025000D01*
X171595000Y-88138000D02*
X171595000Y-90007000D01*
X166352000Y-61595000D02*
X166479000Y-61722000D01*
X164338000Y-61595000D02*
X164338000Y-61595000D01*
X164338000Y-61595000D02*
X166352000Y-61595000D01*
D19*
X133223000Y-68208000D02*
X132343000Y-68208000D01*
X132343000Y-68208000D02*
X131826000Y-67691000D01*
D18*
X137432000Y-94996000D02*
X137432000Y-94996000D01*
D19*
X166370000Y-85598000D02*
X166370000Y-85598000D01*
X131826000Y-67691000D02*
X131826000Y-61722000D01*
D20*
X133923000Y-68208000D02*
X133223000Y-68208000D01*
X136283000Y-66732000D02*
X134807000Y-68208000D01*
X134807000Y-68208000D02*
X133923000Y-68208000D01*
X136283000Y-66228000D02*
X136283000Y-66732000D01*
X135570000Y-92190000D02*
X136767000Y-92190000D01*
X137414000Y-92837000D02*
X136767000Y-92190000D01*
X137414000Y-95250000D02*
X137414000Y-92837000D01*
X169627000Y-91975000D02*
X171577000Y-90025000D01*
X168585000Y-91975000D02*
X169627000Y-91975000D01*
D19*
X165862000Y-85598000D02*
X164338000Y-84074000D01*
X170942000Y-85598000D02*
X165862000Y-85598000D01*
X164338000Y-84074000D02*
X164338000Y-82677000D01*
X171595000Y-88138000D02*
X171595000Y-86251000D01*
X171595000Y-86251000D02*
X170942000Y-85598000D01*
D20*
X166479000Y-62422000D02*
X166479000Y-61722000D01*
X166479000Y-63336000D02*
X166479000Y-62422000D01*
X167925000Y-64782000D02*
X166479000Y-63336000D01*
X168429000Y-64782000D02*
X167925000Y-64782000D01*
D18*
X142240000Y-64770000D02*
X144780000Y-67310000D01*
X164162802Y-66167000D02*
X162765802Y-64770000D01*
X168529000Y-61722000D02*
X170307000Y-61722000D01*
X133613000Y-95250000D02*
X135382000Y-95250000D01*
X171577000Y-93853000D02*
X171577000Y-92075000D01*
X133223000Y-66158000D02*
X133223000Y-64389000D01*
X144780000Y-82677000D02*
X147955000Y-85852000D01*
X160070800Y-79375000D02*
X160070800Y-74218800D01*
X150622000Y-64770000D02*
X149860000Y-64770000D01*
X162765802Y-64770000D02*
X149860000Y-64770000D01*
X160070800Y-74218800D02*
X150622000Y-64770000D01*
X144907000Y-74041000D02*
X144780000Y-74041000D01*
X145192801Y-78797201D02*
X144780000Y-78384400D01*
X145592800Y-79197200D02*
X145192801Y-78797201D01*
X144780000Y-75692000D02*
X144780000Y-78384400D01*
X144780000Y-78384400D02*
X144780000Y-82677000D01*
X144780000Y-75692000D02*
X144780000Y-71755000D01*
X144780000Y-67310000D02*
X144780000Y-71755000D01*
X144780000Y-71755000D02*
X144780000Y-74041000D01*
X146177000Y-75438000D02*
X144780000Y-74041000D01*
X152019000Y-75438000D02*
X146177000Y-75438000D01*
D20*
X160070800Y-79375000D02*
X160070800Y-80822800D01*
X160070800Y-80822800D02*
X160528000Y-81280000D01*
X160528000Y-81280000D02*
X164084000Y-81280000D01*
D18*
X149225000Y-71120000D02*
X149225000Y-66802000D01*
X149860000Y-64770000D02*
X147193000Y-64770000D01*
X149225000Y-66802000D02*
X147193000Y-64770000D01*
X147193000Y-64770000D02*
X142240000Y-64770000D01*
D20*
X137296602Y-65278000D02*
X137033000Y-65278000D01*
X137783000Y-64791602D02*
X137296602Y-65278000D01*
X137783000Y-64328000D02*
X137783000Y-64791602D01*
X169379000Y-65836000D02*
X169379000Y-65532000D01*
X169825000Y-66282000D02*
X169379000Y-65836000D01*
X170329000Y-66282000D02*
X169825000Y-66282000D01*
X167571398Y-92925000D02*
X167835000Y-92925000D01*
X167085000Y-93411398D02*
X167571398Y-92925000D01*
X167085000Y-93875000D02*
X167085000Y-93411398D01*
X134620000Y-91136000D02*
X134620000Y-91440000D01*
X134174000Y-90690000D02*
X134620000Y-91136000D01*
X133670000Y-90690000D02*
X134174000Y-90690000D01*
D18*
X141732000Y-65278000D02*
X137033000Y-65278000D01*
X142240000Y-64770000D02*
X141732000Y-65278000D01*
D20*
X134870000Y-91190000D02*
X134620000Y-91440000D01*
X135570000Y-91190000D02*
X134870000Y-91190000D01*
X137283000Y-65528000D02*
X137033000Y-65278000D01*
X137283000Y-66228000D02*
X137283000Y-65528000D01*
X169129000Y-65782000D02*
X169379000Y-65532000D01*
X168429000Y-65782000D02*
X169129000Y-65782000D01*
X167585000Y-92675000D02*
X167835000Y-92925000D01*
X167585000Y-91975000D02*
X167585000Y-92675000D01*
X140563600Y-78333600D02*
X142240000Y-80010000D01*
X140563600Y-68629600D02*
X140563600Y-78333600D01*
X138162000Y-66228000D02*
X140563600Y-68629600D01*
X137783000Y-66228000D02*
X138162000Y-66228000D01*
X154889200Y-85090000D02*
X154940000Y-85140800D01*
X152360900Y-85090000D02*
X154889200Y-85090000D01*
X143637000Y-91440000D02*
X144907000Y-90170000D01*
X140947040Y-91440000D02*
X143637000Y-91440000D01*
X162560000Y-90170000D02*
X144907000Y-90170000D01*
X140197040Y-90690000D02*
X135570000Y-90690000D01*
X140947040Y-91440000D02*
X140197040Y-90690000D01*
X165930000Y-88460000D02*
X162560000Y-85090000D01*
X166706000Y-91975000D02*
X165930000Y-91199000D01*
X165930000Y-91199000D02*
X165930000Y-88460000D01*
X167085000Y-91975000D02*
X166706000Y-91975000D01*
X165493000Y-66282000D02*
X168429000Y-66282000D01*
X164211000Y-67564000D02*
X165493000Y-66282000D01*
X162560000Y-80010000D02*
X163762081Y-80010000D01*
X164211000Y-79561081D02*
X164211000Y-67564000D01*
X163762081Y-80010000D02*
X164211000Y-79561081D01*
X136783000Y-63377000D02*
X136652000Y-63246000D01*
X136783000Y-64328000D02*
X136783000Y-63377000D01*
D18*
X136550400Y-61355286D02*
X136550400Y-62992000D01*
X136550400Y-61366400D02*
X126407798Y-51392202D01*
X136652000Y-59309000D02*
X127592202Y-50207798D01*
X136652000Y-59309000D02*
X137160000Y-59817000D01*
X137160000Y-59817000D02*
X137414000Y-60071000D01*
X137614010Y-60271010D02*
X137160000Y-59817000D01*
D20*
X137283000Y-63824000D02*
X137614010Y-63492990D01*
X137283000Y-64328000D02*
X137283000Y-63824000D01*
X137614010Y-63492990D02*
X137614010Y-63246000D01*
D18*
X137614010Y-63246000D02*
X137614010Y-60271010D01*
D20*
X171210723Y-65024000D02*
X171323000Y-65024000D01*
X170952723Y-65282000D02*
X171210723Y-65024000D01*
X170329000Y-65282000D02*
X170952723Y-65282000D01*
D18*
X173863000Y-53552596D02*
X177842798Y-49572798D01*
X173863000Y-63881000D02*
X173863000Y-53552596D01*
X171323000Y-64950990D02*
X172793010Y-64950990D01*
X172793010Y-64950990D02*
X173863000Y-63881000D01*
D20*
X171192000Y-65782000D02*
X171323000Y-65913000D01*
X170329000Y-65782000D02*
X171192000Y-65782000D01*
D18*
X175006000Y-64770000D02*
X175006000Y-54778404D01*
X175006000Y-54778404D02*
X179027202Y-50757202D01*
X171323000Y-65913000D02*
X173863000Y-65913000D01*
X173863000Y-65913000D02*
X175006000Y-64770000D01*
X168275000Y-96647000D02*
X168275000Y-94869000D01*
X169545000Y-97917000D02*
X168275000Y-96647000D01*
X178392202Y-101007798D02*
X175301404Y-97917000D01*
X175301404Y-97917000D02*
X169545000Y-97917000D01*
D20*
X168085000Y-94679000D02*
X168275000Y-94869000D01*
X168085000Y-93875000D02*
X168085000Y-94679000D01*
D18*
X167200000Y-96932486D02*
X167200000Y-94869000D01*
X169327514Y-99060000D02*
X167200000Y-96932486D01*
X177207798Y-102192202D02*
X174075596Y-99060000D01*
X174075596Y-99060000D02*
X169327514Y-99060000D01*
D20*
X167585000Y-94484000D02*
X167200000Y-94869000D01*
X167585000Y-93875000D02*
X167585000Y-94484000D01*
D18*
X127592202Y-102192202D02*
X130048000Y-99736404D01*
X130048000Y-99736404D02*
X130048000Y-93091000D01*
X130048000Y-93091000D02*
X130048000Y-92837000D01*
X130048000Y-92837000D02*
X131064000Y-91821000D01*
X131064000Y-91821000D02*
X132715000Y-91821000D01*
D20*
X132848008Y-91687992D02*
X133670000Y-91687992D01*
X132715000Y-91821000D02*
X132848008Y-91687992D01*
D18*
X130665523Y-90858990D02*
X132715000Y-90858990D01*
X130629010Y-90858990D02*
X130665523Y-90858990D01*
X129032000Y-92456000D02*
X130629010Y-90858990D01*
X126407798Y-101007798D02*
X129032000Y-98383596D01*
X129032000Y-98383596D02*
X129032000Y-92456000D01*
D20*
X133046010Y-91190000D02*
X132715000Y-90858990D01*
X133670000Y-91190000D02*
X133046010Y-91190000D01*
X136783000Y-66228000D02*
X136783000Y-67593000D01*
X136783000Y-66732000D02*
X136783000Y-66228000D01*
X136783000Y-69296000D02*
X136783000Y-66732000D01*
X135848000Y-70231000D02*
X136783000Y-69296000D01*
X135273000Y-70231000D02*
X135848000Y-70231000D01*
X164338000Y-64220000D02*
X164338000Y-63645000D01*
X165400000Y-65282000D02*
X164338000Y-64220000D01*
X168429000Y-65282000D02*
X165400000Y-65282000D01*
X168970000Y-88138000D02*
X169545000Y-88138000D01*
X168085000Y-89023000D02*
X168970000Y-88138000D01*
X168085000Y-91975000D02*
X168085000Y-89023000D01*
X138765000Y-91690000D02*
X139446000Y-92371000D01*
X139446000Y-92371000D02*
X139446000Y-92946000D01*
X135570000Y-91690000D02*
X138765000Y-91690000D01*
D18*
X172357000Y-61722000D02*
X172357000Y-61722000D01*
X133232000Y-62348000D02*
X133223000Y-62339000D01*
X131554000Y-94996000D02*
X131554000Y-94996000D01*
X171577000Y-95903000D02*
X171577000Y-95903000D01*
X171577000Y-95903000D02*
X171577000Y-95903000D01*
X131563000Y-95950000D02*
X131563000Y-95250000D01*
X132768000Y-97155000D02*
X131563000Y-95950000D01*
X164998400Y-97155000D02*
X132768000Y-97155000D01*
X131563000Y-94422000D02*
X133588999Y-92396001D01*
X131563000Y-95250000D02*
X131563000Y-94422000D01*
X131554000Y-95250000D02*
X131563000Y-95250000D01*
X133232000Y-62348000D02*
X133631999Y-62747999D01*
X133631999Y-62747999D02*
X134883999Y-62747999D01*
X170740009Y-95903000D02*
X168793010Y-93956001D01*
X171577000Y-95903000D02*
X170740009Y-95903000D01*
X172357000Y-62491400D02*
X170410001Y-64438399D01*
X172357000Y-61722000D02*
X172357000Y-62491400D01*
X136074990Y-63938990D02*
X136074990Y-64246999D01*
X134883999Y-62747999D02*
X136074990Y-63938990D01*
D21*
G36*
X173164500Y-60973379D02*
G01*
X173155136Y-60955860D01*
X173084370Y-60869630D01*
X172998140Y-60798864D01*
X172899761Y-60746279D01*
X172793014Y-60713898D01*
X172682001Y-60702964D01*
X172031999Y-60702964D01*
X171920986Y-60713898D01*
X171814239Y-60746279D01*
X171715860Y-60798864D01*
X171629630Y-60869630D01*
X171558864Y-60955860D01*
X171506279Y-61054239D01*
X171473898Y-61160986D01*
X171462964Y-61271999D01*
X171462964Y-62172001D01*
X171473898Y-62283014D01*
X171498024Y-62362548D01*
X169891827Y-63968746D01*
X169826410Y-64048456D01*
X169761550Y-64169801D01*
X169721609Y-64301470D01*
X169710570Y-64413556D01*
X169521875Y-64414500D01*
X169442500Y-64493875D01*
X169442500Y-65468500D01*
X169462500Y-65468500D01*
X169462500Y-65595500D01*
X169442500Y-65595500D01*
X169442500Y-66570125D01*
X169521875Y-66649500D01*
X169829000Y-66651036D01*
X169870529Y-66646946D01*
X169906937Y-66675660D01*
X169962656Y-66704066D01*
X170022846Y-66721055D01*
X170085194Y-66725976D01*
X170186125Y-66724500D01*
X170265500Y-66645125D01*
X170265500Y-66343500D01*
X170245500Y-66343500D01*
X170245500Y-66226036D01*
X170302459Y-66226036D01*
X170307170Y-66226500D01*
X170412500Y-66226500D01*
X170412500Y-66343500D01*
X170392500Y-66343500D01*
X170392500Y-66645125D01*
X170471875Y-66724500D01*
X170572806Y-66725976D01*
X170635154Y-66721055D01*
X170695344Y-66704066D01*
X170751063Y-66675660D01*
X170800170Y-66636930D01*
X170840777Y-66589364D01*
X170871325Y-66534789D01*
X170890638Y-66475304D01*
X170892023Y-66462915D01*
X170933057Y-66496591D01*
X171054403Y-66561452D01*
X171186070Y-66601393D01*
X171288691Y-66611500D01*
X173828702Y-66611500D01*
X173863000Y-66614878D01*
X173897298Y-66611500D01*
X173897309Y-66611500D01*
X173926500Y-66608625D01*
X173926500Y-96456500D01*
X172546981Y-96456500D01*
X172552721Y-96445761D01*
X172585102Y-96339014D01*
X172596036Y-96228001D01*
X172596036Y-95577999D01*
X172585102Y-95466986D01*
X172552721Y-95360239D01*
X172500136Y-95261860D01*
X172429370Y-95175630D01*
X172343140Y-95104864D01*
X172244761Y-95052279D01*
X172138014Y-95019898D01*
X172027001Y-95008964D01*
X171126999Y-95008964D01*
X171015986Y-95019898D01*
X170909239Y-95052279D01*
X170888305Y-95063468D01*
X170252837Y-94428000D01*
X170557964Y-94428000D01*
X170564094Y-94490241D01*
X170582249Y-94550090D01*
X170611731Y-94605247D01*
X170651407Y-94653593D01*
X170699753Y-94693269D01*
X170754910Y-94722751D01*
X170814759Y-94740906D01*
X170877000Y-94747036D01*
X171434125Y-94745500D01*
X171513500Y-94666125D01*
X171513500Y-93916500D01*
X171640500Y-93916500D01*
X171640500Y-94666125D01*
X171719875Y-94745500D01*
X172277000Y-94747036D01*
X172339241Y-94740906D01*
X172399090Y-94722751D01*
X172454247Y-94693269D01*
X172502593Y-94653593D01*
X172542269Y-94605247D01*
X172571751Y-94550090D01*
X172589906Y-94490241D01*
X172596036Y-94428000D01*
X172594500Y-93995875D01*
X172515125Y-93916500D01*
X171640500Y-93916500D01*
X171513500Y-93916500D01*
X170638875Y-93916500D01*
X170559500Y-93995875D01*
X170557964Y-94428000D01*
X170252837Y-94428000D01*
X169262663Y-93437827D01*
X169182953Y-93372410D01*
X169061608Y-93307550D01*
X168953535Y-93274767D01*
X168952500Y-93067875D01*
X168873125Y-92988500D01*
X167898500Y-92988500D01*
X167898500Y-93008500D01*
X167771500Y-93008500D01*
X167771500Y-92988500D01*
X166796875Y-92988500D01*
X166717500Y-93067875D01*
X166715964Y-93375000D01*
X166720054Y-93416529D01*
X166691340Y-93452937D01*
X166662934Y-93508656D01*
X166645945Y-93568846D01*
X166641024Y-93631194D01*
X166642500Y-93732125D01*
X166721875Y-93811500D01*
X167023500Y-93811500D01*
X167023500Y-93791500D01*
X167140964Y-93791500D01*
X167140964Y-93848460D01*
X167140500Y-93853171D01*
X167140500Y-93958500D01*
X167023500Y-93958500D01*
X167023500Y-93938500D01*
X166721875Y-93938500D01*
X166642500Y-94017875D01*
X166641024Y-94118806D01*
X166645945Y-94181154D01*
X166662934Y-94241344D01*
X166691340Y-94297063D01*
X166730070Y-94346170D01*
X166732987Y-94348660D01*
X166703698Y-94372697D01*
X166616410Y-94479057D01*
X166551549Y-94600403D01*
X166511608Y-94732070D01*
X166501501Y-94834691D01*
X166501500Y-96456500D01*
X165164588Y-96456500D01*
X165069068Y-96437500D01*
X164927732Y-96437500D01*
X164832212Y-96456500D01*
X163893500Y-96456500D01*
X163893500Y-87052118D01*
X165485501Y-88644119D01*
X165485500Y-91177180D01*
X165483351Y-91199000D01*
X165485500Y-91220820D01*
X165485500Y-91220829D01*
X165491932Y-91286136D01*
X165503040Y-91322753D01*
X165517349Y-91369925D01*
X165558624Y-91447145D01*
X165591230Y-91486875D01*
X165614171Y-91514829D01*
X165631129Y-91528746D01*
X166376258Y-92273876D01*
X166390171Y-92290829D01*
X166407124Y-92304742D01*
X166407127Y-92304745D01*
X166457854Y-92346376D01*
X166501028Y-92369453D01*
X166535074Y-92387651D01*
X166618863Y-92413068D01*
X166684170Y-92419500D01*
X166684180Y-92419500D01*
X166706000Y-92421649D01*
X166710306Y-92421225D01*
X166720086Y-92433143D01*
X166715964Y-92475000D01*
X166717500Y-92782125D01*
X166796875Y-92861500D01*
X167771500Y-92861500D01*
X167771500Y-92841500D01*
X167898500Y-92841500D01*
X167898500Y-92861500D01*
X168873125Y-92861500D01*
X168952500Y-92782125D01*
X168953160Y-92650000D01*
X170557964Y-92650000D01*
X170564094Y-92712241D01*
X170582249Y-92772090D01*
X170611731Y-92827247D01*
X170651407Y-92875593D01*
X170699753Y-92915269D01*
X170754910Y-92944751D01*
X170814759Y-92962906D01*
X170825867Y-92964000D01*
X170814759Y-92965094D01*
X170754910Y-92983249D01*
X170699753Y-93012731D01*
X170651407Y-93052407D01*
X170611731Y-93100753D01*
X170582249Y-93155910D01*
X170564094Y-93215759D01*
X170557964Y-93278000D01*
X170559500Y-93710125D01*
X170638875Y-93789500D01*
X171513500Y-93789500D01*
X171513500Y-93039875D01*
X171437625Y-92964000D01*
X171513500Y-92888125D01*
X171513500Y-92138500D01*
X171640500Y-92138500D01*
X171640500Y-92888125D01*
X171716375Y-92964000D01*
X171640500Y-93039875D01*
X171640500Y-93789500D01*
X172515125Y-93789500D01*
X172594500Y-93710125D01*
X172596036Y-93278000D01*
X172589906Y-93215759D01*
X172571751Y-93155910D01*
X172542269Y-93100753D01*
X172502593Y-93052407D01*
X172454247Y-93012731D01*
X172399090Y-92983249D01*
X172339241Y-92965094D01*
X172328133Y-92964000D01*
X172339241Y-92962906D01*
X172399090Y-92944751D01*
X172454247Y-92915269D01*
X172502593Y-92875593D01*
X172542269Y-92827247D01*
X172571751Y-92772090D01*
X172589906Y-92712241D01*
X172596036Y-92650000D01*
X172594500Y-92217875D01*
X172515125Y-92138500D01*
X171640500Y-92138500D01*
X171513500Y-92138500D01*
X170638875Y-92138500D01*
X170559500Y-92217875D01*
X170557964Y-92650000D01*
X168953160Y-92650000D01*
X168954036Y-92475000D01*
X168949914Y-92433143D01*
X168961110Y-92419500D01*
X169605180Y-92419500D01*
X169627000Y-92421649D01*
X169648820Y-92419500D01*
X169648830Y-92419500D01*
X169714137Y-92413068D01*
X169797926Y-92387651D01*
X169875145Y-92346376D01*
X169942829Y-92290829D01*
X169956747Y-92273870D01*
X170558576Y-91672042D01*
X170559500Y-91932125D01*
X170638875Y-92011500D01*
X171513500Y-92011500D01*
X171513500Y-91261875D01*
X171640500Y-91261875D01*
X171640500Y-92011500D01*
X172515125Y-92011500D01*
X172594500Y-91932125D01*
X172596036Y-91500000D01*
X172589906Y-91437759D01*
X172571751Y-91377910D01*
X172542269Y-91322753D01*
X172502593Y-91274407D01*
X172454247Y-91234731D01*
X172399090Y-91205249D01*
X172339241Y-91187094D01*
X172277000Y-91180964D01*
X171719875Y-91182500D01*
X171640500Y-91261875D01*
X171513500Y-91261875D01*
X171434125Y-91182500D01*
X171049179Y-91181439D01*
X171310308Y-90920310D01*
X171377000Y-90926878D01*
X171456623Y-90919036D01*
X172027001Y-90919036D01*
X172138014Y-90908102D01*
X172244761Y-90875721D01*
X172343140Y-90823136D01*
X172429370Y-90752370D01*
X172500136Y-90666140D01*
X172552721Y-90567761D01*
X172585102Y-90461014D01*
X172596036Y-90350001D01*
X172596036Y-89699999D01*
X172585102Y-89588986D01*
X172552721Y-89482239D01*
X172500136Y-89383860D01*
X172429370Y-89297630D01*
X172343140Y-89226864D01*
X172293500Y-89200331D01*
X172293500Y-89014063D01*
X172322370Y-88990370D01*
X172393136Y-88904140D01*
X172445721Y-88805761D01*
X172478102Y-88699014D01*
X172489036Y-88588001D01*
X172489036Y-87687999D01*
X172478102Y-87576986D01*
X172445721Y-87470239D01*
X172393136Y-87371860D01*
X172322370Y-87285630D01*
X172236140Y-87214864D01*
X172137761Y-87162279D01*
X172103000Y-87151734D01*
X172103000Y-86275943D01*
X172105457Y-86250999D01*
X172101678Y-86212634D01*
X172095649Y-86151415D01*
X172066601Y-86055657D01*
X172035171Y-85996856D01*
X172019429Y-85967404D01*
X171971850Y-85909429D01*
X171955948Y-85890052D01*
X171936570Y-85874149D01*
X171318855Y-85256435D01*
X171302948Y-85237052D01*
X171225595Y-85173571D01*
X171137343Y-85126399D01*
X171041585Y-85097351D01*
X170966947Y-85090000D01*
X170966944Y-85090000D01*
X170942000Y-85087543D01*
X170917056Y-85090000D01*
X166072421Y-85090000D01*
X164846000Y-83863580D01*
X164846000Y-83310699D01*
X164895319Y-83261380D01*
X164973841Y-83143864D01*
X165027927Y-83013287D01*
X165055500Y-82874668D01*
X165055500Y-82733332D01*
X165027927Y-82594713D01*
X164973841Y-82464136D01*
X164895319Y-82346620D01*
X164795380Y-82246681D01*
X164677864Y-82168159D01*
X164547287Y-82114073D01*
X164408668Y-82086500D01*
X164267332Y-82086500D01*
X164128713Y-82114073D01*
X163998136Y-82168159D01*
X163893500Y-82238075D01*
X163893500Y-80434635D01*
X163933007Y-80422651D01*
X164010226Y-80381376D01*
X164077910Y-80325829D01*
X164091827Y-80308871D01*
X164509877Y-79890822D01*
X164526829Y-79876910D01*
X164557880Y-79839075D01*
X164582375Y-79809227D01*
X164582377Y-79809225D01*
X164623651Y-79732007D01*
X164649068Y-79648218D01*
X164655500Y-79582911D01*
X164655500Y-79582902D01*
X164657649Y-79561082D01*
X164655500Y-79539262D01*
X164655500Y-67748117D01*
X165677118Y-66726500D01*
X168450830Y-66726500D01*
X168455541Y-66726036D01*
X168679000Y-66726036D01*
X168741241Y-66719906D01*
X168801090Y-66701751D01*
X168856247Y-66672269D01*
X168887143Y-66646914D01*
X168929000Y-66651036D01*
X169236125Y-66649500D01*
X169315500Y-66570125D01*
X169315500Y-65595500D01*
X169295500Y-65595500D01*
X169295500Y-65468500D01*
X169315500Y-65468500D01*
X169315500Y-64493875D01*
X169236125Y-64414500D01*
X168929000Y-64412964D01*
X168887143Y-64417086D01*
X168856247Y-64391731D01*
X168801090Y-64362249D01*
X168741241Y-64344094D01*
X168679000Y-64337964D01*
X168455541Y-64337964D01*
X168450830Y-64337500D01*
X168109118Y-64337500D01*
X166923500Y-63151883D01*
X166923500Y-62727528D01*
X167021761Y-62697721D01*
X167120140Y-62645136D01*
X167206370Y-62574370D01*
X167277136Y-62488140D01*
X167312488Y-62422000D01*
X167634964Y-62422000D01*
X167641094Y-62484241D01*
X167659249Y-62544090D01*
X167688731Y-62599247D01*
X167728407Y-62647593D01*
X167776753Y-62687269D01*
X167831910Y-62716751D01*
X167891759Y-62734906D01*
X167954000Y-62741036D01*
X168386125Y-62739500D01*
X168465500Y-62660125D01*
X168465500Y-61785500D01*
X168592500Y-61785500D01*
X168592500Y-62660125D01*
X168671875Y-62739500D01*
X169104000Y-62741036D01*
X169166241Y-62734906D01*
X169226090Y-62716751D01*
X169281247Y-62687269D01*
X169329593Y-62647593D01*
X169369269Y-62599247D01*
X169398751Y-62544090D01*
X169416906Y-62484241D01*
X169418000Y-62473133D01*
X169419094Y-62484241D01*
X169437249Y-62544090D01*
X169466731Y-62599247D01*
X169506407Y-62647593D01*
X169554753Y-62687269D01*
X169609910Y-62716751D01*
X169669759Y-62734906D01*
X169732000Y-62741036D01*
X170164125Y-62739500D01*
X170243500Y-62660125D01*
X170243500Y-61785500D01*
X170370500Y-61785500D01*
X170370500Y-62660125D01*
X170449875Y-62739500D01*
X170882000Y-62741036D01*
X170944241Y-62734906D01*
X171004090Y-62716751D01*
X171059247Y-62687269D01*
X171107593Y-62647593D01*
X171147269Y-62599247D01*
X171176751Y-62544090D01*
X171194906Y-62484241D01*
X171201036Y-62422000D01*
X171199500Y-61864875D01*
X171120125Y-61785500D01*
X170370500Y-61785500D01*
X170243500Y-61785500D01*
X169493875Y-61785500D01*
X169418000Y-61861375D01*
X169342125Y-61785500D01*
X168592500Y-61785500D01*
X168465500Y-61785500D01*
X167715875Y-61785500D01*
X167636500Y-61864875D01*
X167634964Y-62422000D01*
X167312488Y-62422000D01*
X167329721Y-62389761D01*
X167362102Y-62283014D01*
X167373036Y-62172001D01*
X167373036Y-61271999D01*
X167362102Y-61160986D01*
X167329721Y-61054239D01*
X167312489Y-61022000D01*
X167634964Y-61022000D01*
X167636500Y-61579125D01*
X167715875Y-61658500D01*
X168465500Y-61658500D01*
X168465500Y-60783875D01*
X168592500Y-60783875D01*
X168592500Y-61658500D01*
X169342125Y-61658500D01*
X169418000Y-61582625D01*
X169493875Y-61658500D01*
X170243500Y-61658500D01*
X170243500Y-60783875D01*
X170370500Y-60783875D01*
X170370500Y-61658500D01*
X171120125Y-61658500D01*
X171199500Y-61579125D01*
X171201036Y-61022000D01*
X171194906Y-60959759D01*
X171176751Y-60899910D01*
X171147269Y-60844753D01*
X171107593Y-60796407D01*
X171059247Y-60756731D01*
X171004090Y-60727249D01*
X170944241Y-60709094D01*
X170882000Y-60702964D01*
X170449875Y-60704500D01*
X170370500Y-60783875D01*
X170243500Y-60783875D01*
X170164125Y-60704500D01*
X169732000Y-60702964D01*
X169669759Y-60709094D01*
X169609910Y-60727249D01*
X169554753Y-60756731D01*
X169506407Y-60796407D01*
X169466731Y-60844753D01*
X169437249Y-60899910D01*
X169419094Y-60959759D01*
X169418000Y-60970867D01*
X169416906Y-60959759D01*
X169398751Y-60899910D01*
X169369269Y-60844753D01*
X169329593Y-60796407D01*
X169281247Y-60756731D01*
X169226090Y-60727249D01*
X169166241Y-60709094D01*
X169104000Y-60702964D01*
X168671875Y-60704500D01*
X168592500Y-60783875D01*
X168465500Y-60783875D01*
X168386125Y-60704500D01*
X167954000Y-60702964D01*
X167891759Y-60709094D01*
X167831910Y-60727249D01*
X167776753Y-60756731D01*
X167728407Y-60796407D01*
X167688731Y-60844753D01*
X167659249Y-60899910D01*
X167641094Y-60959759D01*
X167634964Y-61022000D01*
X167312489Y-61022000D01*
X167277136Y-60955860D01*
X167206370Y-60869630D01*
X167120140Y-60798864D01*
X167021761Y-60746279D01*
X166915014Y-60713898D01*
X166804001Y-60702964D01*
X166153999Y-60702964D01*
X166042986Y-60713898D01*
X165936239Y-60746279D01*
X165837860Y-60798864D01*
X165751630Y-60869630D01*
X165729579Y-60896500D01*
X165214063Y-60896500D01*
X165190370Y-60867630D01*
X165104140Y-60796864D01*
X165005761Y-60744279D01*
X164899014Y-60711898D01*
X164788001Y-60700964D01*
X163893500Y-60700964D01*
X163893500Y-58483500D01*
X173164500Y-58483500D01*
X173164500Y-60973379D01*
G37*
X173164500Y-60973379D02*
X173155136Y-60955860D01*
X173084370Y-60869630D01*
X172998140Y-60798864D01*
X172899761Y-60746279D01*
X172793014Y-60713898D01*
X172682001Y-60702964D01*
X172031999Y-60702964D01*
X171920986Y-60713898D01*
X171814239Y-60746279D01*
X171715860Y-60798864D01*
X171629630Y-60869630D01*
X171558864Y-60955860D01*
X171506279Y-61054239D01*
X171473898Y-61160986D01*
X171462964Y-61271999D01*
X171462964Y-62172001D01*
X171473898Y-62283014D01*
X171498024Y-62362548D01*
X169891827Y-63968746D01*
X169826410Y-64048456D01*
X169761550Y-64169801D01*
X169721609Y-64301470D01*
X169710570Y-64413556D01*
X169521875Y-64414500D01*
X169442500Y-64493875D01*
X169442500Y-65468500D01*
X169462500Y-65468500D01*
X169462500Y-65595500D01*
X169442500Y-65595500D01*
X169442500Y-66570125D01*
X169521875Y-66649500D01*
X169829000Y-66651036D01*
X169870529Y-66646946D01*
X169906937Y-66675660D01*
X169962656Y-66704066D01*
X170022846Y-66721055D01*
X170085194Y-66725976D01*
X170186125Y-66724500D01*
X170265500Y-66645125D01*
X170265500Y-66343500D01*
X170245500Y-66343500D01*
X170245500Y-66226036D01*
X170302459Y-66226036D01*
X170307170Y-66226500D01*
X170412500Y-66226500D01*
X170412500Y-66343500D01*
X170392500Y-66343500D01*
X170392500Y-66645125D01*
X170471875Y-66724500D01*
X170572806Y-66725976D01*
X170635154Y-66721055D01*
X170695344Y-66704066D01*
X170751063Y-66675660D01*
X170800170Y-66636930D01*
X170840777Y-66589364D01*
X170871325Y-66534789D01*
X170890638Y-66475304D01*
X170892023Y-66462915D01*
X170933057Y-66496591D01*
X171054403Y-66561452D01*
X171186070Y-66601393D01*
X171288691Y-66611500D01*
X173828702Y-66611500D01*
X173863000Y-66614878D01*
X173897298Y-66611500D01*
X173897309Y-66611500D01*
X173926500Y-66608625D01*
X173926500Y-96456500D01*
X172546981Y-96456500D01*
X172552721Y-96445761D01*
X172585102Y-96339014D01*
X172596036Y-96228001D01*
X172596036Y-95577999D01*
X172585102Y-95466986D01*
X172552721Y-95360239D01*
X172500136Y-95261860D01*
X172429370Y-95175630D01*
X172343140Y-95104864D01*
X172244761Y-95052279D01*
X172138014Y-95019898D01*
X172027001Y-95008964D01*
X171126999Y-95008964D01*
X171015986Y-95019898D01*
X170909239Y-95052279D01*
X170888305Y-95063468D01*
X170252837Y-94428000D01*
X170557964Y-94428000D01*
X170564094Y-94490241D01*
X170582249Y-94550090D01*
X170611731Y-94605247D01*
X170651407Y-94653593D01*
X170699753Y-94693269D01*
X170754910Y-94722751D01*
X170814759Y-94740906D01*
X170877000Y-94747036D01*
X171434125Y-94745500D01*
X171513500Y-94666125D01*
X171513500Y-93916500D01*
X171640500Y-93916500D01*
X171640500Y-94666125D01*
X171719875Y-94745500D01*
X172277000Y-94747036D01*
X172339241Y-94740906D01*
X172399090Y-94722751D01*
X172454247Y-94693269D01*
X172502593Y-94653593D01*
X172542269Y-94605247D01*
X172571751Y-94550090D01*
X172589906Y-94490241D01*
X172596036Y-94428000D01*
X172594500Y-93995875D01*
X172515125Y-93916500D01*
X171640500Y-93916500D01*
X171513500Y-93916500D01*
X170638875Y-93916500D01*
X170559500Y-93995875D01*
X170557964Y-94428000D01*
X170252837Y-94428000D01*
X169262663Y-93437827D01*
X169182953Y-93372410D01*
X169061608Y-93307550D01*
X168953535Y-93274767D01*
X168952500Y-93067875D01*
X168873125Y-92988500D01*
X167898500Y-92988500D01*
X167898500Y-93008500D01*
X167771500Y-93008500D01*
X167771500Y-92988500D01*
X166796875Y-92988500D01*
X166717500Y-93067875D01*
X166715964Y-93375000D01*
X166720054Y-93416529D01*
X166691340Y-93452937D01*
X166662934Y-93508656D01*
X166645945Y-93568846D01*
X166641024Y-93631194D01*
X166642500Y-93732125D01*
X166721875Y-93811500D01*
X167023500Y-93811500D01*
X167023500Y-93791500D01*
X167140964Y-93791500D01*
X167140964Y-93848460D01*
X167140500Y-93853171D01*
X167140500Y-93958500D01*
X167023500Y-93958500D01*
X167023500Y-93938500D01*
X166721875Y-93938500D01*
X166642500Y-94017875D01*
X166641024Y-94118806D01*
X166645945Y-94181154D01*
X166662934Y-94241344D01*
X166691340Y-94297063D01*
X166730070Y-94346170D01*
X166732987Y-94348660D01*
X166703698Y-94372697D01*
X166616410Y-94479057D01*
X166551549Y-94600403D01*
X166511608Y-94732070D01*
X166501501Y-94834691D01*
X166501500Y-96456500D01*
X165164588Y-96456500D01*
X165069068Y-96437500D01*
X164927732Y-96437500D01*
X164832212Y-96456500D01*
X163893500Y-96456500D01*
X163893500Y-87052118D01*
X165485501Y-88644119D01*
X165485500Y-91177180D01*
X165483351Y-91199000D01*
X165485500Y-91220820D01*
X165485500Y-91220829D01*
X165491932Y-91286136D01*
X165503040Y-91322753D01*
X165517349Y-91369925D01*
X165558624Y-91447145D01*
X165591230Y-91486875D01*
X165614171Y-91514829D01*
X165631129Y-91528746D01*
X166376258Y-92273876D01*
X166390171Y-92290829D01*
X166407124Y-92304742D01*
X166407127Y-92304745D01*
X166457854Y-92346376D01*
X166501028Y-92369453D01*
X166535074Y-92387651D01*
X166618863Y-92413068D01*
X166684170Y-92419500D01*
X166684180Y-92419500D01*
X166706000Y-92421649D01*
X166710306Y-92421225D01*
X166720086Y-92433143D01*
X166715964Y-92475000D01*
X166717500Y-92782125D01*
X166796875Y-92861500D01*
X167771500Y-92861500D01*
X167771500Y-92841500D01*
X167898500Y-92841500D01*
X167898500Y-92861500D01*
X168873125Y-92861500D01*
X168952500Y-92782125D01*
X168953160Y-92650000D01*
X170557964Y-92650000D01*
X170564094Y-92712241D01*
X170582249Y-92772090D01*
X170611731Y-92827247D01*
X170651407Y-92875593D01*
X170699753Y-92915269D01*
X170754910Y-92944751D01*
X170814759Y-92962906D01*
X170825867Y-92964000D01*
X170814759Y-92965094D01*
X170754910Y-92983249D01*
X170699753Y-93012731D01*
X170651407Y-93052407D01*
X170611731Y-93100753D01*
X170582249Y-93155910D01*
X170564094Y-93215759D01*
X170557964Y-93278000D01*
X170559500Y-93710125D01*
X170638875Y-93789500D01*
X171513500Y-93789500D01*
X171513500Y-93039875D01*
X171437625Y-92964000D01*
X171513500Y-92888125D01*
X171513500Y-92138500D01*
X171640500Y-92138500D01*
X171640500Y-92888125D01*
X171716375Y-92964000D01*
X171640500Y-93039875D01*
X171640500Y-93789500D01*
X172515125Y-93789500D01*
X172594500Y-93710125D01*
X172596036Y-93278000D01*
X172589906Y-93215759D01*
X172571751Y-93155910D01*
X172542269Y-93100753D01*
X172502593Y-93052407D01*
X172454247Y-93012731D01*
X172399090Y-92983249D01*
X172339241Y-92965094D01*
X172328133Y-92964000D01*
X172339241Y-92962906D01*
X172399090Y-92944751D01*
X172454247Y-92915269D01*
X172502593Y-92875593D01*
X172542269Y-92827247D01*
X172571751Y-92772090D01*
X172589906Y-92712241D01*
X172596036Y-92650000D01*
X172594500Y-92217875D01*
X172515125Y-92138500D01*
X171640500Y-92138500D01*
X171513500Y-92138500D01*
X170638875Y-92138500D01*
X170559500Y-92217875D01*
X170557964Y-92650000D01*
X168953160Y-92650000D01*
X168954036Y-92475000D01*
X168949914Y-92433143D01*
X168961110Y-92419500D01*
X169605180Y-92419500D01*
X169627000Y-92421649D01*
X169648820Y-92419500D01*
X169648830Y-92419500D01*
X169714137Y-92413068D01*
X169797926Y-92387651D01*
X169875145Y-92346376D01*
X169942829Y-92290829D01*
X169956747Y-92273870D01*
X170558576Y-91672042D01*
X170559500Y-91932125D01*
X170638875Y-92011500D01*
X171513500Y-92011500D01*
X171513500Y-91261875D01*
X171640500Y-91261875D01*
X171640500Y-92011500D01*
X172515125Y-92011500D01*
X172594500Y-91932125D01*
X172596036Y-91500000D01*
X172589906Y-91437759D01*
X172571751Y-91377910D01*
X172542269Y-91322753D01*
X172502593Y-91274407D01*
X172454247Y-91234731D01*
X172399090Y-91205249D01*
X172339241Y-91187094D01*
X172277000Y-91180964D01*
X171719875Y-91182500D01*
X171640500Y-91261875D01*
X171513500Y-91261875D01*
X171434125Y-91182500D01*
X171049179Y-91181439D01*
X171310308Y-90920310D01*
X171377000Y-90926878D01*
X171456623Y-90919036D01*
X172027001Y-90919036D01*
X172138014Y-90908102D01*
X172244761Y-90875721D01*
X172343140Y-90823136D01*
X172429370Y-90752370D01*
X172500136Y-90666140D01*
X172552721Y-90567761D01*
X172585102Y-90461014D01*
X172596036Y-90350001D01*
X172596036Y-89699999D01*
X172585102Y-89588986D01*
X172552721Y-89482239D01*
X172500136Y-89383860D01*
X172429370Y-89297630D01*
X172343140Y-89226864D01*
X172293500Y-89200331D01*
X172293500Y-89014063D01*
X172322370Y-88990370D01*
X172393136Y-88904140D01*
X172445721Y-88805761D01*
X172478102Y-88699014D01*
X172489036Y-88588001D01*
X172489036Y-87687999D01*
X172478102Y-87576986D01*
X172445721Y-87470239D01*
X172393136Y-87371860D01*
X172322370Y-87285630D01*
X172236140Y-87214864D01*
X172137761Y-87162279D01*
X172103000Y-87151734D01*
X172103000Y-86275943D01*
X172105457Y-86250999D01*
X172101678Y-86212634D01*
X172095649Y-86151415D01*
X172066601Y-86055657D01*
X172035171Y-85996856D01*
X172019429Y-85967404D01*
X171971850Y-85909429D01*
X171955948Y-85890052D01*
X171936570Y-85874149D01*
X171318855Y-85256435D01*
X171302948Y-85237052D01*
X171225595Y-85173571D01*
X171137343Y-85126399D01*
X171041585Y-85097351D01*
X170966947Y-85090000D01*
X170966944Y-85090000D01*
X170942000Y-85087543D01*
X170917056Y-85090000D01*
X166072421Y-85090000D01*
X164846000Y-83863580D01*
X164846000Y-83310699D01*
X164895319Y-83261380D01*
X164973841Y-83143864D01*
X165027927Y-83013287D01*
X165055500Y-82874668D01*
X165055500Y-82733332D01*
X165027927Y-82594713D01*
X164973841Y-82464136D01*
X164895319Y-82346620D01*
X164795380Y-82246681D01*
X164677864Y-82168159D01*
X164547287Y-82114073D01*
X164408668Y-82086500D01*
X164267332Y-82086500D01*
X164128713Y-82114073D01*
X163998136Y-82168159D01*
X163893500Y-82238075D01*
X163893500Y-80434635D01*
X163933007Y-80422651D01*
X164010226Y-80381376D01*
X164077910Y-80325829D01*
X164091827Y-80308871D01*
X164509877Y-79890822D01*
X164526829Y-79876910D01*
X164557880Y-79839075D01*
X164582375Y-79809227D01*
X164582377Y-79809225D01*
X164623651Y-79732007D01*
X164649068Y-79648218D01*
X164655500Y-79582911D01*
X164655500Y-79582902D01*
X164657649Y-79561082D01*
X164655500Y-79539262D01*
X164655500Y-67748117D01*
X165677118Y-66726500D01*
X168450830Y-66726500D01*
X168455541Y-66726036D01*
X168679000Y-66726036D01*
X168741241Y-66719906D01*
X168801090Y-66701751D01*
X168856247Y-66672269D01*
X168887143Y-66646914D01*
X168929000Y-66651036D01*
X169236125Y-66649500D01*
X169315500Y-66570125D01*
X169315500Y-65595500D01*
X169295500Y-65595500D01*
X169295500Y-65468500D01*
X169315500Y-65468500D01*
X169315500Y-64493875D01*
X169236125Y-64414500D01*
X168929000Y-64412964D01*
X168887143Y-64417086D01*
X168856247Y-64391731D01*
X168801090Y-64362249D01*
X168741241Y-64344094D01*
X168679000Y-64337964D01*
X168455541Y-64337964D01*
X168450830Y-64337500D01*
X168109118Y-64337500D01*
X166923500Y-63151883D01*
X166923500Y-62727528D01*
X167021761Y-62697721D01*
X167120140Y-62645136D01*
X167206370Y-62574370D01*
X167277136Y-62488140D01*
X167312488Y-62422000D01*
X167634964Y-62422000D01*
X167641094Y-62484241D01*
X167659249Y-62544090D01*
X167688731Y-62599247D01*
X167728407Y-62647593D01*
X167776753Y-62687269D01*
X167831910Y-62716751D01*
X167891759Y-62734906D01*
X167954000Y-62741036D01*
X168386125Y-62739500D01*
X168465500Y-62660125D01*
X168465500Y-61785500D01*
X168592500Y-61785500D01*
X168592500Y-62660125D01*
X168671875Y-62739500D01*
X169104000Y-62741036D01*
X169166241Y-62734906D01*
X169226090Y-62716751D01*
X169281247Y-62687269D01*
X169329593Y-62647593D01*
X169369269Y-62599247D01*
X169398751Y-62544090D01*
X169416906Y-62484241D01*
X169418000Y-62473133D01*
X169419094Y-62484241D01*
X169437249Y-62544090D01*
X169466731Y-62599247D01*
X169506407Y-62647593D01*
X169554753Y-62687269D01*
X169609910Y-62716751D01*
X169669759Y-62734906D01*
X169732000Y-62741036D01*
X170164125Y-62739500D01*
X170243500Y-62660125D01*
X170243500Y-61785500D01*
X170370500Y-61785500D01*
X170370500Y-62660125D01*
X170449875Y-62739500D01*
X170882000Y-62741036D01*
X170944241Y-62734906D01*
X171004090Y-62716751D01*
X171059247Y-62687269D01*
X171107593Y-62647593D01*
X171147269Y-62599247D01*
X171176751Y-62544090D01*
X171194906Y-62484241D01*
X171201036Y-62422000D01*
X171199500Y-61864875D01*
X171120125Y-61785500D01*
X170370500Y-61785500D01*
X170243500Y-61785500D01*
X169493875Y-61785500D01*
X169418000Y-61861375D01*
X169342125Y-61785500D01*
X168592500Y-61785500D01*
X168465500Y-61785500D01*
X167715875Y-61785500D01*
X167636500Y-61864875D01*
X167634964Y-62422000D01*
X167312488Y-62422000D01*
X167329721Y-62389761D01*
X167362102Y-62283014D01*
X167373036Y-62172001D01*
X167373036Y-61271999D01*
X167362102Y-61160986D01*
X167329721Y-61054239D01*
X167312489Y-61022000D01*
X167634964Y-61022000D01*
X167636500Y-61579125D01*
X167715875Y-61658500D01*
X168465500Y-61658500D01*
X168465500Y-60783875D01*
X168592500Y-60783875D01*
X168592500Y-61658500D01*
X169342125Y-61658500D01*
X169418000Y-61582625D01*
X169493875Y-61658500D01*
X170243500Y-61658500D01*
X170243500Y-60783875D01*
X170370500Y-60783875D01*
X170370500Y-61658500D01*
X171120125Y-61658500D01*
X171199500Y-61579125D01*
X171201036Y-61022000D01*
X171194906Y-60959759D01*
X171176751Y-60899910D01*
X171147269Y-60844753D01*
X171107593Y-60796407D01*
X171059247Y-60756731D01*
X171004090Y-60727249D01*
X170944241Y-60709094D01*
X170882000Y-60702964D01*
X170449875Y-60704500D01*
X170370500Y-60783875D01*
X170243500Y-60783875D01*
X170164125Y-60704500D01*
X169732000Y-60702964D01*
X169669759Y-60709094D01*
X169609910Y-60727249D01*
X169554753Y-60756731D01*
X169506407Y-60796407D01*
X169466731Y-60844753D01*
X169437249Y-60899910D01*
X169419094Y-60959759D01*
X169418000Y-60970867D01*
X169416906Y-60959759D01*
X169398751Y-60899910D01*
X169369269Y-60844753D01*
X169329593Y-60796407D01*
X169281247Y-60756731D01*
X169226090Y-60727249D01*
X169166241Y-60709094D01*
X169104000Y-60702964D01*
X168671875Y-60704500D01*
X168592500Y-60783875D01*
X168465500Y-60783875D01*
X168386125Y-60704500D01*
X167954000Y-60702964D01*
X167891759Y-60709094D01*
X167831910Y-60727249D01*
X167776753Y-60756731D01*
X167728407Y-60796407D01*
X167688731Y-60844753D01*
X167659249Y-60899910D01*
X167641094Y-60959759D01*
X167634964Y-61022000D01*
X167312489Y-61022000D01*
X167277136Y-60955860D01*
X167206370Y-60869630D01*
X167120140Y-60798864D01*
X167021761Y-60746279D01*
X166915014Y-60713898D01*
X166804001Y-60702964D01*
X166153999Y-60702964D01*
X166042986Y-60713898D01*
X165936239Y-60746279D01*
X165837860Y-60798864D01*
X165751630Y-60869630D01*
X165729579Y-60896500D01*
X165214063Y-60896500D01*
X165190370Y-60867630D01*
X165104140Y-60796864D01*
X165005761Y-60744279D01*
X164899014Y-60711898D01*
X164788001Y-60700964D01*
X163893500Y-60700964D01*
X163893500Y-58483500D01*
X173164500Y-58483500D01*
X173164500Y-60973379D01*
G36*
X163913571Y-84357595D02*
G01*
X163977052Y-84434948D01*
X163996435Y-84450855D01*
X165485149Y-85939570D01*
X165501052Y-85958948D01*
X165520429Y-85974850D01*
X165578404Y-86022429D01*
X165666655Y-86069600D01*
X165666657Y-86069601D01*
X165762415Y-86098649D01*
X165837053Y-86106000D01*
X165837055Y-86106000D01*
X165861999Y-86108457D01*
X165886943Y-86106000D01*
X170731580Y-86106000D01*
X171087001Y-86461422D01*
X171087001Y-87151734D01*
X171052239Y-87162279D01*
X170953860Y-87214864D01*
X170867630Y-87285630D01*
X170796864Y-87371860D01*
X170744279Y-87470239D01*
X170711898Y-87576986D01*
X170700964Y-87687999D01*
X170700964Y-88588001D01*
X170711898Y-88699014D01*
X170744279Y-88805761D01*
X170796864Y-88904140D01*
X170867630Y-88990370D01*
X170896500Y-89014063D01*
X170896501Y-89181088D01*
X170810860Y-89226864D01*
X170724630Y-89297630D01*
X170653864Y-89383860D01*
X170601279Y-89482239D01*
X170568898Y-89588986D01*
X170557964Y-89699999D01*
X170557964Y-90350001D01*
X170563829Y-90409553D01*
X169442883Y-91530500D01*
X168961110Y-91530500D01*
X168935593Y-91499407D01*
X168887247Y-91459731D01*
X168832090Y-91430249D01*
X168772241Y-91412094D01*
X168710000Y-91405964D01*
X168529500Y-91405964D01*
X168529500Y-89207117D01*
X168785454Y-88951163D01*
X168817630Y-88990370D01*
X168903860Y-89061136D01*
X169002239Y-89113721D01*
X169108986Y-89146102D01*
X169219999Y-89157036D01*
X169870001Y-89157036D01*
X169981014Y-89146102D01*
X170087761Y-89113721D01*
X170186140Y-89061136D01*
X170272370Y-88990370D01*
X170343136Y-88904140D01*
X170395721Y-88805761D01*
X170428102Y-88699014D01*
X170439036Y-88588001D01*
X170439036Y-87687999D01*
X170428102Y-87576986D01*
X170395721Y-87470239D01*
X170343136Y-87371860D01*
X170272370Y-87285630D01*
X170186140Y-87214864D01*
X170087761Y-87162279D01*
X169981014Y-87129898D01*
X169870001Y-87118964D01*
X169219999Y-87118964D01*
X169108986Y-87129898D01*
X169002239Y-87162279D01*
X168903860Y-87214864D01*
X168817630Y-87285630D01*
X168746864Y-87371860D01*
X168694279Y-87470239D01*
X168661898Y-87576986D01*
X168650964Y-87687999D01*
X168650964Y-87826079D01*
X168640258Y-87839124D01*
X167786125Y-88693258D01*
X167769172Y-88707171D01*
X167755259Y-88724124D01*
X167755255Y-88724128D01*
X167713624Y-88774855D01*
X167672349Y-88852075D01*
X167646933Y-88935863D01*
X167638351Y-89023000D01*
X167640501Y-89044830D01*
X167640500Y-91996829D01*
X167640964Y-92001540D01*
X167640964Y-92058500D01*
X167529036Y-92058500D01*
X167529036Y-92001541D01*
X167531650Y-91975000D01*
X167529036Y-91948459D01*
X167529036Y-91725000D01*
X167523500Y-91668790D01*
X167523500Y-91486875D01*
X167444125Y-91407500D01*
X167391696Y-91413362D01*
X167334959Y-91431783D01*
X167332090Y-91430249D01*
X167272241Y-91412094D01*
X167210000Y-91405964D01*
X166960000Y-91405964D01*
X166897759Y-91412094D01*
X166837910Y-91430249D01*
X166806601Y-91446984D01*
X166374500Y-91014883D01*
X166374500Y-88481820D01*
X166376649Y-88460000D01*
X166374500Y-88438180D01*
X166374500Y-88438170D01*
X166368068Y-88372863D01*
X166342651Y-88289074D01*
X166301376Y-88211854D01*
X166259745Y-88161127D01*
X166259742Y-88161124D01*
X166245829Y-88144171D01*
X166228876Y-88130258D01*
X163893500Y-85794882D01*
X163893500Y-84320045D01*
X163913571Y-84357595D01*
G37*
X163913571Y-84357595D02*
X163977052Y-84434948D01*
X163996435Y-84450855D01*
X165485149Y-85939570D01*
X165501052Y-85958948D01*
X165520429Y-85974850D01*
X165578404Y-86022429D01*
X165666655Y-86069600D01*
X165666657Y-86069601D01*
X165762415Y-86098649D01*
X165837053Y-86106000D01*
X165837055Y-86106000D01*
X165861999Y-86108457D01*
X165886943Y-86106000D01*
X170731580Y-86106000D01*
X171087001Y-86461422D01*
X171087001Y-87151734D01*
X171052239Y-87162279D01*
X170953860Y-87214864D01*
X170867630Y-87285630D01*
X170796864Y-87371860D01*
X170744279Y-87470239D01*
X170711898Y-87576986D01*
X170700964Y-87687999D01*
X170700964Y-88588001D01*
X170711898Y-88699014D01*
X170744279Y-88805761D01*
X170796864Y-88904140D01*
X170867630Y-88990370D01*
X170896500Y-89014063D01*
X170896501Y-89181088D01*
X170810860Y-89226864D01*
X170724630Y-89297630D01*
X170653864Y-89383860D01*
X170601279Y-89482239D01*
X170568898Y-89588986D01*
X170557964Y-89699999D01*
X170557964Y-90350001D01*
X170563829Y-90409553D01*
X169442883Y-91530500D01*
X168961110Y-91530500D01*
X168935593Y-91499407D01*
X168887247Y-91459731D01*
X168832090Y-91430249D01*
X168772241Y-91412094D01*
X168710000Y-91405964D01*
X168529500Y-91405964D01*
X168529500Y-89207117D01*
X168785454Y-88951163D01*
X168817630Y-88990370D01*
X168903860Y-89061136D01*
X169002239Y-89113721D01*
X169108986Y-89146102D01*
X169219999Y-89157036D01*
X169870001Y-89157036D01*
X169981014Y-89146102D01*
X170087761Y-89113721D01*
X170186140Y-89061136D01*
X170272370Y-88990370D01*
X170343136Y-88904140D01*
X170395721Y-88805761D01*
X170428102Y-88699014D01*
X170439036Y-88588001D01*
X170439036Y-87687999D01*
X170428102Y-87576986D01*
X170395721Y-87470239D01*
X170343136Y-87371860D01*
X170272370Y-87285630D01*
X170186140Y-87214864D01*
X170087761Y-87162279D01*
X169981014Y-87129898D01*
X169870001Y-87118964D01*
X169219999Y-87118964D01*
X169108986Y-87129898D01*
X169002239Y-87162279D01*
X168903860Y-87214864D01*
X168817630Y-87285630D01*
X168746864Y-87371860D01*
X168694279Y-87470239D01*
X168661898Y-87576986D01*
X168650964Y-87687999D01*
X168650964Y-87826079D01*
X168640258Y-87839124D01*
X167786125Y-88693258D01*
X167769172Y-88707171D01*
X167755259Y-88724124D01*
X167755255Y-88724128D01*
X167713624Y-88774855D01*
X167672349Y-88852075D01*
X167646933Y-88935863D01*
X167638351Y-89023000D01*
X167640501Y-89044830D01*
X167640500Y-91996829D01*
X167640964Y-92001540D01*
X167640964Y-92058500D01*
X167529036Y-92058500D01*
X167529036Y-92001541D01*
X167531650Y-91975000D01*
X167529036Y-91948459D01*
X167529036Y-91725000D01*
X167523500Y-91668790D01*
X167523500Y-91486875D01*
X167444125Y-91407500D01*
X167391696Y-91413362D01*
X167334959Y-91431783D01*
X167332090Y-91430249D01*
X167272241Y-91412094D01*
X167210000Y-91405964D01*
X166960000Y-91405964D01*
X166897759Y-91412094D01*
X166837910Y-91430249D01*
X166806601Y-91446984D01*
X166374500Y-91014883D01*
X166374500Y-88481820D01*
X166376649Y-88460000D01*
X166374500Y-88438180D01*
X166374500Y-88438170D01*
X166368068Y-88372863D01*
X166342651Y-88289074D01*
X166301376Y-88211854D01*
X166259745Y-88161127D01*
X166259742Y-88161124D01*
X166245829Y-88144171D01*
X166228876Y-88130258D01*
X163893500Y-85794882D01*
X163893500Y-84320045D01*
X163913571Y-84357595D01*
G36*
X164039129Y-64549747D02*
G01*
X165070258Y-65580876D01*
X165084171Y-65597829D01*
X165101124Y-65611742D01*
X165101127Y-65611745D01*
X165151854Y-65653376D01*
X165192076Y-65674875D01*
X165229074Y-65694651D01*
X165312863Y-65720068D01*
X165378170Y-65726500D01*
X165378180Y-65726500D01*
X165400000Y-65728649D01*
X165421820Y-65726500D01*
X168450830Y-65726500D01*
X168455541Y-65726036D01*
X168512500Y-65726036D01*
X168512500Y-65837964D01*
X168455541Y-65837964D01*
X168450830Y-65837500D01*
X165514820Y-65837500D01*
X165493000Y-65835351D01*
X165471180Y-65837500D01*
X165471170Y-65837500D01*
X165405863Y-65843932D01*
X165345480Y-65862249D01*
X165322074Y-65869349D01*
X165244854Y-65910624D01*
X165194127Y-65952255D01*
X165194124Y-65952258D01*
X165177171Y-65966171D01*
X165163258Y-65983124D01*
X163912125Y-67234258D01*
X163895172Y-67248171D01*
X163893500Y-67250208D01*
X163893500Y-64539036D01*
X164026079Y-64539036D01*
X164039129Y-64549747D01*
G37*
X164039129Y-64549747D02*
X165070258Y-65580876D01*
X165084171Y-65597829D01*
X165101124Y-65611742D01*
X165101127Y-65611745D01*
X165151854Y-65653376D01*
X165192076Y-65674875D01*
X165229074Y-65694651D01*
X165312863Y-65720068D01*
X165378170Y-65726500D01*
X165378180Y-65726500D01*
X165400000Y-65728649D01*
X165421820Y-65726500D01*
X168450830Y-65726500D01*
X168455541Y-65726036D01*
X168512500Y-65726036D01*
X168512500Y-65837964D01*
X168455541Y-65837964D01*
X168450830Y-65837500D01*
X165514820Y-65837500D01*
X165493000Y-65835351D01*
X165471180Y-65837500D01*
X165471170Y-65837500D01*
X165405863Y-65843932D01*
X165345480Y-65862249D01*
X165322074Y-65869349D01*
X165244854Y-65910624D01*
X165194127Y-65952255D01*
X165194124Y-65952258D01*
X165177171Y-65966171D01*
X165163258Y-65983124D01*
X163912125Y-67234258D01*
X163895172Y-67248171D01*
X163893500Y-67250208D01*
X163893500Y-64539036D01*
X164026079Y-64539036D01*
X164039129Y-64549747D01*
G36*
X135851900Y-61659159D02*
G01*
X135851901Y-62728073D01*
X135402173Y-62278346D01*
X135380302Y-62251696D01*
X135273942Y-62164408D01*
X135152596Y-62099547D01*
X135020929Y-62059606D01*
X134918308Y-62049499D01*
X134918297Y-62049499D01*
X134883999Y-62046121D01*
X134849701Y-62049499D01*
X134242036Y-62049499D01*
X134242036Y-62013999D01*
X134231102Y-61902986D01*
X134198721Y-61796239D01*
X134146136Y-61697860D01*
X134075370Y-61611630D01*
X133989140Y-61540864D01*
X133890761Y-61488279D01*
X133784014Y-61455898D01*
X133673001Y-61444964D01*
X132772999Y-61444964D01*
X132661986Y-61455898D01*
X132555239Y-61488279D01*
X132514767Y-61509912D01*
X132461841Y-61382136D01*
X132383319Y-61264620D01*
X132283380Y-61164681D01*
X132165864Y-61086159D01*
X132035287Y-61032073D01*
X131896668Y-61004500D01*
X131755332Y-61004500D01*
X131616713Y-61032073D01*
X131486136Y-61086159D01*
X131368620Y-61164681D01*
X131268681Y-61264620D01*
X131190159Y-61382136D01*
X131136073Y-61512713D01*
X131108500Y-61651332D01*
X131108500Y-61792668D01*
X131136073Y-61931287D01*
X131190159Y-62061864D01*
X131268681Y-62179380D01*
X131318001Y-62228700D01*
X131318000Y-67666056D01*
X131315543Y-67691000D01*
X131318000Y-67715944D01*
X131318000Y-67715946D01*
X131325351Y-67790584D01*
X131354399Y-67886342D01*
X131401571Y-67974595D01*
X131465052Y-68051948D01*
X131484435Y-68067855D01*
X131966149Y-68549570D01*
X131982052Y-68568948D01*
X132001429Y-68584850D01*
X132059404Y-68632429D01*
X132100975Y-68654649D01*
X132147657Y-68679601D01*
X132233602Y-68705672D01*
X132247279Y-68750761D01*
X132299864Y-68849140D01*
X132370630Y-68935370D01*
X132456860Y-69006136D01*
X132524500Y-69042291D01*
X132524501Y-69354937D01*
X132495630Y-69378630D01*
X132424864Y-69464860D01*
X132372279Y-69563239D01*
X132339898Y-69669986D01*
X132328964Y-69780999D01*
X132328964Y-70681001D01*
X132339898Y-70792014D01*
X132372279Y-70898761D01*
X132424864Y-70997140D01*
X132495630Y-71083370D01*
X132581860Y-71154136D01*
X132680239Y-71206721D01*
X132786986Y-71239102D01*
X132897999Y-71250036D01*
X133548001Y-71250036D01*
X133659014Y-71239102D01*
X133765761Y-71206721D01*
X133864140Y-71154136D01*
X133950370Y-71083370D01*
X134021136Y-70997140D01*
X134073721Y-70898761D01*
X134106102Y-70792014D01*
X134117036Y-70681001D01*
X134117036Y-69780999D01*
X134106102Y-69669986D01*
X134073721Y-69563239D01*
X134021136Y-69464860D01*
X133950370Y-69378630D01*
X133921500Y-69354937D01*
X133921500Y-69042291D01*
X133989140Y-69006136D01*
X134075370Y-68935370D01*
X134146136Y-68849140D01*
X134198721Y-68750761D01*
X134228528Y-68652500D01*
X134785180Y-68652500D01*
X134807000Y-68654649D01*
X134828820Y-68652500D01*
X134828830Y-68652500D01*
X134894137Y-68646068D01*
X134977926Y-68620651D01*
X135055145Y-68579376D01*
X135122829Y-68523829D01*
X135136747Y-68506870D01*
X136338501Y-67305116D01*
X136338500Y-69111882D01*
X136032546Y-69417837D01*
X136000370Y-69378630D01*
X135914140Y-69307864D01*
X135815761Y-69255279D01*
X135709014Y-69222898D01*
X135598001Y-69211964D01*
X134947999Y-69211964D01*
X134836986Y-69222898D01*
X134730239Y-69255279D01*
X134631860Y-69307864D01*
X134545630Y-69378630D01*
X134474864Y-69464860D01*
X134422279Y-69563239D01*
X134389898Y-69669986D01*
X134378964Y-69780999D01*
X134378964Y-70681001D01*
X134389898Y-70792014D01*
X134422279Y-70898761D01*
X134474864Y-70997140D01*
X134545630Y-71083370D01*
X134631860Y-71154136D01*
X134730239Y-71206721D01*
X134836986Y-71239102D01*
X134947999Y-71250036D01*
X135598001Y-71250036D01*
X135709014Y-71239102D01*
X135815761Y-71206721D01*
X135914140Y-71154136D01*
X136000370Y-71083370D01*
X136071136Y-70997140D01*
X136123721Y-70898761D01*
X136156102Y-70792014D01*
X136167036Y-70681001D01*
X136167036Y-70542921D01*
X136177746Y-70529871D01*
X137081877Y-69625741D01*
X137098829Y-69611829D01*
X137112742Y-69594876D01*
X137112745Y-69594873D01*
X137154376Y-69544146D01*
X137195651Y-69466926D01*
X137196278Y-69464860D01*
X137221068Y-69383137D01*
X137227500Y-69317830D01*
X137227500Y-69317820D01*
X137229649Y-69296000D01*
X137227500Y-69274180D01*
X137227500Y-66206170D01*
X137227036Y-66201459D01*
X137227036Y-66144500D01*
X137338964Y-66144500D01*
X137338964Y-66201459D01*
X137336350Y-66228000D01*
X137338964Y-66254541D01*
X137338964Y-66478000D01*
X137344500Y-66534210D01*
X137344500Y-66716125D01*
X137423875Y-66795500D01*
X137476304Y-66789638D01*
X137533041Y-66771217D01*
X137535910Y-66772751D01*
X137595759Y-66790906D01*
X137658000Y-66797036D01*
X137908000Y-66797036D01*
X137970241Y-66790906D01*
X138030090Y-66772751D01*
X138061399Y-66756016D01*
X140119100Y-68813718D01*
X140119101Y-78311770D01*
X140116951Y-78333600D01*
X140125533Y-78420737D01*
X140150949Y-78504525D01*
X140192224Y-78581745D01*
X140233855Y-78632472D01*
X140233859Y-78632476D01*
X140247772Y-78649429D01*
X140264725Y-78663342D01*
X140906500Y-79305118D01*
X140906500Y-90770843D01*
X140526787Y-90391130D01*
X140512869Y-90374171D01*
X140445185Y-90318624D01*
X140367966Y-90277349D01*
X140284177Y-90251932D01*
X140218870Y-90245500D01*
X140218860Y-90245500D01*
X140197040Y-90243351D01*
X140175220Y-90245500D01*
X135548170Y-90245500D01*
X135543459Y-90245964D01*
X135320000Y-90245964D01*
X135257759Y-90252094D01*
X135197910Y-90270249D01*
X135142753Y-90299731D01*
X135111857Y-90325086D01*
X135070000Y-90320964D01*
X134762875Y-90322500D01*
X134683500Y-90401875D01*
X134683500Y-91376500D01*
X134703500Y-91376500D01*
X134703500Y-91503500D01*
X134683500Y-91503500D01*
X134683500Y-92478125D01*
X134762875Y-92557500D01*
X135070000Y-92559036D01*
X135111857Y-92554914D01*
X135142753Y-92580269D01*
X135197910Y-92609751D01*
X135257759Y-92627906D01*
X135320000Y-92634036D01*
X135543459Y-92634036D01*
X135548170Y-92634500D01*
X136582883Y-92634500D01*
X136969501Y-93021118D01*
X136969500Y-94249932D01*
X136889239Y-94274279D01*
X136790860Y-94326864D01*
X136704630Y-94397630D01*
X136633864Y-94483860D01*
X136581279Y-94582239D01*
X136548898Y-94688986D01*
X136537964Y-94799999D01*
X136537964Y-95700001D01*
X136548898Y-95811014D01*
X136581279Y-95917761D01*
X136633864Y-96016140D01*
X136704630Y-96102370D01*
X136790860Y-96173136D01*
X136889239Y-96225721D01*
X136995986Y-96258102D01*
X137106999Y-96269036D01*
X137757001Y-96269036D01*
X137868014Y-96258102D01*
X137974761Y-96225721D01*
X138073140Y-96173136D01*
X138159370Y-96102370D01*
X138230136Y-96016140D01*
X138282721Y-95917761D01*
X138315102Y-95811014D01*
X138326036Y-95700001D01*
X138326036Y-95694500D01*
X138569937Y-95694500D01*
X138593630Y-95723370D01*
X138679860Y-95794136D01*
X138778239Y-95846721D01*
X138884986Y-95879102D01*
X138995999Y-95890036D01*
X139896001Y-95890036D01*
X140007014Y-95879102D01*
X140113761Y-95846721D01*
X140212140Y-95794136D01*
X140298370Y-95723370D01*
X140369136Y-95637140D01*
X140421721Y-95538761D01*
X140454102Y-95432014D01*
X140465036Y-95321001D01*
X140465036Y-94670999D01*
X140454102Y-94559986D01*
X140421721Y-94453239D01*
X140369136Y-94354860D01*
X140298370Y-94268630D01*
X140212140Y-94197864D01*
X140113761Y-94145279D01*
X140007014Y-94112898D01*
X139896001Y-94101964D01*
X138995999Y-94101964D01*
X138884986Y-94112898D01*
X138778239Y-94145279D01*
X138679860Y-94197864D01*
X138593630Y-94268630D01*
X138569937Y-94297500D01*
X138018204Y-94297500D01*
X137974761Y-94274279D01*
X137868014Y-94241898D01*
X137858500Y-94240961D01*
X137858500Y-92858819D01*
X137860649Y-92836999D01*
X137858500Y-92815179D01*
X137858500Y-92815170D01*
X137852068Y-92749863D01*
X137826651Y-92666074D01*
X137785376Y-92588855D01*
X137729829Y-92521171D01*
X137712870Y-92507253D01*
X137340117Y-92134500D01*
X138580883Y-92134500D01*
X138632837Y-92186454D01*
X138593630Y-92218630D01*
X138522864Y-92304860D01*
X138470279Y-92403239D01*
X138437898Y-92509986D01*
X138426964Y-92620999D01*
X138426964Y-93271001D01*
X138437898Y-93382014D01*
X138470279Y-93488761D01*
X138522864Y-93587140D01*
X138593630Y-93673370D01*
X138679860Y-93744136D01*
X138778239Y-93796721D01*
X138884986Y-93829102D01*
X138995999Y-93840036D01*
X139896001Y-93840036D01*
X140007014Y-93829102D01*
X140113761Y-93796721D01*
X140212140Y-93744136D01*
X140298370Y-93673370D01*
X140369136Y-93587140D01*
X140421721Y-93488761D01*
X140454102Y-93382014D01*
X140465036Y-93271001D01*
X140465036Y-92620999D01*
X140454102Y-92509986D01*
X140421721Y-92403239D01*
X140369136Y-92304860D01*
X140298370Y-92218630D01*
X140212140Y-92147864D01*
X140113761Y-92095279D01*
X140007014Y-92062898D01*
X139896001Y-92051964D01*
X139757921Y-92051964D01*
X139744877Y-92041259D01*
X139094746Y-91391129D01*
X139080829Y-91374171D01*
X139013145Y-91318624D01*
X138935926Y-91277349D01*
X138852137Y-91251932D01*
X138786830Y-91245500D01*
X138786820Y-91245500D01*
X138765000Y-91243351D01*
X138743180Y-91245500D01*
X135548170Y-91245500D01*
X135543459Y-91245964D01*
X135486500Y-91245964D01*
X135486500Y-91134036D01*
X135543459Y-91134036D01*
X135548170Y-91134500D01*
X140012923Y-91134500D01*
X140617293Y-91738870D01*
X140631211Y-91755829D01*
X140698895Y-91811376D01*
X140776114Y-91852651D01*
X140859903Y-91878068D01*
X140906500Y-91882657D01*
X140906500Y-96456500D01*
X133057328Y-96456500D01*
X132550828Y-95950000D01*
X132718964Y-95950000D01*
X132725094Y-96012241D01*
X132743249Y-96072090D01*
X132772731Y-96127247D01*
X132812407Y-96175593D01*
X132860753Y-96215269D01*
X132915910Y-96244751D01*
X132975759Y-96262906D01*
X133038000Y-96269036D01*
X133470125Y-96267500D01*
X133549500Y-96188125D01*
X133549500Y-95313500D01*
X133676500Y-95313500D01*
X133676500Y-96188125D01*
X133755875Y-96267500D01*
X134188000Y-96269036D01*
X134250241Y-96262906D01*
X134310090Y-96244751D01*
X134365247Y-96215269D01*
X134413593Y-96175593D01*
X134453269Y-96127247D01*
X134482751Y-96072090D01*
X134497500Y-96023469D01*
X134512249Y-96072090D01*
X134541731Y-96127247D01*
X134581407Y-96175593D01*
X134629753Y-96215269D01*
X134684910Y-96244751D01*
X134744759Y-96262906D01*
X134807000Y-96269036D01*
X135239125Y-96267500D01*
X135318500Y-96188125D01*
X135318500Y-95313500D01*
X135445500Y-95313500D01*
X135445500Y-96188125D01*
X135524875Y-96267500D01*
X135957000Y-96269036D01*
X136019241Y-96262906D01*
X136079090Y-96244751D01*
X136134247Y-96215269D01*
X136182593Y-96175593D01*
X136222269Y-96127247D01*
X136251751Y-96072090D01*
X136269906Y-96012241D01*
X136276036Y-95950000D01*
X136274500Y-95392875D01*
X136195125Y-95313500D01*
X135445500Y-95313500D01*
X135318500Y-95313500D01*
X134568875Y-95313500D01*
X134497500Y-95384875D01*
X134426125Y-95313500D01*
X133676500Y-95313500D01*
X133549500Y-95313500D01*
X132799875Y-95313500D01*
X132720500Y-95392875D01*
X132718964Y-95950000D01*
X132550828Y-95950000D01*
X132438128Y-95837301D01*
X132446102Y-95811014D01*
X132457036Y-95700001D01*
X132457036Y-94799999D01*
X132446102Y-94688986D01*
X132413721Y-94582239D01*
X132405663Y-94567164D01*
X132422827Y-94550000D01*
X132718964Y-94550000D01*
X132720500Y-95107125D01*
X132799875Y-95186500D01*
X133549500Y-95186500D01*
X133549500Y-94311875D01*
X133676500Y-94311875D01*
X133676500Y-95186500D01*
X134426125Y-95186500D01*
X134497500Y-95115125D01*
X134568875Y-95186500D01*
X135318500Y-95186500D01*
X135318500Y-94311875D01*
X135445500Y-94311875D01*
X135445500Y-95186500D01*
X136195125Y-95186500D01*
X136274500Y-95107125D01*
X136276036Y-94550000D01*
X136269906Y-94487759D01*
X136251751Y-94427910D01*
X136222269Y-94372753D01*
X136182593Y-94324407D01*
X136134247Y-94284731D01*
X136079090Y-94255249D01*
X136019241Y-94237094D01*
X135957000Y-94230964D01*
X135524875Y-94232500D01*
X135445500Y-94311875D01*
X135318500Y-94311875D01*
X135239125Y-94232500D01*
X134807000Y-94230964D01*
X134744759Y-94237094D01*
X134684910Y-94255249D01*
X134629753Y-94284731D01*
X134581407Y-94324407D01*
X134541731Y-94372753D01*
X134512249Y-94427910D01*
X134497500Y-94476531D01*
X134482751Y-94427910D01*
X134453269Y-94372753D01*
X134413593Y-94324407D01*
X134365247Y-94284731D01*
X134310090Y-94255249D01*
X134250241Y-94237094D01*
X134188000Y-94230964D01*
X133755875Y-94232500D01*
X133676500Y-94311875D01*
X133549500Y-94311875D01*
X133470125Y-94232500D01*
X133038000Y-94230964D01*
X132975759Y-94237094D01*
X132915910Y-94255249D01*
X132860753Y-94284731D01*
X132812407Y-94324407D01*
X132772731Y-94372753D01*
X132743249Y-94427910D01*
X132725094Y-94487759D01*
X132718964Y-94550000D01*
X132422827Y-94550000D01*
X134107173Y-92865656D01*
X134172590Y-92785945D01*
X134237450Y-92664600D01*
X134269624Y-92558538D01*
X134477125Y-92557500D01*
X134556500Y-92478125D01*
X134556500Y-91503500D01*
X134536500Y-91503500D01*
X134536500Y-91376500D01*
X134556500Y-91376500D01*
X134556500Y-90401875D01*
X134477125Y-90322500D01*
X134170000Y-90320964D01*
X134128471Y-90325054D01*
X134092063Y-90296340D01*
X134036344Y-90267934D01*
X133976154Y-90250945D01*
X133913806Y-90246024D01*
X133812875Y-90247500D01*
X133733500Y-90326875D01*
X133733500Y-90628500D01*
X133753500Y-90628500D01*
X133753500Y-90745964D01*
X133696541Y-90745964D01*
X133691830Y-90745500D01*
X133586500Y-90745500D01*
X133586500Y-90628500D01*
X133606500Y-90628500D01*
X133606500Y-90326875D01*
X133527125Y-90247500D01*
X133426194Y-90246024D01*
X133363846Y-90250945D01*
X133303656Y-90267934D01*
X133247937Y-90296340D01*
X133198830Y-90335070D01*
X133190105Y-90345290D01*
X133104943Y-90275399D01*
X132983597Y-90210538D01*
X132851930Y-90170597D01*
X132749309Y-90160490D01*
X130873500Y-90160490D01*
X130873500Y-58483500D01*
X132622623Y-58483500D01*
X135851900Y-61659159D01*
G37*
X135851900Y-61659159D02*
X135851901Y-62728073D01*
X135402173Y-62278346D01*
X135380302Y-62251696D01*
X135273942Y-62164408D01*
X135152596Y-62099547D01*
X135020929Y-62059606D01*
X134918308Y-62049499D01*
X134918297Y-62049499D01*
X134883999Y-62046121D01*
X134849701Y-62049499D01*
X134242036Y-62049499D01*
X134242036Y-62013999D01*
X134231102Y-61902986D01*
X134198721Y-61796239D01*
X134146136Y-61697860D01*
X134075370Y-61611630D01*
X133989140Y-61540864D01*
X133890761Y-61488279D01*
X133784014Y-61455898D01*
X133673001Y-61444964D01*
X132772999Y-61444964D01*
X132661986Y-61455898D01*
X132555239Y-61488279D01*
X132514767Y-61509912D01*
X132461841Y-61382136D01*
X132383319Y-61264620D01*
X132283380Y-61164681D01*
X132165864Y-61086159D01*
X132035287Y-61032073D01*
X131896668Y-61004500D01*
X131755332Y-61004500D01*
X131616713Y-61032073D01*
X131486136Y-61086159D01*
X131368620Y-61164681D01*
X131268681Y-61264620D01*
X131190159Y-61382136D01*
X131136073Y-61512713D01*
X131108500Y-61651332D01*
X131108500Y-61792668D01*
X131136073Y-61931287D01*
X131190159Y-62061864D01*
X131268681Y-62179380D01*
X131318001Y-62228700D01*
X131318000Y-67666056D01*
X131315543Y-67691000D01*
X131318000Y-67715944D01*
X131318000Y-67715946D01*
X131325351Y-67790584D01*
X131354399Y-67886342D01*
X131401571Y-67974595D01*
X131465052Y-68051948D01*
X131484435Y-68067855D01*
X131966149Y-68549570D01*
X131982052Y-68568948D01*
X132001429Y-68584850D01*
X132059404Y-68632429D01*
X132100975Y-68654649D01*
X132147657Y-68679601D01*
X132233602Y-68705672D01*
X132247279Y-68750761D01*
X132299864Y-68849140D01*
X132370630Y-68935370D01*
X132456860Y-69006136D01*
X132524500Y-69042291D01*
X132524501Y-69354937D01*
X132495630Y-69378630D01*
X132424864Y-69464860D01*
X132372279Y-69563239D01*
X132339898Y-69669986D01*
X132328964Y-69780999D01*
X132328964Y-70681001D01*
X132339898Y-70792014D01*
X132372279Y-70898761D01*
X132424864Y-70997140D01*
X132495630Y-71083370D01*
X132581860Y-71154136D01*
X132680239Y-71206721D01*
X132786986Y-71239102D01*
X132897999Y-71250036D01*
X133548001Y-71250036D01*
X133659014Y-71239102D01*
X133765761Y-71206721D01*
X133864140Y-71154136D01*
X133950370Y-71083370D01*
X134021136Y-70997140D01*
X134073721Y-70898761D01*
X134106102Y-70792014D01*
X134117036Y-70681001D01*
X134117036Y-69780999D01*
X134106102Y-69669986D01*
X134073721Y-69563239D01*
X134021136Y-69464860D01*
X133950370Y-69378630D01*
X133921500Y-69354937D01*
X133921500Y-69042291D01*
X133989140Y-69006136D01*
X134075370Y-68935370D01*
X134146136Y-68849140D01*
X134198721Y-68750761D01*
X134228528Y-68652500D01*
X134785180Y-68652500D01*
X134807000Y-68654649D01*
X134828820Y-68652500D01*
X134828830Y-68652500D01*
X134894137Y-68646068D01*
X134977926Y-68620651D01*
X135055145Y-68579376D01*
X135122829Y-68523829D01*
X135136747Y-68506870D01*
X136338501Y-67305116D01*
X136338500Y-69111882D01*
X136032546Y-69417837D01*
X136000370Y-69378630D01*
X135914140Y-69307864D01*
X135815761Y-69255279D01*
X135709014Y-69222898D01*
X135598001Y-69211964D01*
X134947999Y-69211964D01*
X134836986Y-69222898D01*
X134730239Y-69255279D01*
X134631860Y-69307864D01*
X134545630Y-69378630D01*
X134474864Y-69464860D01*
X134422279Y-69563239D01*
X134389898Y-69669986D01*
X134378964Y-69780999D01*
X134378964Y-70681001D01*
X134389898Y-70792014D01*
X134422279Y-70898761D01*
X134474864Y-70997140D01*
X134545630Y-71083370D01*
X134631860Y-71154136D01*
X134730239Y-71206721D01*
X134836986Y-71239102D01*
X134947999Y-71250036D01*
X135598001Y-71250036D01*
X135709014Y-71239102D01*
X135815761Y-71206721D01*
X135914140Y-71154136D01*
X136000370Y-71083370D01*
X136071136Y-70997140D01*
X136123721Y-70898761D01*
X136156102Y-70792014D01*
X136167036Y-70681001D01*
X136167036Y-70542921D01*
X136177746Y-70529871D01*
X137081877Y-69625741D01*
X137098829Y-69611829D01*
X137112742Y-69594876D01*
X137112745Y-69594873D01*
X137154376Y-69544146D01*
X137195651Y-69466926D01*
X137196278Y-69464860D01*
X137221068Y-69383137D01*
X137227500Y-69317830D01*
X137227500Y-69317820D01*
X137229649Y-69296000D01*
X137227500Y-69274180D01*
X137227500Y-66206170D01*
X137227036Y-66201459D01*
X137227036Y-66144500D01*
X137338964Y-66144500D01*
X137338964Y-66201459D01*
X137336350Y-66228000D01*
X137338964Y-66254541D01*
X137338964Y-66478000D01*
X137344500Y-66534210D01*
X137344500Y-66716125D01*
X137423875Y-66795500D01*
X137476304Y-66789638D01*
X137533041Y-66771217D01*
X137535910Y-66772751D01*
X137595759Y-66790906D01*
X137658000Y-66797036D01*
X137908000Y-66797036D01*
X137970241Y-66790906D01*
X138030090Y-66772751D01*
X138061399Y-66756016D01*
X140119100Y-68813718D01*
X140119101Y-78311770D01*
X140116951Y-78333600D01*
X140125533Y-78420737D01*
X140150949Y-78504525D01*
X140192224Y-78581745D01*
X140233855Y-78632472D01*
X140233859Y-78632476D01*
X140247772Y-78649429D01*
X140264725Y-78663342D01*
X140906500Y-79305118D01*
X140906500Y-90770843D01*
X140526787Y-90391130D01*
X140512869Y-90374171D01*
X140445185Y-90318624D01*
X140367966Y-90277349D01*
X140284177Y-90251932D01*
X140218870Y-90245500D01*
X140218860Y-90245500D01*
X140197040Y-90243351D01*
X140175220Y-90245500D01*
X135548170Y-90245500D01*
X135543459Y-90245964D01*
X135320000Y-90245964D01*
X135257759Y-90252094D01*
X135197910Y-90270249D01*
X135142753Y-90299731D01*
X135111857Y-90325086D01*
X135070000Y-90320964D01*
X134762875Y-90322500D01*
X134683500Y-90401875D01*
X134683500Y-91376500D01*
X134703500Y-91376500D01*
X134703500Y-91503500D01*
X134683500Y-91503500D01*
X134683500Y-92478125D01*
X134762875Y-92557500D01*
X135070000Y-92559036D01*
X135111857Y-92554914D01*
X135142753Y-92580269D01*
X135197910Y-92609751D01*
X135257759Y-92627906D01*
X135320000Y-92634036D01*
X135543459Y-92634036D01*
X135548170Y-92634500D01*
X136582883Y-92634500D01*
X136969501Y-93021118D01*
X136969500Y-94249932D01*
X136889239Y-94274279D01*
X136790860Y-94326864D01*
X136704630Y-94397630D01*
X136633864Y-94483860D01*
X136581279Y-94582239D01*
X136548898Y-94688986D01*
X136537964Y-94799999D01*
X136537964Y-95700001D01*
X136548898Y-95811014D01*
X136581279Y-95917761D01*
X136633864Y-96016140D01*
X136704630Y-96102370D01*
X136790860Y-96173136D01*
X136889239Y-96225721D01*
X136995986Y-96258102D01*
X137106999Y-96269036D01*
X137757001Y-96269036D01*
X137868014Y-96258102D01*
X137974761Y-96225721D01*
X138073140Y-96173136D01*
X138159370Y-96102370D01*
X138230136Y-96016140D01*
X138282721Y-95917761D01*
X138315102Y-95811014D01*
X138326036Y-95700001D01*
X138326036Y-95694500D01*
X138569937Y-95694500D01*
X138593630Y-95723370D01*
X138679860Y-95794136D01*
X138778239Y-95846721D01*
X138884986Y-95879102D01*
X138995999Y-95890036D01*
X139896001Y-95890036D01*
X140007014Y-95879102D01*
X140113761Y-95846721D01*
X140212140Y-95794136D01*
X140298370Y-95723370D01*
X140369136Y-95637140D01*
X140421721Y-95538761D01*
X140454102Y-95432014D01*
X140465036Y-95321001D01*
X140465036Y-94670999D01*
X140454102Y-94559986D01*
X140421721Y-94453239D01*
X140369136Y-94354860D01*
X140298370Y-94268630D01*
X140212140Y-94197864D01*
X140113761Y-94145279D01*
X140007014Y-94112898D01*
X139896001Y-94101964D01*
X138995999Y-94101964D01*
X138884986Y-94112898D01*
X138778239Y-94145279D01*
X138679860Y-94197864D01*
X138593630Y-94268630D01*
X138569937Y-94297500D01*
X138018204Y-94297500D01*
X137974761Y-94274279D01*
X137868014Y-94241898D01*
X137858500Y-94240961D01*
X137858500Y-92858819D01*
X137860649Y-92836999D01*
X137858500Y-92815179D01*
X137858500Y-92815170D01*
X137852068Y-92749863D01*
X137826651Y-92666074D01*
X137785376Y-92588855D01*
X137729829Y-92521171D01*
X137712870Y-92507253D01*
X137340117Y-92134500D01*
X138580883Y-92134500D01*
X138632837Y-92186454D01*
X138593630Y-92218630D01*
X138522864Y-92304860D01*
X138470279Y-92403239D01*
X138437898Y-92509986D01*
X138426964Y-92620999D01*
X138426964Y-93271001D01*
X138437898Y-93382014D01*
X138470279Y-93488761D01*
X138522864Y-93587140D01*
X138593630Y-93673370D01*
X138679860Y-93744136D01*
X138778239Y-93796721D01*
X138884986Y-93829102D01*
X138995999Y-93840036D01*
X139896001Y-93840036D01*
X140007014Y-93829102D01*
X140113761Y-93796721D01*
X140212140Y-93744136D01*
X140298370Y-93673370D01*
X140369136Y-93587140D01*
X140421721Y-93488761D01*
X140454102Y-93382014D01*
X140465036Y-93271001D01*
X140465036Y-92620999D01*
X140454102Y-92509986D01*
X140421721Y-92403239D01*
X140369136Y-92304860D01*
X140298370Y-92218630D01*
X140212140Y-92147864D01*
X140113761Y-92095279D01*
X140007014Y-92062898D01*
X139896001Y-92051964D01*
X139757921Y-92051964D01*
X139744877Y-92041259D01*
X139094746Y-91391129D01*
X139080829Y-91374171D01*
X139013145Y-91318624D01*
X138935926Y-91277349D01*
X138852137Y-91251932D01*
X138786830Y-91245500D01*
X138786820Y-91245500D01*
X138765000Y-91243351D01*
X138743180Y-91245500D01*
X135548170Y-91245500D01*
X135543459Y-91245964D01*
X135486500Y-91245964D01*
X135486500Y-91134036D01*
X135543459Y-91134036D01*
X135548170Y-91134500D01*
X140012923Y-91134500D01*
X140617293Y-91738870D01*
X140631211Y-91755829D01*
X140698895Y-91811376D01*
X140776114Y-91852651D01*
X140859903Y-91878068D01*
X140906500Y-91882657D01*
X140906500Y-96456500D01*
X133057328Y-96456500D01*
X132550828Y-95950000D01*
X132718964Y-95950000D01*
X132725094Y-96012241D01*
X132743249Y-96072090D01*
X132772731Y-96127247D01*
X132812407Y-96175593D01*
X132860753Y-96215269D01*
X132915910Y-96244751D01*
X132975759Y-96262906D01*
X133038000Y-96269036D01*
X133470125Y-96267500D01*
X133549500Y-96188125D01*
X133549500Y-95313500D01*
X133676500Y-95313500D01*
X133676500Y-96188125D01*
X133755875Y-96267500D01*
X134188000Y-96269036D01*
X134250241Y-96262906D01*
X134310090Y-96244751D01*
X134365247Y-96215269D01*
X134413593Y-96175593D01*
X134453269Y-96127247D01*
X134482751Y-96072090D01*
X134497500Y-96023469D01*
X134512249Y-96072090D01*
X134541731Y-96127247D01*
X134581407Y-96175593D01*
X134629753Y-96215269D01*
X134684910Y-96244751D01*
X134744759Y-96262906D01*
X134807000Y-96269036D01*
X135239125Y-96267500D01*
X135318500Y-96188125D01*
X135318500Y-95313500D01*
X135445500Y-95313500D01*
X135445500Y-96188125D01*
X135524875Y-96267500D01*
X135957000Y-96269036D01*
X136019241Y-96262906D01*
X136079090Y-96244751D01*
X136134247Y-96215269D01*
X136182593Y-96175593D01*
X136222269Y-96127247D01*
X136251751Y-96072090D01*
X136269906Y-96012241D01*
X136276036Y-95950000D01*
X136274500Y-95392875D01*
X136195125Y-95313500D01*
X135445500Y-95313500D01*
X135318500Y-95313500D01*
X134568875Y-95313500D01*
X134497500Y-95384875D01*
X134426125Y-95313500D01*
X133676500Y-95313500D01*
X133549500Y-95313500D01*
X132799875Y-95313500D01*
X132720500Y-95392875D01*
X132718964Y-95950000D01*
X132550828Y-95950000D01*
X132438128Y-95837301D01*
X132446102Y-95811014D01*
X132457036Y-95700001D01*
X132457036Y-94799999D01*
X132446102Y-94688986D01*
X132413721Y-94582239D01*
X132405663Y-94567164D01*
X132422827Y-94550000D01*
X132718964Y-94550000D01*
X132720500Y-95107125D01*
X132799875Y-95186500D01*
X133549500Y-95186500D01*
X133549500Y-94311875D01*
X133676500Y-94311875D01*
X133676500Y-95186500D01*
X134426125Y-95186500D01*
X134497500Y-95115125D01*
X134568875Y-95186500D01*
X135318500Y-95186500D01*
X135318500Y-94311875D01*
X135445500Y-94311875D01*
X135445500Y-95186500D01*
X136195125Y-95186500D01*
X136274500Y-95107125D01*
X136276036Y-94550000D01*
X136269906Y-94487759D01*
X136251751Y-94427910D01*
X136222269Y-94372753D01*
X136182593Y-94324407D01*
X136134247Y-94284731D01*
X136079090Y-94255249D01*
X136019241Y-94237094D01*
X135957000Y-94230964D01*
X135524875Y-94232500D01*
X135445500Y-94311875D01*
X135318500Y-94311875D01*
X135239125Y-94232500D01*
X134807000Y-94230964D01*
X134744759Y-94237094D01*
X134684910Y-94255249D01*
X134629753Y-94284731D01*
X134581407Y-94324407D01*
X134541731Y-94372753D01*
X134512249Y-94427910D01*
X134497500Y-94476531D01*
X134482751Y-94427910D01*
X134453269Y-94372753D01*
X134413593Y-94324407D01*
X134365247Y-94284731D01*
X134310090Y-94255249D01*
X134250241Y-94237094D01*
X134188000Y-94230964D01*
X133755875Y-94232500D01*
X133676500Y-94311875D01*
X133549500Y-94311875D01*
X133470125Y-94232500D01*
X133038000Y-94230964D01*
X132975759Y-94237094D01*
X132915910Y-94255249D01*
X132860753Y-94284731D01*
X132812407Y-94324407D01*
X132772731Y-94372753D01*
X132743249Y-94427910D01*
X132725094Y-94487759D01*
X132718964Y-94550000D01*
X132422827Y-94550000D01*
X134107173Y-92865656D01*
X134172590Y-92785945D01*
X134237450Y-92664600D01*
X134269624Y-92558538D01*
X134477125Y-92557500D01*
X134556500Y-92478125D01*
X134556500Y-91503500D01*
X134536500Y-91503500D01*
X134536500Y-91376500D01*
X134556500Y-91376500D01*
X134556500Y-90401875D01*
X134477125Y-90322500D01*
X134170000Y-90320964D01*
X134128471Y-90325054D01*
X134092063Y-90296340D01*
X134036344Y-90267934D01*
X133976154Y-90250945D01*
X133913806Y-90246024D01*
X133812875Y-90247500D01*
X133733500Y-90326875D01*
X133733500Y-90628500D01*
X133753500Y-90628500D01*
X133753500Y-90745964D01*
X133696541Y-90745964D01*
X133691830Y-90745500D01*
X133586500Y-90745500D01*
X133586500Y-90628500D01*
X133606500Y-90628500D01*
X133606500Y-90326875D01*
X133527125Y-90247500D01*
X133426194Y-90246024D01*
X133363846Y-90250945D01*
X133303656Y-90267934D01*
X133247937Y-90296340D01*
X133198830Y-90335070D01*
X133190105Y-90345290D01*
X133104943Y-90275399D01*
X132983597Y-90210538D01*
X132851930Y-90170597D01*
X132749309Y-90160490D01*
X130873500Y-90160490D01*
X130873500Y-58483500D01*
X132622623Y-58483500D01*
X135851900Y-61659159D01*
G36*
X140906500Y-68346757D02*
G01*
X140905000Y-68344929D01*
X140893344Y-68330726D01*
X140893342Y-68330724D01*
X140879429Y-68313771D01*
X140862477Y-68299859D01*
X138491747Y-65929130D01*
X138477829Y-65912171D01*
X138410145Y-65856624D01*
X138332926Y-65815349D01*
X138249137Y-65789932D01*
X138183830Y-65783500D01*
X138183820Y-65783500D01*
X138162000Y-65781351D01*
X138157694Y-65781775D01*
X138147914Y-65769857D01*
X138152036Y-65728000D01*
X138150500Y-65420875D01*
X138071125Y-65341500D01*
X137096500Y-65341500D01*
X137096500Y-65361500D01*
X136969500Y-65361500D01*
X136969500Y-65341500D01*
X135994875Y-65341500D01*
X135915500Y-65420875D01*
X135913964Y-65728000D01*
X135918086Y-65769857D01*
X135892731Y-65800753D01*
X135863249Y-65855910D01*
X135845094Y-65915759D01*
X135838964Y-65978000D01*
X135838964Y-66201460D01*
X135838500Y-66206171D01*
X135838501Y-66547882D01*
X134622883Y-67763500D01*
X134228528Y-67763500D01*
X134198721Y-67665239D01*
X134146136Y-67566860D01*
X134075370Y-67480630D01*
X133989140Y-67409864D01*
X133890761Y-67357279D01*
X133784014Y-67324898D01*
X133673001Y-67313964D01*
X133670220Y-67313964D01*
X133589929Y-67289608D01*
X133452999Y-67276122D01*
X133316070Y-67289608D01*
X133235779Y-67313964D01*
X132772999Y-67313964D01*
X132661986Y-67324898D01*
X132555239Y-67357279D01*
X132456860Y-67409864D01*
X132370630Y-67480630D01*
X132354142Y-67500721D01*
X132334000Y-67480580D01*
X132334000Y-66988624D01*
X132345753Y-66998269D01*
X132400910Y-67027751D01*
X132460759Y-67045906D01*
X132523000Y-67052036D01*
X133080125Y-67050500D01*
X133159500Y-66971125D01*
X133159500Y-66221500D01*
X133286500Y-66221500D01*
X133286500Y-66971125D01*
X133365875Y-67050500D01*
X133923000Y-67052036D01*
X133985241Y-67045906D01*
X134045090Y-67027751D01*
X134100247Y-66998269D01*
X134148593Y-66958593D01*
X134188269Y-66910247D01*
X134217751Y-66855090D01*
X134235906Y-66795241D01*
X134242036Y-66733000D01*
X134240500Y-66300875D01*
X134161125Y-66221500D01*
X133286500Y-66221500D01*
X133159500Y-66221500D01*
X133139500Y-66221500D01*
X133139500Y-66094500D01*
X133159500Y-66094500D01*
X133159500Y-65344875D01*
X133088125Y-65273500D01*
X133159500Y-65202125D01*
X133159500Y-64452500D01*
X133286500Y-64452500D01*
X133286500Y-65202125D01*
X133357875Y-65273500D01*
X133286500Y-65344875D01*
X133286500Y-66094500D01*
X134161125Y-66094500D01*
X134240500Y-66015125D01*
X134242036Y-65583000D01*
X134235906Y-65520759D01*
X134217751Y-65460910D01*
X134188269Y-65405753D01*
X134148593Y-65357407D01*
X134100247Y-65317731D01*
X134045090Y-65288249D01*
X133996469Y-65273500D01*
X134045090Y-65258751D01*
X134100247Y-65229269D01*
X134148593Y-65189593D01*
X134188269Y-65141247D01*
X134217751Y-65086090D01*
X134235906Y-65026241D01*
X134242036Y-64964000D01*
X134240500Y-64531875D01*
X134161125Y-64452500D01*
X133286500Y-64452500D01*
X133159500Y-64452500D01*
X133139500Y-64452500D01*
X133139500Y-64325500D01*
X133159500Y-64325500D01*
X133159500Y-63575875D01*
X133286500Y-63575875D01*
X133286500Y-64325500D01*
X134161125Y-64325500D01*
X134240500Y-64246125D01*
X134242036Y-63814000D01*
X134235906Y-63751759D01*
X134217751Y-63691910D01*
X134188269Y-63636753D01*
X134148593Y-63588407D01*
X134100247Y-63548731D01*
X134045090Y-63519249D01*
X133985241Y-63501094D01*
X133923000Y-63494964D01*
X133365875Y-63496500D01*
X133286500Y-63575875D01*
X133159500Y-63575875D01*
X133080125Y-63496500D01*
X132523000Y-63494964D01*
X132460759Y-63501094D01*
X132400910Y-63519249D01*
X132345753Y-63548731D01*
X132334000Y-63558376D01*
X132334000Y-63021736D01*
X132370630Y-63066370D01*
X132456860Y-63137136D01*
X132555239Y-63189721D01*
X132661986Y-63222102D01*
X132772999Y-63233036D01*
X133126450Y-63233036D01*
X133135696Y-63244302D01*
X133162346Y-63266173D01*
X133242055Y-63331590D01*
X133338104Y-63382929D01*
X133363402Y-63396451D01*
X133495069Y-63436392D01*
X133597690Y-63446499D01*
X133597700Y-63446499D01*
X133631998Y-63449877D01*
X133666296Y-63446499D01*
X134594672Y-63446499D01*
X135376490Y-64228318D01*
X135376490Y-64281308D01*
X135386597Y-64383929D01*
X135426538Y-64515596D01*
X135491399Y-64636942D01*
X135578688Y-64743302D01*
X135685048Y-64830590D01*
X135806394Y-64895451D01*
X135914465Y-64928234D01*
X135915500Y-65135125D01*
X135994875Y-65214500D01*
X136969500Y-65214500D01*
X136969500Y-65194500D01*
X137096500Y-65194500D01*
X137096500Y-65214500D01*
X138071125Y-65214500D01*
X138150500Y-65135125D01*
X138152036Y-64828000D01*
X138147946Y-64786471D01*
X138176660Y-64750063D01*
X138205066Y-64694344D01*
X138222055Y-64634154D01*
X138226976Y-64571806D01*
X138225500Y-64470875D01*
X138146125Y-64391500D01*
X137844500Y-64391500D01*
X137844500Y-64411500D01*
X137727036Y-64411500D01*
X137727036Y-64354541D01*
X137727500Y-64349830D01*
X137727500Y-64244500D01*
X137844500Y-64244500D01*
X137844500Y-64264500D01*
X138146125Y-64264500D01*
X138225500Y-64185125D01*
X138226976Y-64084194D01*
X138222055Y-64021846D01*
X138205066Y-63961656D01*
X138176660Y-63905937D01*
X138137930Y-63856830D01*
X138090364Y-63816223D01*
X138048675Y-63792888D01*
X138110312Y-63742303D01*
X138197601Y-63635943D01*
X138262462Y-63514597D01*
X138302403Y-63382930D01*
X138312510Y-63280309D01*
X138312510Y-60305307D01*
X138315888Y-60271009D01*
X138312510Y-60236711D01*
X138312510Y-60236701D01*
X138302403Y-60134080D01*
X138262462Y-60002413D01*
X138262461Y-60002411D01*
X138197601Y-59881066D01*
X138132184Y-59801356D01*
X138132181Y-59801353D01*
X138110313Y-59774707D01*
X138083667Y-59752839D01*
X137879230Y-59548402D01*
X137678177Y-59347350D01*
X137678173Y-59347345D01*
X137146726Y-58815899D01*
X136815839Y-58483500D01*
X140906500Y-58483500D01*
X140906500Y-68346757D01*
G37*
X140906500Y-68346757D02*
X140905000Y-68344929D01*
X140893344Y-68330726D01*
X140893342Y-68330724D01*
X140879429Y-68313771D01*
X140862477Y-68299859D01*
X138491747Y-65929130D01*
X138477829Y-65912171D01*
X138410145Y-65856624D01*
X138332926Y-65815349D01*
X138249137Y-65789932D01*
X138183830Y-65783500D01*
X138183820Y-65783500D01*
X138162000Y-65781351D01*
X138157694Y-65781775D01*
X138147914Y-65769857D01*
X138152036Y-65728000D01*
X138150500Y-65420875D01*
X138071125Y-65341500D01*
X137096500Y-65341500D01*
X137096500Y-65361500D01*
X136969500Y-65361500D01*
X136969500Y-65341500D01*
X135994875Y-65341500D01*
X135915500Y-65420875D01*
X135913964Y-65728000D01*
X135918086Y-65769857D01*
X135892731Y-65800753D01*
X135863249Y-65855910D01*
X135845094Y-65915759D01*
X135838964Y-65978000D01*
X135838964Y-66201460D01*
X135838500Y-66206171D01*
X135838501Y-66547882D01*
X134622883Y-67763500D01*
X134228528Y-67763500D01*
X134198721Y-67665239D01*
X134146136Y-67566860D01*
X134075370Y-67480630D01*
X133989140Y-67409864D01*
X133890761Y-67357279D01*
X133784014Y-67324898D01*
X133673001Y-67313964D01*
X133670220Y-67313964D01*
X133589929Y-67289608D01*
X133452999Y-67276122D01*
X133316070Y-67289608D01*
X133235779Y-67313964D01*
X132772999Y-67313964D01*
X132661986Y-67324898D01*
X132555239Y-67357279D01*
X132456860Y-67409864D01*
X132370630Y-67480630D01*
X132354142Y-67500721D01*
X132334000Y-67480580D01*
X132334000Y-66988624D01*
X132345753Y-66998269D01*
X132400910Y-67027751D01*
X132460759Y-67045906D01*
X132523000Y-67052036D01*
X133080125Y-67050500D01*
X133159500Y-66971125D01*
X133159500Y-66221500D01*
X133286500Y-66221500D01*
X133286500Y-66971125D01*
X133365875Y-67050500D01*
X133923000Y-67052036D01*
X133985241Y-67045906D01*
X134045090Y-67027751D01*
X134100247Y-66998269D01*
X134148593Y-66958593D01*
X134188269Y-66910247D01*
X134217751Y-66855090D01*
X134235906Y-66795241D01*
X134242036Y-66733000D01*
X134240500Y-66300875D01*
X134161125Y-66221500D01*
X133286500Y-66221500D01*
X133159500Y-66221500D01*
X133139500Y-66221500D01*
X133139500Y-66094500D01*
X133159500Y-66094500D01*
X133159500Y-65344875D01*
X133088125Y-65273500D01*
X133159500Y-65202125D01*
X133159500Y-64452500D01*
X133286500Y-64452500D01*
X133286500Y-65202125D01*
X133357875Y-65273500D01*
X133286500Y-65344875D01*
X133286500Y-66094500D01*
X134161125Y-66094500D01*
X134240500Y-66015125D01*
X134242036Y-65583000D01*
X134235906Y-65520759D01*
X134217751Y-65460910D01*
X134188269Y-65405753D01*
X134148593Y-65357407D01*
X134100247Y-65317731D01*
X134045090Y-65288249D01*
X133996469Y-65273500D01*
X134045090Y-65258751D01*
X134100247Y-65229269D01*
X134148593Y-65189593D01*
X134188269Y-65141247D01*
X134217751Y-65086090D01*
X134235906Y-65026241D01*
X134242036Y-64964000D01*
X134240500Y-64531875D01*
X134161125Y-64452500D01*
X133286500Y-64452500D01*
X133159500Y-64452500D01*
X133139500Y-64452500D01*
X133139500Y-64325500D01*
X133159500Y-64325500D01*
X133159500Y-63575875D01*
X133286500Y-63575875D01*
X133286500Y-64325500D01*
X134161125Y-64325500D01*
X134240500Y-64246125D01*
X134242036Y-63814000D01*
X134235906Y-63751759D01*
X134217751Y-63691910D01*
X134188269Y-63636753D01*
X134148593Y-63588407D01*
X134100247Y-63548731D01*
X134045090Y-63519249D01*
X133985241Y-63501094D01*
X133923000Y-63494964D01*
X133365875Y-63496500D01*
X133286500Y-63575875D01*
X133159500Y-63575875D01*
X133080125Y-63496500D01*
X132523000Y-63494964D01*
X132460759Y-63501094D01*
X132400910Y-63519249D01*
X132345753Y-63548731D01*
X132334000Y-63558376D01*
X132334000Y-63021736D01*
X132370630Y-63066370D01*
X132456860Y-63137136D01*
X132555239Y-63189721D01*
X132661986Y-63222102D01*
X132772999Y-63233036D01*
X133126450Y-63233036D01*
X133135696Y-63244302D01*
X133162346Y-63266173D01*
X133242055Y-63331590D01*
X133338104Y-63382929D01*
X133363402Y-63396451D01*
X133495069Y-63436392D01*
X133597690Y-63446499D01*
X133597700Y-63446499D01*
X133631998Y-63449877D01*
X133666296Y-63446499D01*
X134594672Y-63446499D01*
X135376490Y-64228318D01*
X135376490Y-64281308D01*
X135386597Y-64383929D01*
X135426538Y-64515596D01*
X135491399Y-64636942D01*
X135578688Y-64743302D01*
X135685048Y-64830590D01*
X135806394Y-64895451D01*
X135914465Y-64928234D01*
X135915500Y-65135125D01*
X135994875Y-65214500D01*
X136969500Y-65214500D01*
X136969500Y-65194500D01*
X137096500Y-65194500D01*
X137096500Y-65214500D01*
X138071125Y-65214500D01*
X138150500Y-65135125D01*
X138152036Y-64828000D01*
X138147946Y-64786471D01*
X138176660Y-64750063D01*
X138205066Y-64694344D01*
X138222055Y-64634154D01*
X138226976Y-64571806D01*
X138225500Y-64470875D01*
X138146125Y-64391500D01*
X137844500Y-64391500D01*
X137844500Y-64411500D01*
X137727036Y-64411500D01*
X137727036Y-64354541D01*
X137727500Y-64349830D01*
X137727500Y-64244500D01*
X137844500Y-64244500D01*
X137844500Y-64264500D01*
X138146125Y-64264500D01*
X138225500Y-64185125D01*
X138226976Y-64084194D01*
X138222055Y-64021846D01*
X138205066Y-63961656D01*
X138176660Y-63905937D01*
X138137930Y-63856830D01*
X138090364Y-63816223D01*
X138048675Y-63792888D01*
X138110312Y-63742303D01*
X138197601Y-63635943D01*
X138262462Y-63514597D01*
X138302403Y-63382930D01*
X138312510Y-63280309D01*
X138312510Y-60305307D01*
X138315888Y-60271009D01*
X138312510Y-60236711D01*
X138312510Y-60236701D01*
X138302403Y-60134080D01*
X138262462Y-60002413D01*
X138262461Y-60002411D01*
X138197601Y-59881066D01*
X138132184Y-59801356D01*
X138132181Y-59801353D01*
X138110313Y-59774707D01*
X138083667Y-59752839D01*
X137879230Y-59548402D01*
X137678177Y-59347350D01*
X137678173Y-59347345D01*
X137146726Y-58815899D01*
X136815839Y-58483500D01*
X140906500Y-58483500D01*
X140906500Y-68346757D01*
M02*
