G04 #@! TF.GenerationSoftware,KiCad,Pcbnew,(5.1.5)-3*
G04 #@! TF.CreationDate,2019-12-26T08:27:47-08:00*
G04 #@! TF.ProjectId,featherwing_copter,66656174-6865-4727-9769-6e675f636f70,rev?*
G04 #@! TF.SameCoordinates,Original*
G04 #@! TF.FileFunction,Profile,NP*
%FSLAX46Y46*%
G04 Gerber Fmt 4.6, Leading zero omitted, Abs format (unit mm)*
G04 Created by KiCad (PCBNEW (5.1.5)-3) date 2019-12-26 08:27:47*
%MOMM*%
%LPD*%
G04 APERTURE LIST*
%ADD10C,0.050000*%
G04 APERTURE END LIST*
D10*
X120372000Y-109728000D02*
G75*
G03X120372000Y-109728000I-1500000J0D01*
G01*
X120372000Y-42672000D02*
G75*
G03X120372000Y-42672000I-1500000J0D01*
G01*
X187428000Y-42672000D02*
G75*
G03X187428000Y-42672000I-1500000J0D01*
G01*
X187428000Y-109728000D02*
G75*
G03X187428000Y-109728000I-1500000J0D01*
G01*
X184380000Y-106680000D02*
G75*
G03X184380000Y-106680000I-1500000J0D01*
G01*
X123420000Y-106680000D02*
G75*
G03X123420000Y-106680000I-1500000J0D01*
G01*
X123420000Y-45720000D02*
G75*
G03X123420000Y-45720000I-1500000J0D01*
G01*
X184380000Y-45720000D02*
G75*
G03X184380000Y-45720000I-1500000J0D01*
G01*
X194309999Y-111760001D02*
G75*
G02X187960001Y-118109999I-3174999J-3174999D01*
G01*
X116839999Y-118109999D02*
G75*
G02X110490001Y-111760001I-3174999J3174999D01*
G01*
X110490001Y-40639999D02*
G75*
G02X116839999Y-34290001I3174999J3174999D01*
G01*
X187960001Y-34290001D02*
G75*
G02X194309999Y-40639999I3174999J-3174999D01*
G01*
X117300000Y-38100000D02*
G75*
G03X117300000Y-38100000I-3000000J0D01*
G01*
X193500000Y-38100000D02*
G75*
G03X193500000Y-38100000I-3000000J0D01*
G01*
X193500000Y-114300000D02*
G75*
G03X193500000Y-114300000I-3000000J0D01*
G01*
X117300000Y-114300000D02*
G75*
G03X117300000Y-114300000I-3000000J0D01*
G01*
X162560000Y-99060000D02*
G75*
G03X162560000Y-99060000I-1270000J0D01*
G01*
X144780000Y-99060000D02*
G75*
G03X144780000Y-99060000I-1270000J0D01*
G01*
X162560000Y-53340000D02*
G75*
G03X162560000Y-53340000I-1270000J0D01*
G01*
X144780000Y-53340000D02*
G75*
G03X144780000Y-53340000I-1270000J0D01*
G01*
X161290000Y-50800000D02*
X171450000Y-50800000D01*
X133350000Y-50800000D02*
X143510000Y-50800000D01*
X158750000Y-48260000D02*
X161290000Y-50800000D01*
X146050000Y-48260000D02*
X158750000Y-48260000D01*
X143510000Y-50800000D02*
X146050000Y-48260000D01*
X171450000Y-101600000D02*
X187960000Y-118110000D01*
X133350000Y-101600000D02*
X116840000Y-118110000D01*
X133350000Y-50800000D02*
X116840000Y-34290000D01*
X171450000Y-50800000D02*
X187960000Y-34290000D01*
X133350000Y-101600000D02*
X171450000Y-101600000D01*
X177800000Y-95250000D02*
X194310000Y-111760000D01*
X177800000Y-57150000D02*
X194309999Y-40639999D01*
X177800000Y-95250000D02*
X177800000Y-57150000D01*
X127000000Y-57150000D02*
X110490001Y-40639999D01*
X127000000Y-95250000D02*
X110490001Y-111760001D01*
X127000000Y-57150000D02*
X127000000Y-95250000D01*
M02*
