G04 #@! TF.GenerationSoftware,KiCad,Pcbnew,(5.1.5)-3*
G04 #@! TF.CreationDate,2019-12-26T08:27:47-08:00*
G04 #@! TF.ProjectId,featherwing_copter,66656174-6865-4727-9769-6e675f636f70,rev?*
G04 #@! TF.SameCoordinates,Original*
G04 #@! TF.FileFunction,Soldermask,Bot*
G04 #@! TF.FilePolarity,Negative*
%FSLAX46Y46*%
G04 Gerber Fmt 4.6, Leading zero omitted, Abs format (unit mm)*
G04 Created by KiCad (PCBNEW (5.1.5)-3) date 2019-12-26 08:27:47*
%MOMM*%
%LPD*%
G04 APERTURE LIST*
%ADD10C,0.100000*%
G04 APERTURE END LIST*
D10*
G36*
X128417735Y-100589803D02*
G01*
X128455124Y-100601145D01*
X128489578Y-100619560D01*
X128524541Y-100648254D01*
X129136150Y-101259863D01*
X129164844Y-101294826D01*
X129183259Y-101329280D01*
X129194601Y-101366669D01*
X129198430Y-101405546D01*
X129194601Y-101444423D01*
X129183259Y-101481812D01*
X129164844Y-101516266D01*
X129136150Y-101551229D01*
X126951229Y-103736150D01*
X126916266Y-103764844D01*
X126881812Y-103783259D01*
X126844423Y-103794601D01*
X126805546Y-103798430D01*
X126766669Y-103794601D01*
X126729280Y-103783259D01*
X126694826Y-103764844D01*
X126659863Y-103736150D01*
X126048254Y-103124541D01*
X126019560Y-103089578D01*
X126001145Y-103055124D01*
X125989803Y-103017735D01*
X125985974Y-102978858D01*
X125989803Y-102939981D01*
X126001145Y-102902592D01*
X126019560Y-102868138D01*
X126048254Y-102833175D01*
X128233175Y-100648254D01*
X128268138Y-100619560D01*
X128302592Y-100601145D01*
X128339981Y-100589803D01*
X128378858Y-100585974D01*
X128417735Y-100589803D01*
G37*
G36*
X176460019Y-100589803D02*
G01*
X176497408Y-100601145D01*
X176531862Y-100619560D01*
X176566825Y-100648254D01*
X178751746Y-102833175D01*
X178780440Y-102868138D01*
X178798855Y-102902592D01*
X178810197Y-102939981D01*
X178814026Y-102978858D01*
X178810197Y-103017735D01*
X178798855Y-103055124D01*
X178780440Y-103089578D01*
X178751746Y-103124541D01*
X178140137Y-103736150D01*
X178105174Y-103764844D01*
X178070720Y-103783259D01*
X178033331Y-103794601D01*
X177994454Y-103798430D01*
X177955577Y-103794601D01*
X177918188Y-103783259D01*
X177883734Y-103764844D01*
X177848771Y-103736150D01*
X175663850Y-101551229D01*
X175635156Y-101516266D01*
X175616741Y-101481812D01*
X175605399Y-101444423D01*
X175601570Y-101405546D01*
X175605399Y-101366669D01*
X175616741Y-101329280D01*
X175635156Y-101294826D01*
X175663850Y-101259863D01*
X176275459Y-100648254D01*
X176310422Y-100619560D01*
X176344876Y-100601145D01*
X176382265Y-100589803D01*
X176421142Y-100585974D01*
X176460019Y-100589803D01*
G37*
G36*
X127233331Y-99405399D02*
G01*
X127270720Y-99416741D01*
X127305174Y-99435156D01*
X127340137Y-99463850D01*
X127951746Y-100075459D01*
X127980440Y-100110422D01*
X127998855Y-100144876D01*
X128010197Y-100182265D01*
X128014026Y-100221142D01*
X128010197Y-100260019D01*
X127998855Y-100297408D01*
X127980440Y-100331862D01*
X127951746Y-100366825D01*
X125766825Y-102551746D01*
X125731862Y-102580440D01*
X125697408Y-102598855D01*
X125660019Y-102610197D01*
X125621142Y-102614026D01*
X125582265Y-102610197D01*
X125544876Y-102598855D01*
X125510422Y-102580440D01*
X125475459Y-102551746D01*
X124863850Y-101940137D01*
X124835156Y-101905174D01*
X124816741Y-101870720D01*
X124805399Y-101833331D01*
X124801570Y-101794454D01*
X124805399Y-101755577D01*
X124816741Y-101718188D01*
X124835156Y-101683734D01*
X124863850Y-101648771D01*
X127048771Y-99463850D01*
X127083734Y-99435156D01*
X127118188Y-99416741D01*
X127155577Y-99405399D01*
X127194454Y-99401570D01*
X127233331Y-99405399D01*
G37*
G36*
X177644423Y-99405399D02*
G01*
X177681812Y-99416741D01*
X177716266Y-99435156D01*
X177751229Y-99463850D01*
X179936150Y-101648771D01*
X179964844Y-101683734D01*
X179983259Y-101718188D01*
X179994601Y-101755577D01*
X179998430Y-101794454D01*
X179994601Y-101833331D01*
X179983259Y-101870720D01*
X179964844Y-101905174D01*
X179936150Y-101940137D01*
X179324541Y-102551746D01*
X179289578Y-102580440D01*
X179255124Y-102598855D01*
X179217735Y-102610197D01*
X179178858Y-102614026D01*
X179139981Y-102610197D01*
X179102592Y-102598855D01*
X179068138Y-102580440D01*
X179033175Y-102551746D01*
X176848254Y-100366825D01*
X176819560Y-100331862D01*
X176801145Y-100297408D01*
X176789803Y-100260019D01*
X176785974Y-100221142D01*
X176789803Y-100182265D01*
X176801145Y-100144876D01*
X176819560Y-100110422D01*
X176848254Y-100075459D01*
X177459863Y-99463850D01*
X177494826Y-99435156D01*
X177529280Y-99416741D01*
X177566669Y-99405399D01*
X177605546Y-99401570D01*
X177644423Y-99405399D01*
G37*
G36*
X172165674Y-95281465D02*
G01*
X172203367Y-95292899D01*
X172238103Y-95311466D01*
X172268548Y-95336452D01*
X172293534Y-95366897D01*
X172312101Y-95401633D01*
X172323535Y-95439326D01*
X172328000Y-95484661D01*
X172328000Y-96321339D01*
X172323535Y-96366674D01*
X172312101Y-96404367D01*
X172293534Y-96439103D01*
X172268548Y-96469548D01*
X172238103Y-96494534D01*
X172203367Y-96513101D01*
X172165674Y-96524535D01*
X172120339Y-96529000D01*
X171033661Y-96529000D01*
X170988326Y-96524535D01*
X170950633Y-96513101D01*
X170915897Y-96494534D01*
X170885452Y-96469548D01*
X170860466Y-96439103D01*
X170841899Y-96404367D01*
X170830465Y-96366674D01*
X170826000Y-96321339D01*
X170826000Y-95484661D01*
X170830465Y-95439326D01*
X170841899Y-95401633D01*
X170860466Y-95366897D01*
X170885452Y-95336452D01*
X170915897Y-95311466D01*
X170950633Y-95292899D01*
X170988326Y-95281465D01*
X171033661Y-95277000D01*
X172120339Y-95277000D01*
X172165674Y-95281465D01*
G37*
G36*
X162673512Y-94353927D02*
G01*
X162822812Y-94383624D01*
X162986784Y-94451544D01*
X163134354Y-94550147D01*
X163259853Y-94675646D01*
X163358456Y-94823216D01*
X163426376Y-94987188D01*
X163461000Y-95161259D01*
X163461000Y-95338741D01*
X163426376Y-95512812D01*
X163358456Y-95676784D01*
X163259853Y-95824354D01*
X163134354Y-95949853D01*
X162986784Y-96048456D01*
X162822812Y-96116376D01*
X162673512Y-96146073D01*
X162648742Y-96151000D01*
X162471258Y-96151000D01*
X162446488Y-96146073D01*
X162297188Y-96116376D01*
X162133216Y-96048456D01*
X161985646Y-95949853D01*
X161860147Y-95824354D01*
X161761544Y-95676784D01*
X161693624Y-95512812D01*
X161659000Y-95338741D01*
X161659000Y-95161259D01*
X161693624Y-94987188D01*
X161761544Y-94823216D01*
X161860147Y-94675646D01*
X161985646Y-94550147D01*
X162133216Y-94451544D01*
X162297188Y-94383624D01*
X162446488Y-94353927D01*
X162471258Y-94349000D01*
X162648742Y-94349000D01*
X162673512Y-94353927D01*
G37*
G36*
X142353512Y-94353927D02*
G01*
X142502812Y-94383624D01*
X142666784Y-94451544D01*
X142814354Y-94550147D01*
X142939853Y-94675646D01*
X143038456Y-94823216D01*
X143106376Y-94987188D01*
X143141000Y-95161259D01*
X143141000Y-95338741D01*
X143106376Y-95512812D01*
X143038456Y-95676784D01*
X142939853Y-95824354D01*
X142814354Y-95949853D01*
X142666784Y-96048456D01*
X142502812Y-96116376D01*
X142353512Y-96146073D01*
X142328742Y-96151000D01*
X142151258Y-96151000D01*
X142126488Y-96146073D01*
X141977188Y-96116376D01*
X141813216Y-96048456D01*
X141665646Y-95949853D01*
X141540147Y-95824354D01*
X141441544Y-95676784D01*
X141373624Y-95512812D01*
X141339000Y-95338741D01*
X141339000Y-95161259D01*
X141373624Y-94987188D01*
X141441544Y-94823216D01*
X141540147Y-94675646D01*
X141665646Y-94550147D01*
X141813216Y-94451544D01*
X141977188Y-94383624D01*
X142126488Y-94353927D01*
X142151258Y-94349000D01*
X142328742Y-94349000D01*
X142353512Y-94353927D01*
G37*
G36*
X137895674Y-94503465D02*
G01*
X137933367Y-94514899D01*
X137968103Y-94533466D01*
X137998548Y-94558452D01*
X138023534Y-94588897D01*
X138042101Y-94623633D01*
X138053535Y-94661326D01*
X138058000Y-94706661D01*
X138058000Y-95793339D01*
X138053535Y-95838674D01*
X138042101Y-95876367D01*
X138023534Y-95911103D01*
X137998548Y-95941548D01*
X137968103Y-95966534D01*
X137933367Y-95985101D01*
X137895674Y-95996535D01*
X137850339Y-96001000D01*
X137013661Y-96001000D01*
X136968326Y-95996535D01*
X136930633Y-95985101D01*
X136895897Y-95966534D01*
X136865452Y-95941548D01*
X136840466Y-95911103D01*
X136821899Y-95876367D01*
X136810465Y-95838674D01*
X136806000Y-95793339D01*
X136806000Y-94706661D01*
X136810465Y-94661326D01*
X136821899Y-94623633D01*
X136840466Y-94588897D01*
X136865452Y-94558452D01*
X136895897Y-94533466D01*
X136930633Y-94514899D01*
X136968326Y-94503465D01*
X137013661Y-94499000D01*
X137850339Y-94499000D01*
X137895674Y-94503465D01*
G37*
G36*
X135845674Y-94503465D02*
G01*
X135883367Y-94514899D01*
X135918103Y-94533466D01*
X135948548Y-94558452D01*
X135973534Y-94588897D01*
X135992101Y-94623633D01*
X136003535Y-94661326D01*
X136008000Y-94706661D01*
X136008000Y-95793339D01*
X136003535Y-95838674D01*
X135992101Y-95876367D01*
X135973534Y-95911103D01*
X135948548Y-95941548D01*
X135918103Y-95966534D01*
X135883367Y-95985101D01*
X135845674Y-95996535D01*
X135800339Y-96001000D01*
X134963661Y-96001000D01*
X134918326Y-95996535D01*
X134880633Y-95985101D01*
X134845897Y-95966534D01*
X134815452Y-95941548D01*
X134790466Y-95911103D01*
X134771899Y-95876367D01*
X134760465Y-95838674D01*
X134756000Y-95793339D01*
X134756000Y-94706661D01*
X134760465Y-94661326D01*
X134771899Y-94623633D01*
X134790466Y-94588897D01*
X134815452Y-94558452D01*
X134845897Y-94533466D01*
X134880633Y-94514899D01*
X134918326Y-94503465D01*
X134963661Y-94499000D01*
X135800339Y-94499000D01*
X135845674Y-94503465D01*
G37*
G36*
X134076674Y-94503465D02*
G01*
X134114367Y-94514899D01*
X134149103Y-94533466D01*
X134179548Y-94558452D01*
X134204534Y-94588897D01*
X134223101Y-94623633D01*
X134234535Y-94661326D01*
X134239000Y-94706661D01*
X134239000Y-95793339D01*
X134234535Y-95838674D01*
X134223101Y-95876367D01*
X134204534Y-95911103D01*
X134179548Y-95941548D01*
X134149103Y-95966534D01*
X134114367Y-95985101D01*
X134076674Y-95996535D01*
X134031339Y-96001000D01*
X133194661Y-96001000D01*
X133149326Y-95996535D01*
X133111633Y-95985101D01*
X133076897Y-95966534D01*
X133046452Y-95941548D01*
X133021466Y-95911103D01*
X133002899Y-95876367D01*
X132991465Y-95838674D01*
X132987000Y-95793339D01*
X132987000Y-94706661D01*
X132991465Y-94661326D01*
X133002899Y-94623633D01*
X133021466Y-94588897D01*
X133046452Y-94558452D01*
X133076897Y-94533466D01*
X133111633Y-94514899D01*
X133149326Y-94503465D01*
X133194661Y-94499000D01*
X134031339Y-94499000D01*
X134076674Y-94503465D01*
G37*
G36*
X132026674Y-94503465D02*
G01*
X132064367Y-94514899D01*
X132099103Y-94533466D01*
X132129548Y-94558452D01*
X132154534Y-94588897D01*
X132173101Y-94623633D01*
X132184535Y-94661326D01*
X132189000Y-94706661D01*
X132189000Y-95793339D01*
X132184535Y-95838674D01*
X132173101Y-95876367D01*
X132154534Y-95911103D01*
X132129548Y-95941548D01*
X132099103Y-95966534D01*
X132064367Y-95985101D01*
X132026674Y-95996535D01*
X131981339Y-96001000D01*
X131144661Y-96001000D01*
X131099326Y-95996535D01*
X131061633Y-95985101D01*
X131026897Y-95966534D01*
X130996452Y-95941548D01*
X130971466Y-95911103D01*
X130952899Y-95876367D01*
X130941465Y-95838674D01*
X130937000Y-95793339D01*
X130937000Y-94706661D01*
X130941465Y-94661326D01*
X130952899Y-94623633D01*
X130971466Y-94588897D01*
X130996452Y-94558452D01*
X131026897Y-94533466D01*
X131061633Y-94514899D01*
X131099326Y-94503465D01*
X131144661Y-94499000D01*
X131981339Y-94499000D01*
X132026674Y-94503465D01*
G37*
G36*
X140034674Y-94374465D02*
G01*
X140072367Y-94385899D01*
X140107103Y-94404466D01*
X140137548Y-94429452D01*
X140162534Y-94459897D01*
X140181101Y-94494633D01*
X140192535Y-94532326D01*
X140197000Y-94577661D01*
X140197000Y-95414339D01*
X140192535Y-95459674D01*
X140181101Y-95497367D01*
X140162534Y-95532103D01*
X140137548Y-95562548D01*
X140107103Y-95587534D01*
X140072367Y-95606101D01*
X140034674Y-95617535D01*
X139989339Y-95622000D01*
X138902661Y-95622000D01*
X138857326Y-95617535D01*
X138819633Y-95606101D01*
X138784897Y-95587534D01*
X138754452Y-95562548D01*
X138729466Y-95532103D01*
X138710899Y-95497367D01*
X138699465Y-95459674D01*
X138695000Y-95414339D01*
X138695000Y-94577661D01*
X138699465Y-94532326D01*
X138710899Y-94494633D01*
X138729466Y-94459897D01*
X138754452Y-94429452D01*
X138784897Y-94404466D01*
X138819633Y-94385899D01*
X138857326Y-94374465D01*
X138902661Y-94370000D01*
X139989339Y-94370000D01*
X140034674Y-94374465D01*
G37*
G36*
X172165674Y-93231465D02*
G01*
X172203367Y-93242899D01*
X172238103Y-93261466D01*
X172268548Y-93286452D01*
X172293534Y-93316897D01*
X172312101Y-93351633D01*
X172323535Y-93389326D01*
X172328000Y-93434661D01*
X172328000Y-94271339D01*
X172323535Y-94316674D01*
X172312101Y-94354367D01*
X172293534Y-94389103D01*
X172268548Y-94419548D01*
X172238103Y-94444534D01*
X172203367Y-94463101D01*
X172165674Y-94474535D01*
X172120339Y-94479000D01*
X171033661Y-94479000D01*
X170988326Y-94474535D01*
X170950633Y-94463101D01*
X170915897Y-94444534D01*
X170885452Y-94419548D01*
X170860466Y-94389103D01*
X170841899Y-94354367D01*
X170830465Y-94316674D01*
X170826000Y-94271339D01*
X170826000Y-93434661D01*
X170830465Y-93389326D01*
X170841899Y-93351633D01*
X170860466Y-93316897D01*
X170885452Y-93286452D01*
X170915897Y-93261466D01*
X170950633Y-93242899D01*
X170988326Y-93231465D01*
X171033661Y-93227000D01*
X172120339Y-93227000D01*
X172165674Y-93231465D01*
G37*
G36*
X168761000Y-92286672D02*
G01*
X168741553Y-92297066D01*
X168722611Y-92312611D01*
X168707066Y-92331553D01*
X168695515Y-92353164D01*
X168688402Y-92376613D01*
X168686000Y-92400999D01*
X168686000Y-93449001D01*
X168688402Y-93473387D01*
X168695515Y-93496836D01*
X168707066Y-93518447D01*
X168722611Y-93537389D01*
X168741553Y-93552934D01*
X168761000Y-93563328D01*
X168761000Y-94176000D01*
X166909000Y-94176000D01*
X166909000Y-93563328D01*
X166928447Y-93552934D01*
X166947389Y-93537389D01*
X166962934Y-93518447D01*
X166974485Y-93496836D01*
X166981598Y-93473387D01*
X166984000Y-93449001D01*
X166984000Y-92400999D01*
X166981598Y-92376613D01*
X166974485Y-92353164D01*
X166962934Y-92331553D01*
X166947389Y-92312611D01*
X166928447Y-92297066D01*
X166909000Y-92286672D01*
X166909000Y-91674000D01*
X168761000Y-91674000D01*
X168761000Y-92286672D01*
G37*
G36*
X162673512Y-91813927D02*
G01*
X162822812Y-91843624D01*
X162986784Y-91911544D01*
X163134354Y-92010147D01*
X163259853Y-92135646D01*
X163358456Y-92283216D01*
X163426376Y-92447188D01*
X163461000Y-92621259D01*
X163461000Y-92798741D01*
X163426376Y-92972812D01*
X163358456Y-93136784D01*
X163259853Y-93284354D01*
X163134354Y-93409853D01*
X162986784Y-93508456D01*
X162822812Y-93576376D01*
X162673512Y-93606073D01*
X162648742Y-93611000D01*
X162471258Y-93611000D01*
X162446488Y-93606073D01*
X162297188Y-93576376D01*
X162133216Y-93508456D01*
X161985646Y-93409853D01*
X161860147Y-93284354D01*
X161761544Y-93136784D01*
X161693624Y-92972812D01*
X161659000Y-92798741D01*
X161659000Y-92621259D01*
X161693624Y-92447188D01*
X161761544Y-92283216D01*
X161860147Y-92135646D01*
X161985646Y-92010147D01*
X162133216Y-91911544D01*
X162297188Y-91843624D01*
X162446488Y-91813927D01*
X162471258Y-91809000D01*
X162648742Y-91809000D01*
X162673512Y-91813927D01*
G37*
G36*
X142353512Y-91813927D02*
G01*
X142502812Y-91843624D01*
X142666784Y-91911544D01*
X142814354Y-92010147D01*
X142939853Y-92135646D01*
X143038456Y-92283216D01*
X143106376Y-92447188D01*
X143141000Y-92621259D01*
X143141000Y-92798741D01*
X143106376Y-92972812D01*
X143038456Y-93136784D01*
X142939853Y-93284354D01*
X142814354Y-93409853D01*
X142666784Y-93508456D01*
X142502812Y-93576376D01*
X142353512Y-93606073D01*
X142328742Y-93611000D01*
X142151258Y-93611000D01*
X142126488Y-93606073D01*
X141977188Y-93576376D01*
X141813216Y-93508456D01*
X141665646Y-93409853D01*
X141540147Y-93284354D01*
X141441544Y-93136784D01*
X141373624Y-92972812D01*
X141339000Y-92798741D01*
X141339000Y-92621259D01*
X141373624Y-92447188D01*
X141441544Y-92283216D01*
X141540147Y-92135646D01*
X141665646Y-92010147D01*
X141813216Y-91911544D01*
X141977188Y-91843624D01*
X142126488Y-91813927D01*
X142151258Y-91809000D01*
X142328742Y-91809000D01*
X142353512Y-91813927D01*
G37*
G36*
X140034674Y-92324465D02*
G01*
X140072367Y-92335899D01*
X140107103Y-92354466D01*
X140137548Y-92379452D01*
X140162534Y-92409897D01*
X140181101Y-92444633D01*
X140192535Y-92482326D01*
X140197000Y-92527661D01*
X140197000Y-93364339D01*
X140192535Y-93409674D01*
X140181101Y-93447367D01*
X140162534Y-93482103D01*
X140137548Y-93512548D01*
X140107103Y-93537534D01*
X140072367Y-93556101D01*
X140034674Y-93567535D01*
X139989339Y-93572000D01*
X138902661Y-93572000D01*
X138857326Y-93567535D01*
X138819633Y-93556101D01*
X138784897Y-93537534D01*
X138754452Y-93512548D01*
X138729466Y-93482103D01*
X138710899Y-93447367D01*
X138699465Y-93409674D01*
X138695000Y-93364339D01*
X138695000Y-92527661D01*
X138699465Y-92482326D01*
X138710899Y-92444633D01*
X138729466Y-92409897D01*
X138754452Y-92379452D01*
X138784897Y-92354466D01*
X138819633Y-92335899D01*
X138857326Y-92324465D01*
X138902661Y-92320000D01*
X139989339Y-92320000D01*
X140034674Y-92324465D01*
G37*
G36*
X172165674Y-91453465D02*
G01*
X172203367Y-91464899D01*
X172238103Y-91483466D01*
X172268548Y-91508452D01*
X172293534Y-91538897D01*
X172312101Y-91573633D01*
X172323535Y-91611326D01*
X172328000Y-91656661D01*
X172328000Y-92493339D01*
X172323535Y-92538674D01*
X172312101Y-92576367D01*
X172293534Y-92611103D01*
X172268548Y-92641548D01*
X172238103Y-92666534D01*
X172203367Y-92685101D01*
X172165674Y-92696535D01*
X172120339Y-92701000D01*
X171033661Y-92701000D01*
X170988326Y-92696535D01*
X170950633Y-92685101D01*
X170915897Y-92666534D01*
X170885452Y-92641548D01*
X170860466Y-92611103D01*
X170841899Y-92576367D01*
X170830465Y-92538674D01*
X170826000Y-92493339D01*
X170826000Y-91656661D01*
X170830465Y-91611326D01*
X170841899Y-91573633D01*
X170860466Y-91538897D01*
X170885452Y-91508452D01*
X170915897Y-91483466D01*
X170950633Y-91464899D01*
X170988326Y-91453465D01*
X171033661Y-91449000D01*
X172120339Y-91449000D01*
X172165674Y-91453465D01*
G37*
G36*
X133992066Y-90533447D02*
G01*
X134007611Y-90552389D01*
X134026553Y-90567934D01*
X134048164Y-90579485D01*
X134071613Y-90586598D01*
X134095999Y-90589000D01*
X135144001Y-90589000D01*
X135168387Y-90586598D01*
X135191836Y-90579485D01*
X135213447Y-90567934D01*
X135232389Y-90552389D01*
X135247934Y-90533447D01*
X135258328Y-90514000D01*
X135871000Y-90514000D01*
X135871000Y-92366000D01*
X135258328Y-92366000D01*
X135247934Y-92346553D01*
X135232389Y-92327611D01*
X135213447Y-92312066D01*
X135191836Y-92300515D01*
X135168387Y-92293402D01*
X135144001Y-92291000D01*
X134095999Y-92291000D01*
X134071613Y-92293402D01*
X134048164Y-92300515D01*
X134026553Y-92312066D01*
X134007611Y-92327611D01*
X133992066Y-92346553D01*
X133981672Y-92366000D01*
X133369000Y-92366000D01*
X133369000Y-90514000D01*
X133981672Y-90514000D01*
X133992066Y-90533447D01*
G37*
G36*
X162673512Y-89273927D02*
G01*
X162822812Y-89303624D01*
X162986784Y-89371544D01*
X163134354Y-89470147D01*
X163259853Y-89595646D01*
X163358456Y-89743216D01*
X163426376Y-89907188D01*
X163461000Y-90081259D01*
X163461000Y-90258741D01*
X163426376Y-90432812D01*
X163358456Y-90596784D01*
X163259853Y-90744354D01*
X163134354Y-90869853D01*
X162986784Y-90968456D01*
X162822812Y-91036376D01*
X162673512Y-91066073D01*
X162648742Y-91071000D01*
X162471258Y-91071000D01*
X162446488Y-91066073D01*
X162297188Y-91036376D01*
X162133216Y-90968456D01*
X161985646Y-90869853D01*
X161860147Y-90744354D01*
X161761544Y-90596784D01*
X161693624Y-90432812D01*
X161659000Y-90258741D01*
X161659000Y-90081259D01*
X161693624Y-89907188D01*
X161761544Y-89743216D01*
X161860147Y-89595646D01*
X161985646Y-89470147D01*
X162133216Y-89371544D01*
X162297188Y-89303624D01*
X162446488Y-89273927D01*
X162471258Y-89269000D01*
X162648742Y-89269000D01*
X162673512Y-89273927D01*
G37*
G36*
X142353512Y-89273927D02*
G01*
X142502812Y-89303624D01*
X142666784Y-89371544D01*
X142814354Y-89470147D01*
X142939853Y-89595646D01*
X143038456Y-89743216D01*
X143106376Y-89907188D01*
X143141000Y-90081259D01*
X143141000Y-90258741D01*
X143106376Y-90432812D01*
X143038456Y-90596784D01*
X142939853Y-90744354D01*
X142814354Y-90869853D01*
X142666784Y-90968456D01*
X142502812Y-91036376D01*
X142353512Y-91066073D01*
X142328742Y-91071000D01*
X142151258Y-91071000D01*
X142126488Y-91066073D01*
X141977188Y-91036376D01*
X141813216Y-90968456D01*
X141665646Y-90869853D01*
X141540147Y-90744354D01*
X141441544Y-90596784D01*
X141373624Y-90432812D01*
X141339000Y-90258741D01*
X141339000Y-90081259D01*
X141373624Y-89907188D01*
X141441544Y-89743216D01*
X141540147Y-89595646D01*
X141665646Y-89470147D01*
X141813216Y-89371544D01*
X141977188Y-89303624D01*
X142126488Y-89273927D01*
X142151258Y-89269000D01*
X142328742Y-89269000D01*
X142353512Y-89273927D01*
G37*
G36*
X172165674Y-89403465D02*
G01*
X172203367Y-89414899D01*
X172238103Y-89433466D01*
X172268548Y-89458452D01*
X172293534Y-89488897D01*
X172312101Y-89523633D01*
X172323535Y-89561326D01*
X172328000Y-89606661D01*
X172328000Y-90443339D01*
X172323535Y-90488674D01*
X172312101Y-90526367D01*
X172293534Y-90561103D01*
X172268548Y-90591548D01*
X172238103Y-90616534D01*
X172203367Y-90635101D01*
X172165674Y-90646535D01*
X172120339Y-90651000D01*
X171033661Y-90651000D01*
X170988326Y-90646535D01*
X170950633Y-90635101D01*
X170915897Y-90616534D01*
X170885452Y-90591548D01*
X170860466Y-90561103D01*
X170841899Y-90526367D01*
X170830465Y-90488674D01*
X170826000Y-90443339D01*
X170826000Y-89606661D01*
X170830465Y-89561326D01*
X170841899Y-89523633D01*
X170860466Y-89488897D01*
X170885452Y-89458452D01*
X170915897Y-89433466D01*
X170950633Y-89414899D01*
X170988326Y-89403465D01*
X171033661Y-89399000D01*
X172120339Y-89399000D01*
X172165674Y-89403465D01*
G37*
G36*
X170008674Y-87391465D02*
G01*
X170046367Y-87402899D01*
X170081103Y-87421466D01*
X170111548Y-87446452D01*
X170136534Y-87476897D01*
X170155101Y-87511633D01*
X170166535Y-87549326D01*
X170171000Y-87594661D01*
X170171000Y-88681339D01*
X170166535Y-88726674D01*
X170155101Y-88764367D01*
X170136534Y-88799103D01*
X170111548Y-88829548D01*
X170081103Y-88854534D01*
X170046367Y-88873101D01*
X170008674Y-88884535D01*
X169963339Y-88889000D01*
X169126661Y-88889000D01*
X169081326Y-88884535D01*
X169043633Y-88873101D01*
X169008897Y-88854534D01*
X168978452Y-88829548D01*
X168953466Y-88799103D01*
X168934899Y-88764367D01*
X168923465Y-88726674D01*
X168919000Y-88681339D01*
X168919000Y-87594661D01*
X168923465Y-87549326D01*
X168934899Y-87511633D01*
X168953466Y-87476897D01*
X168978452Y-87446452D01*
X169008897Y-87421466D01*
X169043633Y-87402899D01*
X169081326Y-87391465D01*
X169126661Y-87387000D01*
X169963339Y-87387000D01*
X170008674Y-87391465D01*
G37*
G36*
X172058674Y-87391465D02*
G01*
X172096367Y-87402899D01*
X172131103Y-87421466D01*
X172161548Y-87446452D01*
X172186534Y-87476897D01*
X172205101Y-87511633D01*
X172216535Y-87549326D01*
X172221000Y-87594661D01*
X172221000Y-88681339D01*
X172216535Y-88726674D01*
X172205101Y-88764367D01*
X172186534Y-88799103D01*
X172161548Y-88829548D01*
X172131103Y-88854534D01*
X172096367Y-88873101D01*
X172058674Y-88884535D01*
X172013339Y-88889000D01*
X171176661Y-88889000D01*
X171131326Y-88884535D01*
X171093633Y-88873101D01*
X171058897Y-88854534D01*
X171028452Y-88829548D01*
X171003466Y-88799103D01*
X170984899Y-88764367D01*
X170973465Y-88726674D01*
X170969000Y-88681339D01*
X170969000Y-87594661D01*
X170973465Y-87549326D01*
X170984899Y-87511633D01*
X171003466Y-87476897D01*
X171028452Y-87446452D01*
X171058897Y-87421466D01*
X171093633Y-87402899D01*
X171131326Y-87391465D01*
X171176661Y-87387000D01*
X172013339Y-87387000D01*
X172058674Y-87391465D01*
G37*
G36*
X142353512Y-86733927D02*
G01*
X142502812Y-86763624D01*
X142666784Y-86831544D01*
X142814354Y-86930147D01*
X142939853Y-87055646D01*
X143038456Y-87203216D01*
X143106376Y-87367188D01*
X143141000Y-87541259D01*
X143141000Y-87718741D01*
X143106376Y-87892812D01*
X143038456Y-88056784D01*
X142939853Y-88204354D01*
X142814354Y-88329853D01*
X142666784Y-88428456D01*
X142502812Y-88496376D01*
X142353512Y-88526073D01*
X142328742Y-88531000D01*
X142151258Y-88531000D01*
X142126488Y-88526073D01*
X141977188Y-88496376D01*
X141813216Y-88428456D01*
X141665646Y-88329853D01*
X141540147Y-88204354D01*
X141441544Y-88056784D01*
X141373624Y-87892812D01*
X141339000Y-87718741D01*
X141339000Y-87541259D01*
X141373624Y-87367188D01*
X141441544Y-87203216D01*
X141540147Y-87055646D01*
X141665646Y-86930147D01*
X141813216Y-86831544D01*
X141977188Y-86763624D01*
X142126488Y-86733927D01*
X142151258Y-86729000D01*
X142328742Y-86729000D01*
X142353512Y-86733927D01*
G37*
G36*
X162673512Y-86733927D02*
G01*
X162822812Y-86763624D01*
X162986784Y-86831544D01*
X163134354Y-86930147D01*
X163259853Y-87055646D01*
X163358456Y-87203216D01*
X163426376Y-87367188D01*
X163461000Y-87541259D01*
X163461000Y-87718741D01*
X163426376Y-87892812D01*
X163358456Y-88056784D01*
X163259853Y-88204354D01*
X163134354Y-88329853D01*
X162986784Y-88428456D01*
X162822812Y-88496376D01*
X162673512Y-88526073D01*
X162648742Y-88531000D01*
X162471258Y-88531000D01*
X162446488Y-88526073D01*
X162297188Y-88496376D01*
X162133216Y-88428456D01*
X161985646Y-88329853D01*
X161860147Y-88204354D01*
X161761544Y-88056784D01*
X161693624Y-87892812D01*
X161659000Y-87718741D01*
X161659000Y-87541259D01*
X161693624Y-87367188D01*
X161761544Y-87203216D01*
X161860147Y-87055646D01*
X161985646Y-86930147D01*
X162133216Y-86831544D01*
X162297188Y-86763624D01*
X162446488Y-86733927D01*
X162471258Y-86729000D01*
X162648742Y-86729000D01*
X162673512Y-86733927D01*
G37*
G36*
X162673512Y-84193927D02*
G01*
X162822812Y-84223624D01*
X162986784Y-84291544D01*
X163134354Y-84390147D01*
X163259853Y-84515646D01*
X163358456Y-84663216D01*
X163426376Y-84827188D01*
X163461000Y-85001259D01*
X163461000Y-85178741D01*
X163426376Y-85352812D01*
X163358456Y-85516784D01*
X163259853Y-85664354D01*
X163134354Y-85789853D01*
X162986784Y-85888456D01*
X162822812Y-85956376D01*
X162673512Y-85986073D01*
X162648742Y-85991000D01*
X162471258Y-85991000D01*
X162446488Y-85986073D01*
X162297188Y-85956376D01*
X162133216Y-85888456D01*
X161985646Y-85789853D01*
X161860147Y-85664354D01*
X161761544Y-85516784D01*
X161693624Y-85352812D01*
X161659000Y-85178741D01*
X161659000Y-85001259D01*
X161693624Y-84827188D01*
X161761544Y-84663216D01*
X161860147Y-84515646D01*
X161985646Y-84390147D01*
X162133216Y-84291544D01*
X162297188Y-84223624D01*
X162446488Y-84193927D01*
X162471258Y-84189000D01*
X162648742Y-84189000D01*
X162673512Y-84193927D01*
G37*
G36*
X142353512Y-84193927D02*
G01*
X142502812Y-84223624D01*
X142666784Y-84291544D01*
X142814354Y-84390147D01*
X142939853Y-84515646D01*
X143038456Y-84663216D01*
X143106376Y-84827188D01*
X143141000Y-85001259D01*
X143141000Y-85178741D01*
X143106376Y-85352812D01*
X143038456Y-85516784D01*
X142939853Y-85664354D01*
X142814354Y-85789853D01*
X142666784Y-85888456D01*
X142502812Y-85956376D01*
X142353512Y-85986073D01*
X142328742Y-85991000D01*
X142151258Y-85991000D01*
X142126488Y-85986073D01*
X141977188Y-85956376D01*
X141813216Y-85888456D01*
X141665646Y-85789853D01*
X141540147Y-85664354D01*
X141441544Y-85516784D01*
X141373624Y-85352812D01*
X141339000Y-85178741D01*
X141339000Y-85001259D01*
X141373624Y-84827188D01*
X141441544Y-84663216D01*
X141540147Y-84515646D01*
X141665646Y-84390147D01*
X141813216Y-84291544D01*
X141977188Y-84223624D01*
X142126488Y-84193927D01*
X142151258Y-84189000D01*
X142328742Y-84189000D01*
X142353512Y-84193927D01*
G37*
G36*
X162673512Y-81653927D02*
G01*
X162822812Y-81683624D01*
X162986784Y-81751544D01*
X163134354Y-81850147D01*
X163259853Y-81975646D01*
X163358456Y-82123216D01*
X163426376Y-82287188D01*
X163461000Y-82461259D01*
X163461000Y-82638741D01*
X163426376Y-82812812D01*
X163358456Y-82976784D01*
X163259853Y-83124354D01*
X163134354Y-83249853D01*
X162986784Y-83348456D01*
X162822812Y-83416376D01*
X162673512Y-83446073D01*
X162648742Y-83451000D01*
X162471258Y-83451000D01*
X162446488Y-83446073D01*
X162297188Y-83416376D01*
X162133216Y-83348456D01*
X161985646Y-83249853D01*
X161860147Y-83124354D01*
X161761544Y-82976784D01*
X161693624Y-82812812D01*
X161659000Y-82638741D01*
X161659000Y-82461259D01*
X161693624Y-82287188D01*
X161761544Y-82123216D01*
X161860147Y-81975646D01*
X161985646Y-81850147D01*
X162133216Y-81751544D01*
X162297188Y-81683624D01*
X162446488Y-81653927D01*
X162471258Y-81649000D01*
X162648742Y-81649000D01*
X162673512Y-81653927D01*
G37*
G36*
X142353512Y-81653927D02*
G01*
X142502812Y-81683624D01*
X142666784Y-81751544D01*
X142814354Y-81850147D01*
X142939853Y-81975646D01*
X143038456Y-82123216D01*
X143106376Y-82287188D01*
X143141000Y-82461259D01*
X143141000Y-82638741D01*
X143106376Y-82812812D01*
X143038456Y-82976784D01*
X142939853Y-83124354D01*
X142814354Y-83249853D01*
X142666784Y-83348456D01*
X142502812Y-83416376D01*
X142353512Y-83446073D01*
X142328742Y-83451000D01*
X142151258Y-83451000D01*
X142126488Y-83446073D01*
X141977188Y-83416376D01*
X141813216Y-83348456D01*
X141665646Y-83249853D01*
X141540147Y-83124354D01*
X141441544Y-82976784D01*
X141373624Y-82812812D01*
X141339000Y-82638741D01*
X141339000Y-82461259D01*
X141373624Y-82287188D01*
X141441544Y-82123216D01*
X141540147Y-81975646D01*
X141665646Y-81850147D01*
X141813216Y-81751544D01*
X141977188Y-81683624D01*
X142126488Y-81653927D01*
X142151258Y-81649000D01*
X142328742Y-81649000D01*
X142353512Y-81653927D01*
G37*
G36*
X162673512Y-79113927D02*
G01*
X162822812Y-79143624D01*
X162986784Y-79211544D01*
X163134354Y-79310147D01*
X163259853Y-79435646D01*
X163358456Y-79583216D01*
X163426376Y-79747188D01*
X163461000Y-79921259D01*
X163461000Y-80098741D01*
X163426376Y-80272812D01*
X163358456Y-80436784D01*
X163259853Y-80584354D01*
X163134354Y-80709853D01*
X162986784Y-80808456D01*
X162822812Y-80876376D01*
X162673512Y-80906073D01*
X162648742Y-80911000D01*
X162471258Y-80911000D01*
X162446488Y-80906073D01*
X162297188Y-80876376D01*
X162133216Y-80808456D01*
X161985646Y-80709853D01*
X161860147Y-80584354D01*
X161761544Y-80436784D01*
X161693624Y-80272812D01*
X161659000Y-80098741D01*
X161659000Y-79921259D01*
X161693624Y-79747188D01*
X161761544Y-79583216D01*
X161860147Y-79435646D01*
X161985646Y-79310147D01*
X162133216Y-79211544D01*
X162297188Y-79143624D01*
X162446488Y-79113927D01*
X162471258Y-79109000D01*
X162648742Y-79109000D01*
X162673512Y-79113927D01*
G37*
G36*
X142353512Y-79113927D02*
G01*
X142502812Y-79143624D01*
X142666784Y-79211544D01*
X142814354Y-79310147D01*
X142939853Y-79435646D01*
X143038456Y-79583216D01*
X143106376Y-79747188D01*
X143141000Y-79921259D01*
X143141000Y-80098741D01*
X143106376Y-80272812D01*
X143038456Y-80436784D01*
X142939853Y-80584354D01*
X142814354Y-80709853D01*
X142666784Y-80808456D01*
X142502812Y-80876376D01*
X142353512Y-80906073D01*
X142328742Y-80911000D01*
X142151258Y-80911000D01*
X142126488Y-80906073D01*
X141977188Y-80876376D01*
X141813216Y-80808456D01*
X141665646Y-80709853D01*
X141540147Y-80584354D01*
X141441544Y-80436784D01*
X141373624Y-80272812D01*
X141339000Y-80098741D01*
X141339000Y-79921259D01*
X141373624Y-79747188D01*
X141441544Y-79583216D01*
X141540147Y-79435646D01*
X141665646Y-79310147D01*
X141813216Y-79211544D01*
X141977188Y-79143624D01*
X142126488Y-79113927D01*
X142151258Y-79109000D01*
X142328742Y-79109000D01*
X142353512Y-79113927D01*
G37*
G36*
X162673512Y-76573927D02*
G01*
X162822812Y-76603624D01*
X162986784Y-76671544D01*
X163134354Y-76770147D01*
X163259853Y-76895646D01*
X163358456Y-77043216D01*
X163426376Y-77207188D01*
X163461000Y-77381259D01*
X163461000Y-77558741D01*
X163426376Y-77732812D01*
X163358456Y-77896784D01*
X163259853Y-78044354D01*
X163134354Y-78169853D01*
X162986784Y-78268456D01*
X162822812Y-78336376D01*
X162673512Y-78366073D01*
X162648742Y-78371000D01*
X162471258Y-78371000D01*
X162446488Y-78366073D01*
X162297188Y-78336376D01*
X162133216Y-78268456D01*
X161985646Y-78169853D01*
X161860147Y-78044354D01*
X161761544Y-77896784D01*
X161693624Y-77732812D01*
X161659000Y-77558741D01*
X161659000Y-77381259D01*
X161693624Y-77207188D01*
X161761544Y-77043216D01*
X161860147Y-76895646D01*
X161985646Y-76770147D01*
X162133216Y-76671544D01*
X162297188Y-76603624D01*
X162446488Y-76573927D01*
X162471258Y-76569000D01*
X162648742Y-76569000D01*
X162673512Y-76573927D01*
G37*
G36*
X142353512Y-76573927D02*
G01*
X142502812Y-76603624D01*
X142666784Y-76671544D01*
X142814354Y-76770147D01*
X142939853Y-76895646D01*
X143038456Y-77043216D01*
X143106376Y-77207188D01*
X143141000Y-77381259D01*
X143141000Y-77558741D01*
X143106376Y-77732812D01*
X143038456Y-77896784D01*
X142939853Y-78044354D01*
X142814354Y-78169853D01*
X142666784Y-78268456D01*
X142502812Y-78336376D01*
X142353512Y-78366073D01*
X142328742Y-78371000D01*
X142151258Y-78371000D01*
X142126488Y-78366073D01*
X141977188Y-78336376D01*
X141813216Y-78268456D01*
X141665646Y-78169853D01*
X141540147Y-78044354D01*
X141441544Y-77896784D01*
X141373624Y-77732812D01*
X141339000Y-77558741D01*
X141339000Y-77381259D01*
X141373624Y-77207188D01*
X141441544Y-77043216D01*
X141540147Y-76895646D01*
X141665646Y-76770147D01*
X141813216Y-76671544D01*
X141977188Y-76603624D01*
X142126488Y-76573927D01*
X142151258Y-76569000D01*
X142328742Y-76569000D01*
X142353512Y-76573927D01*
G37*
G36*
X162673512Y-74033927D02*
G01*
X162822812Y-74063624D01*
X162986784Y-74131544D01*
X163134354Y-74230147D01*
X163259853Y-74355646D01*
X163358456Y-74503216D01*
X163426376Y-74667188D01*
X163461000Y-74841259D01*
X163461000Y-75018741D01*
X163426376Y-75192812D01*
X163358456Y-75356784D01*
X163259853Y-75504354D01*
X163134354Y-75629853D01*
X162986784Y-75728456D01*
X162822812Y-75796376D01*
X162673512Y-75826073D01*
X162648742Y-75831000D01*
X162471258Y-75831000D01*
X162446488Y-75826073D01*
X162297188Y-75796376D01*
X162133216Y-75728456D01*
X161985646Y-75629853D01*
X161860147Y-75504354D01*
X161761544Y-75356784D01*
X161693624Y-75192812D01*
X161659000Y-75018741D01*
X161659000Y-74841259D01*
X161693624Y-74667188D01*
X161761544Y-74503216D01*
X161860147Y-74355646D01*
X161985646Y-74230147D01*
X162133216Y-74131544D01*
X162297188Y-74063624D01*
X162446488Y-74033927D01*
X162471258Y-74029000D01*
X162648742Y-74029000D01*
X162673512Y-74033927D01*
G37*
G36*
X142353512Y-74033927D02*
G01*
X142502812Y-74063624D01*
X142666784Y-74131544D01*
X142814354Y-74230147D01*
X142939853Y-74355646D01*
X143038456Y-74503216D01*
X143106376Y-74667188D01*
X143141000Y-74841259D01*
X143141000Y-75018741D01*
X143106376Y-75192812D01*
X143038456Y-75356784D01*
X142939853Y-75504354D01*
X142814354Y-75629853D01*
X142666784Y-75728456D01*
X142502812Y-75796376D01*
X142353512Y-75826073D01*
X142328742Y-75831000D01*
X142151258Y-75831000D01*
X142126488Y-75826073D01*
X141977188Y-75796376D01*
X141813216Y-75728456D01*
X141665646Y-75629853D01*
X141540147Y-75504354D01*
X141441544Y-75356784D01*
X141373624Y-75192812D01*
X141339000Y-75018741D01*
X141339000Y-74841259D01*
X141373624Y-74667188D01*
X141441544Y-74503216D01*
X141540147Y-74355646D01*
X141665646Y-74230147D01*
X141813216Y-74131544D01*
X141977188Y-74063624D01*
X142126488Y-74033927D01*
X142151258Y-74029000D01*
X142328742Y-74029000D01*
X142353512Y-74033927D01*
G37*
G36*
X162673512Y-71493927D02*
G01*
X162822812Y-71523624D01*
X162986784Y-71591544D01*
X163134354Y-71690147D01*
X163259853Y-71815646D01*
X163358456Y-71963216D01*
X163426376Y-72127188D01*
X163461000Y-72301259D01*
X163461000Y-72478741D01*
X163426376Y-72652812D01*
X163358456Y-72816784D01*
X163259853Y-72964354D01*
X163134354Y-73089853D01*
X162986784Y-73188456D01*
X162822812Y-73256376D01*
X162673512Y-73286073D01*
X162648742Y-73291000D01*
X162471258Y-73291000D01*
X162446488Y-73286073D01*
X162297188Y-73256376D01*
X162133216Y-73188456D01*
X161985646Y-73089853D01*
X161860147Y-72964354D01*
X161761544Y-72816784D01*
X161693624Y-72652812D01*
X161659000Y-72478741D01*
X161659000Y-72301259D01*
X161693624Y-72127188D01*
X161761544Y-71963216D01*
X161860147Y-71815646D01*
X161985646Y-71690147D01*
X162133216Y-71591544D01*
X162297188Y-71523624D01*
X162446488Y-71493927D01*
X162471258Y-71489000D01*
X162648742Y-71489000D01*
X162673512Y-71493927D01*
G37*
G36*
X142353512Y-71493927D02*
G01*
X142502812Y-71523624D01*
X142666784Y-71591544D01*
X142814354Y-71690147D01*
X142939853Y-71815646D01*
X143038456Y-71963216D01*
X143106376Y-72127188D01*
X143141000Y-72301259D01*
X143141000Y-72478741D01*
X143106376Y-72652812D01*
X143038456Y-72816784D01*
X142939853Y-72964354D01*
X142814354Y-73089853D01*
X142666784Y-73188456D01*
X142502812Y-73256376D01*
X142353512Y-73286073D01*
X142328742Y-73291000D01*
X142151258Y-73291000D01*
X142126488Y-73286073D01*
X141977188Y-73256376D01*
X141813216Y-73188456D01*
X141665646Y-73089853D01*
X141540147Y-72964354D01*
X141441544Y-72816784D01*
X141373624Y-72652812D01*
X141339000Y-72478741D01*
X141339000Y-72301259D01*
X141373624Y-72127188D01*
X141441544Y-71963216D01*
X141540147Y-71815646D01*
X141665646Y-71690147D01*
X141813216Y-71591544D01*
X141977188Y-71523624D01*
X142126488Y-71493927D01*
X142151258Y-71489000D01*
X142328742Y-71489000D01*
X142353512Y-71493927D01*
G37*
G36*
X133686674Y-69484465D02*
G01*
X133724367Y-69495899D01*
X133759103Y-69514466D01*
X133789548Y-69539452D01*
X133814534Y-69569897D01*
X133833101Y-69604633D01*
X133844535Y-69642326D01*
X133849000Y-69687661D01*
X133849000Y-70774339D01*
X133844535Y-70819674D01*
X133833101Y-70857367D01*
X133814534Y-70892103D01*
X133789548Y-70922548D01*
X133759103Y-70947534D01*
X133724367Y-70966101D01*
X133686674Y-70977535D01*
X133641339Y-70982000D01*
X132804661Y-70982000D01*
X132759326Y-70977535D01*
X132721633Y-70966101D01*
X132686897Y-70947534D01*
X132656452Y-70922548D01*
X132631466Y-70892103D01*
X132612899Y-70857367D01*
X132601465Y-70819674D01*
X132597000Y-70774339D01*
X132597000Y-69687661D01*
X132601465Y-69642326D01*
X132612899Y-69604633D01*
X132631466Y-69569897D01*
X132656452Y-69539452D01*
X132686897Y-69514466D01*
X132721633Y-69495899D01*
X132759326Y-69484465D01*
X132804661Y-69480000D01*
X133641339Y-69480000D01*
X133686674Y-69484465D01*
G37*
G36*
X135736674Y-69484465D02*
G01*
X135774367Y-69495899D01*
X135809103Y-69514466D01*
X135839548Y-69539452D01*
X135864534Y-69569897D01*
X135883101Y-69604633D01*
X135894535Y-69642326D01*
X135899000Y-69687661D01*
X135899000Y-70774339D01*
X135894535Y-70819674D01*
X135883101Y-70857367D01*
X135864534Y-70892103D01*
X135839548Y-70922548D01*
X135809103Y-70947534D01*
X135774367Y-70966101D01*
X135736674Y-70977535D01*
X135691339Y-70982000D01*
X134854661Y-70982000D01*
X134809326Y-70977535D01*
X134771633Y-70966101D01*
X134736897Y-70947534D01*
X134706452Y-70922548D01*
X134681466Y-70892103D01*
X134662899Y-70857367D01*
X134651465Y-70819674D01*
X134647000Y-70774339D01*
X134647000Y-69687661D01*
X134651465Y-69642326D01*
X134662899Y-69604633D01*
X134681466Y-69569897D01*
X134706452Y-69539452D01*
X134736897Y-69514466D01*
X134771633Y-69495899D01*
X134809326Y-69484465D01*
X134854661Y-69480000D01*
X135691339Y-69480000D01*
X135736674Y-69484465D01*
G37*
G36*
X162673512Y-68953927D02*
G01*
X162822812Y-68983624D01*
X162986784Y-69051544D01*
X163134354Y-69150147D01*
X163259853Y-69275646D01*
X163358456Y-69423216D01*
X163426376Y-69587188D01*
X163461000Y-69761259D01*
X163461000Y-69938741D01*
X163426376Y-70112812D01*
X163358456Y-70276784D01*
X163259853Y-70424354D01*
X163134354Y-70549853D01*
X162986784Y-70648456D01*
X162822812Y-70716376D01*
X162673512Y-70746073D01*
X162648742Y-70751000D01*
X162471258Y-70751000D01*
X162446488Y-70746073D01*
X162297188Y-70716376D01*
X162133216Y-70648456D01*
X161985646Y-70549853D01*
X161860147Y-70424354D01*
X161761544Y-70276784D01*
X161693624Y-70112812D01*
X161659000Y-69938741D01*
X161659000Y-69761259D01*
X161693624Y-69587188D01*
X161761544Y-69423216D01*
X161860147Y-69275646D01*
X161985646Y-69150147D01*
X162133216Y-69051544D01*
X162297188Y-68983624D01*
X162446488Y-68953927D01*
X162471258Y-68949000D01*
X162648742Y-68949000D01*
X162673512Y-68953927D01*
G37*
G36*
X142353512Y-68953927D02*
G01*
X142502812Y-68983624D01*
X142666784Y-69051544D01*
X142814354Y-69150147D01*
X142939853Y-69275646D01*
X143038456Y-69423216D01*
X143106376Y-69587188D01*
X143141000Y-69761259D01*
X143141000Y-69938741D01*
X143106376Y-70112812D01*
X143038456Y-70276784D01*
X142939853Y-70424354D01*
X142814354Y-70549853D01*
X142666784Y-70648456D01*
X142502812Y-70716376D01*
X142353512Y-70746073D01*
X142328742Y-70751000D01*
X142151258Y-70751000D01*
X142126488Y-70746073D01*
X141977188Y-70716376D01*
X141813216Y-70648456D01*
X141665646Y-70549853D01*
X141540147Y-70424354D01*
X141441544Y-70276784D01*
X141373624Y-70112812D01*
X141339000Y-69938741D01*
X141339000Y-69761259D01*
X141373624Y-69587188D01*
X141441544Y-69423216D01*
X141540147Y-69275646D01*
X141665646Y-69150147D01*
X141813216Y-69051544D01*
X141977188Y-68983624D01*
X142126488Y-68953927D01*
X142151258Y-68949000D01*
X142328742Y-68949000D01*
X142353512Y-68953927D01*
G37*
G36*
X133811674Y-67586465D02*
G01*
X133849367Y-67597899D01*
X133884103Y-67616466D01*
X133914548Y-67641452D01*
X133939534Y-67671897D01*
X133958101Y-67706633D01*
X133969535Y-67744326D01*
X133974000Y-67789661D01*
X133974000Y-68626339D01*
X133969535Y-68671674D01*
X133958101Y-68709367D01*
X133939534Y-68744103D01*
X133914548Y-68774548D01*
X133884103Y-68799534D01*
X133849367Y-68818101D01*
X133811674Y-68829535D01*
X133766339Y-68834000D01*
X132679661Y-68834000D01*
X132634326Y-68829535D01*
X132596633Y-68818101D01*
X132561897Y-68799534D01*
X132531452Y-68774548D01*
X132506466Y-68744103D01*
X132487899Y-68709367D01*
X132476465Y-68671674D01*
X132472000Y-68626339D01*
X132472000Y-67789661D01*
X132476465Y-67744326D01*
X132487899Y-67706633D01*
X132506466Y-67671897D01*
X132531452Y-67641452D01*
X132561897Y-67616466D01*
X132596633Y-67597899D01*
X132634326Y-67586465D01*
X132679661Y-67582000D01*
X133766339Y-67582000D01*
X133811674Y-67586465D01*
G37*
G36*
X142353512Y-66413927D02*
G01*
X142502812Y-66443624D01*
X142666784Y-66511544D01*
X142814354Y-66610147D01*
X142939853Y-66735646D01*
X143038456Y-66883216D01*
X143106376Y-67047188D01*
X143141000Y-67221259D01*
X143141000Y-67398741D01*
X143106376Y-67572812D01*
X143038456Y-67736784D01*
X142939853Y-67884354D01*
X142814354Y-68009853D01*
X142666784Y-68108456D01*
X142502812Y-68176376D01*
X142353512Y-68206073D01*
X142328742Y-68211000D01*
X142151258Y-68211000D01*
X142126488Y-68206073D01*
X141977188Y-68176376D01*
X141813216Y-68108456D01*
X141665646Y-68009853D01*
X141540147Y-67884354D01*
X141441544Y-67736784D01*
X141373624Y-67572812D01*
X141339000Y-67398741D01*
X141339000Y-67221259D01*
X141373624Y-67047188D01*
X141441544Y-66883216D01*
X141540147Y-66735646D01*
X141665646Y-66610147D01*
X141813216Y-66511544D01*
X141977188Y-66443624D01*
X142126488Y-66413927D01*
X142151258Y-66409000D01*
X142328742Y-66409000D01*
X142353512Y-66413927D01*
G37*
G36*
X163461000Y-68211000D02*
G01*
X161659000Y-68211000D01*
X161659000Y-66409000D01*
X163461000Y-66409000D01*
X163461000Y-68211000D01*
G37*
G36*
X133811674Y-65536465D02*
G01*
X133849367Y-65547899D01*
X133884103Y-65566466D01*
X133914548Y-65591452D01*
X133939534Y-65621897D01*
X133958101Y-65656633D01*
X133969535Y-65694326D01*
X133974000Y-65739661D01*
X133974000Y-66576339D01*
X133969535Y-66621674D01*
X133958101Y-66659367D01*
X133939534Y-66694103D01*
X133914548Y-66724548D01*
X133884103Y-66749534D01*
X133849367Y-66768101D01*
X133811674Y-66779535D01*
X133766339Y-66784000D01*
X132679661Y-66784000D01*
X132634326Y-66779535D01*
X132596633Y-66768101D01*
X132561897Y-66749534D01*
X132531452Y-66724548D01*
X132506466Y-66694103D01*
X132487899Y-66659367D01*
X132476465Y-66621674D01*
X132472000Y-66576339D01*
X132472000Y-65739661D01*
X132476465Y-65694326D01*
X132487899Y-65656633D01*
X132506466Y-65621897D01*
X132531452Y-65591452D01*
X132561897Y-65566466D01*
X132596633Y-65547899D01*
X132634326Y-65536465D01*
X132679661Y-65532000D01*
X133766339Y-65532000D01*
X133811674Y-65536465D01*
G37*
G36*
X137959000Y-64639672D02*
G01*
X137939553Y-64650066D01*
X137920611Y-64665611D01*
X137905066Y-64684553D01*
X137893515Y-64706164D01*
X137886402Y-64729613D01*
X137884000Y-64753999D01*
X137884000Y-65802001D01*
X137886402Y-65826387D01*
X137893515Y-65849836D01*
X137905066Y-65871447D01*
X137920611Y-65890389D01*
X137939553Y-65905934D01*
X137959000Y-65916328D01*
X137959000Y-66529000D01*
X136107000Y-66529000D01*
X136107000Y-65916328D01*
X136126447Y-65905934D01*
X136145389Y-65890389D01*
X136160934Y-65871447D01*
X136172485Y-65849836D01*
X136179598Y-65826387D01*
X136182000Y-65802001D01*
X136182000Y-64753999D01*
X136179598Y-64729613D01*
X136172485Y-64706164D01*
X136160934Y-64684553D01*
X136145389Y-64665611D01*
X136126447Y-64650066D01*
X136107000Y-64639672D01*
X136107000Y-64027000D01*
X137959000Y-64027000D01*
X137959000Y-64639672D01*
G37*
G36*
X168751066Y-64625447D02*
G01*
X168766611Y-64644389D01*
X168785553Y-64659934D01*
X168807164Y-64671485D01*
X168830613Y-64678598D01*
X168854999Y-64681000D01*
X169903001Y-64681000D01*
X169927387Y-64678598D01*
X169950836Y-64671485D01*
X169972447Y-64659934D01*
X169991389Y-64644389D01*
X170006934Y-64625447D01*
X170017328Y-64606000D01*
X170630000Y-64606000D01*
X170630000Y-66458000D01*
X170017328Y-66458000D01*
X170006934Y-66438553D01*
X169991389Y-66419611D01*
X169972447Y-66404066D01*
X169950836Y-66392515D01*
X169927387Y-66385402D01*
X169903001Y-66383000D01*
X168854999Y-66383000D01*
X168830613Y-66385402D01*
X168807164Y-66392515D01*
X168785553Y-66404066D01*
X168766611Y-66419611D01*
X168751066Y-66438553D01*
X168740672Y-66458000D01*
X168128000Y-66458000D01*
X168128000Y-64606000D01*
X168740672Y-64606000D01*
X168751066Y-64625447D01*
G37*
G36*
X142353512Y-63873927D02*
G01*
X142502812Y-63903624D01*
X142666784Y-63971544D01*
X142814354Y-64070147D01*
X142939853Y-64195646D01*
X143038456Y-64343216D01*
X143106376Y-64507188D01*
X143130605Y-64629000D01*
X143140949Y-64681000D01*
X143141000Y-64681259D01*
X143141000Y-64858741D01*
X143106376Y-65032812D01*
X143038456Y-65196784D01*
X142939853Y-65344354D01*
X142814354Y-65469853D01*
X142666784Y-65568456D01*
X142502812Y-65636376D01*
X142353512Y-65666073D01*
X142328742Y-65671000D01*
X142151258Y-65671000D01*
X142126488Y-65666073D01*
X141977188Y-65636376D01*
X141813216Y-65568456D01*
X141665646Y-65469853D01*
X141540147Y-65344354D01*
X141441544Y-65196784D01*
X141373624Y-65032812D01*
X141339000Y-64858741D01*
X141339000Y-64681259D01*
X141339052Y-64681000D01*
X141349395Y-64629000D01*
X141373624Y-64507188D01*
X141441544Y-64343216D01*
X141540147Y-64195646D01*
X141665646Y-64070147D01*
X141813216Y-63971544D01*
X141977188Y-63903624D01*
X142126488Y-63873927D01*
X142151258Y-63869000D01*
X142328742Y-63869000D01*
X142353512Y-63873927D01*
G37*
G36*
X133811674Y-63767465D02*
G01*
X133849367Y-63778899D01*
X133884103Y-63797466D01*
X133914548Y-63822452D01*
X133939534Y-63852897D01*
X133958101Y-63887633D01*
X133969535Y-63925326D01*
X133974000Y-63970661D01*
X133974000Y-64807339D01*
X133969535Y-64852674D01*
X133958101Y-64890367D01*
X133939534Y-64925103D01*
X133914548Y-64955548D01*
X133884103Y-64980534D01*
X133849367Y-64999101D01*
X133811674Y-65010535D01*
X133766339Y-65015000D01*
X132679661Y-65015000D01*
X132634326Y-65010535D01*
X132596633Y-64999101D01*
X132561897Y-64980534D01*
X132531452Y-64955548D01*
X132506466Y-64925103D01*
X132487899Y-64890367D01*
X132476465Y-64852674D01*
X132472000Y-64807339D01*
X132472000Y-63970661D01*
X132476465Y-63925326D01*
X132487899Y-63887633D01*
X132506466Y-63852897D01*
X132531452Y-63822452D01*
X132561897Y-63797466D01*
X132596633Y-63778899D01*
X132634326Y-63767465D01*
X132679661Y-63763000D01*
X133766339Y-63763000D01*
X133811674Y-63767465D01*
G37*
G36*
X164926674Y-63023465D02*
G01*
X164964367Y-63034899D01*
X164999103Y-63053466D01*
X165029548Y-63078452D01*
X165054534Y-63108897D01*
X165073101Y-63143633D01*
X165084535Y-63181326D01*
X165089000Y-63226661D01*
X165089000Y-64063339D01*
X165084535Y-64108674D01*
X165073101Y-64146367D01*
X165054534Y-64181103D01*
X165029548Y-64211548D01*
X164999103Y-64236534D01*
X164964367Y-64255101D01*
X164926674Y-64266535D01*
X164881339Y-64271000D01*
X163794661Y-64271000D01*
X163749326Y-64266535D01*
X163711633Y-64255101D01*
X163676897Y-64236534D01*
X163646452Y-64211548D01*
X163621466Y-64181103D01*
X163602899Y-64146367D01*
X163591465Y-64108674D01*
X163587000Y-64063339D01*
X163587000Y-63226661D01*
X163591465Y-63181326D01*
X163602899Y-63143633D01*
X163621466Y-63108897D01*
X163646452Y-63078452D01*
X163676897Y-63053466D01*
X163711633Y-63034899D01*
X163749326Y-63023465D01*
X163794661Y-63019000D01*
X164881339Y-63019000D01*
X164926674Y-63023465D01*
G37*
G36*
X142353512Y-61333927D02*
G01*
X142502812Y-61363624D01*
X142666784Y-61431544D01*
X142814354Y-61530147D01*
X142939853Y-61655646D01*
X143038456Y-61803216D01*
X143106376Y-61967188D01*
X143141000Y-62141259D01*
X143141000Y-62318741D01*
X143106376Y-62492812D01*
X143038456Y-62656784D01*
X142939853Y-62804354D01*
X142814354Y-62929853D01*
X142666784Y-63028456D01*
X142502812Y-63096376D01*
X142353512Y-63126073D01*
X142328742Y-63131000D01*
X142151258Y-63131000D01*
X142126488Y-63126073D01*
X141977188Y-63096376D01*
X141813216Y-63028456D01*
X141665646Y-62929853D01*
X141540147Y-62804354D01*
X141441544Y-62656784D01*
X141373624Y-62492812D01*
X141339000Y-62318741D01*
X141339000Y-62141259D01*
X141373624Y-61967188D01*
X141441544Y-61803216D01*
X141540147Y-61655646D01*
X141665646Y-61530147D01*
X141813216Y-61431544D01*
X141977188Y-61363624D01*
X142126488Y-61333927D01*
X142151258Y-61329000D01*
X142328742Y-61329000D01*
X142353512Y-61333927D01*
G37*
G36*
X133811674Y-61717465D02*
G01*
X133849367Y-61728899D01*
X133884103Y-61747466D01*
X133914548Y-61772452D01*
X133939534Y-61802897D01*
X133958101Y-61837633D01*
X133969535Y-61875326D01*
X133974000Y-61920661D01*
X133974000Y-62757339D01*
X133969535Y-62802674D01*
X133958101Y-62840367D01*
X133939534Y-62875103D01*
X133914548Y-62905548D01*
X133884103Y-62930534D01*
X133849367Y-62949101D01*
X133811674Y-62960535D01*
X133766339Y-62965000D01*
X132679661Y-62965000D01*
X132634326Y-62960535D01*
X132596633Y-62949101D01*
X132561897Y-62930534D01*
X132531452Y-62905548D01*
X132506466Y-62875103D01*
X132487899Y-62840367D01*
X132476465Y-62802674D01*
X132472000Y-62757339D01*
X132472000Y-61920661D01*
X132476465Y-61875326D01*
X132487899Y-61837633D01*
X132506466Y-61802897D01*
X132531452Y-61772452D01*
X132561897Y-61747466D01*
X132596633Y-61728899D01*
X132634326Y-61717465D01*
X132679661Y-61713000D01*
X133766339Y-61713000D01*
X133811674Y-61717465D01*
G37*
G36*
X168992674Y-60975465D02*
G01*
X169030367Y-60986899D01*
X169065103Y-61005466D01*
X169095548Y-61030452D01*
X169120534Y-61060897D01*
X169139101Y-61095633D01*
X169150535Y-61133326D01*
X169155000Y-61178661D01*
X169155000Y-62265339D01*
X169150535Y-62310674D01*
X169139101Y-62348367D01*
X169120534Y-62383103D01*
X169095548Y-62413548D01*
X169065103Y-62438534D01*
X169030367Y-62457101D01*
X168992674Y-62468535D01*
X168947339Y-62473000D01*
X168110661Y-62473000D01*
X168065326Y-62468535D01*
X168027633Y-62457101D01*
X167992897Y-62438534D01*
X167962452Y-62413548D01*
X167937466Y-62383103D01*
X167918899Y-62348367D01*
X167907465Y-62310674D01*
X167903000Y-62265339D01*
X167903000Y-61178661D01*
X167907465Y-61133326D01*
X167918899Y-61095633D01*
X167937466Y-61060897D01*
X167962452Y-61030452D01*
X167992897Y-61005466D01*
X168027633Y-60986899D01*
X168065326Y-60975465D01*
X168110661Y-60971000D01*
X168947339Y-60971000D01*
X168992674Y-60975465D01*
G37*
G36*
X166942674Y-60975465D02*
G01*
X166980367Y-60986899D01*
X167015103Y-61005466D01*
X167045548Y-61030452D01*
X167070534Y-61060897D01*
X167089101Y-61095633D01*
X167100535Y-61133326D01*
X167105000Y-61178661D01*
X167105000Y-62265339D01*
X167100535Y-62310674D01*
X167089101Y-62348367D01*
X167070534Y-62383103D01*
X167045548Y-62413548D01*
X167015103Y-62438534D01*
X166980367Y-62457101D01*
X166942674Y-62468535D01*
X166897339Y-62473000D01*
X166060661Y-62473000D01*
X166015326Y-62468535D01*
X165977633Y-62457101D01*
X165942897Y-62438534D01*
X165912452Y-62413548D01*
X165887466Y-62383103D01*
X165868899Y-62348367D01*
X165857465Y-62310674D01*
X165853000Y-62265339D01*
X165853000Y-61178661D01*
X165857465Y-61133326D01*
X165868899Y-61095633D01*
X165887466Y-61060897D01*
X165912452Y-61030452D01*
X165942897Y-61005466D01*
X165977633Y-60986899D01*
X166015326Y-60975465D01*
X166060661Y-60971000D01*
X166897339Y-60971000D01*
X166942674Y-60975465D01*
G37*
G36*
X170770674Y-60975465D02*
G01*
X170808367Y-60986899D01*
X170843103Y-61005466D01*
X170873548Y-61030452D01*
X170898534Y-61060897D01*
X170917101Y-61095633D01*
X170928535Y-61133326D01*
X170933000Y-61178661D01*
X170933000Y-62265339D01*
X170928535Y-62310674D01*
X170917101Y-62348367D01*
X170898534Y-62383103D01*
X170873548Y-62413548D01*
X170843103Y-62438534D01*
X170808367Y-62457101D01*
X170770674Y-62468535D01*
X170725339Y-62473000D01*
X169888661Y-62473000D01*
X169843326Y-62468535D01*
X169805633Y-62457101D01*
X169770897Y-62438534D01*
X169740452Y-62413548D01*
X169715466Y-62383103D01*
X169696899Y-62348367D01*
X169685465Y-62310674D01*
X169681000Y-62265339D01*
X169681000Y-61178661D01*
X169685465Y-61133326D01*
X169696899Y-61095633D01*
X169715466Y-61060897D01*
X169740452Y-61030452D01*
X169770897Y-61005466D01*
X169805633Y-60986899D01*
X169843326Y-60975465D01*
X169888661Y-60971000D01*
X170725339Y-60971000D01*
X170770674Y-60975465D01*
G37*
G36*
X172820674Y-60975465D02*
G01*
X172858367Y-60986899D01*
X172893103Y-61005466D01*
X172923548Y-61030452D01*
X172948534Y-61060897D01*
X172967101Y-61095633D01*
X172978535Y-61133326D01*
X172983000Y-61178661D01*
X172983000Y-62265339D01*
X172978535Y-62310674D01*
X172967101Y-62348367D01*
X172948534Y-62383103D01*
X172923548Y-62413548D01*
X172893103Y-62438534D01*
X172858367Y-62457101D01*
X172820674Y-62468535D01*
X172775339Y-62473000D01*
X171938661Y-62473000D01*
X171893326Y-62468535D01*
X171855633Y-62457101D01*
X171820897Y-62438534D01*
X171790452Y-62413548D01*
X171765466Y-62383103D01*
X171746899Y-62348367D01*
X171735465Y-62310674D01*
X171731000Y-62265339D01*
X171731000Y-61178661D01*
X171735465Y-61133326D01*
X171746899Y-61095633D01*
X171765466Y-61060897D01*
X171790452Y-61030452D01*
X171820897Y-61005466D01*
X171855633Y-60986899D01*
X171893326Y-60975465D01*
X171938661Y-60971000D01*
X172775339Y-60971000D01*
X172820674Y-60975465D01*
G37*
G36*
X164926674Y-60973465D02*
G01*
X164964367Y-60984899D01*
X164999103Y-61003466D01*
X165029548Y-61028452D01*
X165054534Y-61058897D01*
X165073101Y-61093633D01*
X165084535Y-61131326D01*
X165089000Y-61176661D01*
X165089000Y-62013339D01*
X165084535Y-62058674D01*
X165073101Y-62096367D01*
X165054534Y-62131103D01*
X165029548Y-62161548D01*
X164999103Y-62186534D01*
X164964367Y-62205101D01*
X164926674Y-62216535D01*
X164881339Y-62221000D01*
X163794661Y-62221000D01*
X163749326Y-62216535D01*
X163711633Y-62205101D01*
X163676897Y-62186534D01*
X163646452Y-62161548D01*
X163621466Y-62131103D01*
X163602899Y-62096367D01*
X163591465Y-62058674D01*
X163587000Y-62013339D01*
X163587000Y-61176661D01*
X163591465Y-61131326D01*
X163602899Y-61093633D01*
X163621466Y-61058897D01*
X163646452Y-61028452D01*
X163676897Y-61003466D01*
X163711633Y-60984899D01*
X163749326Y-60973465D01*
X163794661Y-60969000D01*
X164881339Y-60969000D01*
X164926674Y-60973465D01*
G37*
G36*
X142353512Y-58793927D02*
G01*
X142502812Y-58823624D01*
X142666784Y-58891544D01*
X142814354Y-58990147D01*
X142939853Y-59115646D01*
X143038456Y-59263216D01*
X143106376Y-59427188D01*
X143141000Y-59601259D01*
X143141000Y-59778741D01*
X143106376Y-59952812D01*
X143038456Y-60116784D01*
X142939853Y-60264354D01*
X142814354Y-60389853D01*
X142666784Y-60488456D01*
X142502812Y-60556376D01*
X142353512Y-60586073D01*
X142328742Y-60591000D01*
X142151258Y-60591000D01*
X142126488Y-60586073D01*
X141977188Y-60556376D01*
X141813216Y-60488456D01*
X141665646Y-60389853D01*
X141540147Y-60264354D01*
X141441544Y-60116784D01*
X141373624Y-59952812D01*
X141339000Y-59778741D01*
X141339000Y-59601259D01*
X141373624Y-59427188D01*
X141441544Y-59263216D01*
X141540147Y-59115646D01*
X141665646Y-58990147D01*
X141813216Y-58891544D01*
X141977188Y-58823624D01*
X142126488Y-58793927D01*
X142151258Y-58789000D01*
X142328742Y-58789000D01*
X142353512Y-58793927D01*
G37*
G36*
X143141000Y-58051000D02*
G01*
X141339000Y-58051000D01*
X141339000Y-56249000D01*
X143141000Y-56249000D01*
X143141000Y-58051000D01*
G37*
G36*
X125660019Y-49789803D02*
G01*
X125697408Y-49801145D01*
X125731862Y-49819560D01*
X125766825Y-49848254D01*
X127951746Y-52033175D01*
X127980440Y-52068138D01*
X127998855Y-52102592D01*
X128010197Y-52139981D01*
X128014026Y-52178858D01*
X128010197Y-52217735D01*
X127998855Y-52255124D01*
X127980440Y-52289578D01*
X127951746Y-52324541D01*
X127340137Y-52936150D01*
X127305174Y-52964844D01*
X127270720Y-52983259D01*
X127233331Y-52994601D01*
X127194454Y-52998430D01*
X127155577Y-52994601D01*
X127118188Y-52983259D01*
X127083734Y-52964844D01*
X127048771Y-52936150D01*
X124863850Y-50751229D01*
X124835156Y-50716266D01*
X124816741Y-50681812D01*
X124805399Y-50644423D01*
X124801570Y-50605546D01*
X124805399Y-50566669D01*
X124816741Y-50529280D01*
X124835156Y-50494826D01*
X124863850Y-50459863D01*
X125475459Y-49848254D01*
X125510422Y-49819560D01*
X125544876Y-49801145D01*
X125582265Y-49789803D01*
X125621142Y-49785974D01*
X125660019Y-49789803D01*
G37*
G36*
X179852735Y-49154803D02*
G01*
X179890124Y-49166145D01*
X179924578Y-49184560D01*
X179959541Y-49213254D01*
X180571150Y-49824863D01*
X180599844Y-49859826D01*
X180618259Y-49894280D01*
X180629601Y-49931669D01*
X180633430Y-49970546D01*
X180629601Y-50009423D01*
X180618259Y-50046812D01*
X180599844Y-50081266D01*
X180571150Y-50116229D01*
X178386229Y-52301150D01*
X178351266Y-52329844D01*
X178316812Y-52348259D01*
X178279423Y-52359601D01*
X178240546Y-52363430D01*
X178201669Y-52359601D01*
X178164280Y-52348259D01*
X178129826Y-52329844D01*
X178094863Y-52301150D01*
X177483254Y-51689541D01*
X177454560Y-51654578D01*
X177436145Y-51620124D01*
X177424803Y-51582735D01*
X177420974Y-51543858D01*
X177424803Y-51504981D01*
X177436145Y-51467592D01*
X177454560Y-51433138D01*
X177483254Y-51398175D01*
X179668175Y-49213254D01*
X179703138Y-49184560D01*
X179737592Y-49166145D01*
X179774981Y-49154803D01*
X179813858Y-49150974D01*
X179852735Y-49154803D01*
G37*
G36*
X126844423Y-48605399D02*
G01*
X126881812Y-48616741D01*
X126916266Y-48635156D01*
X126951229Y-48663850D01*
X129136150Y-50848771D01*
X129164844Y-50883734D01*
X129183259Y-50918188D01*
X129194601Y-50955577D01*
X129198430Y-50994454D01*
X129194601Y-51033331D01*
X129183259Y-51070720D01*
X129164844Y-51105174D01*
X129136150Y-51140137D01*
X128524541Y-51751746D01*
X128489578Y-51780440D01*
X128455124Y-51798855D01*
X128417735Y-51810197D01*
X128378858Y-51814026D01*
X128339981Y-51810197D01*
X128302592Y-51798855D01*
X128268138Y-51780440D01*
X128233175Y-51751746D01*
X126048254Y-49566825D01*
X126019560Y-49531862D01*
X126001145Y-49497408D01*
X125989803Y-49460019D01*
X125985974Y-49421142D01*
X125989803Y-49382265D01*
X126001145Y-49344876D01*
X126019560Y-49310422D01*
X126048254Y-49275459D01*
X126659863Y-48663850D01*
X126694826Y-48635156D01*
X126729280Y-48616741D01*
X126766669Y-48605399D01*
X126805546Y-48601570D01*
X126844423Y-48605399D01*
G37*
G36*
X178668331Y-47970399D02*
G01*
X178705720Y-47981741D01*
X178740174Y-48000156D01*
X178775137Y-48028850D01*
X179386746Y-48640459D01*
X179415440Y-48675422D01*
X179433855Y-48709876D01*
X179445197Y-48747265D01*
X179449026Y-48786142D01*
X179445197Y-48825019D01*
X179433855Y-48862408D01*
X179415440Y-48896862D01*
X179386746Y-48931825D01*
X177201825Y-51116746D01*
X177166862Y-51145440D01*
X177132408Y-51163855D01*
X177095019Y-51175197D01*
X177056142Y-51179026D01*
X177017265Y-51175197D01*
X176979876Y-51163855D01*
X176945422Y-51145440D01*
X176910459Y-51116746D01*
X176298850Y-50505137D01*
X176270156Y-50470174D01*
X176251741Y-50435720D01*
X176240399Y-50398331D01*
X176236570Y-50359454D01*
X176240399Y-50320577D01*
X176251741Y-50283188D01*
X176270156Y-50248734D01*
X176298850Y-50213771D01*
X178483771Y-48028850D01*
X178518734Y-48000156D01*
X178553188Y-47981741D01*
X178590577Y-47970399D01*
X178629454Y-47966570D01*
X178668331Y-47970399D01*
G37*
M02*
